<?xml version="1.0" standalone="no"?>
<!DOCTYPE svg PUBLIC "-//W3C//DTD SVG 20010904//EN"
 "http://www.w3.org/TR/2001/REC-SVG-20010904/DTD/svg10.dtd">
<svg version="1.0" xmlns="http://www.w3.org/2000/svg"
 width="254.000000pt" height="154.000000pt" viewBox="0 0 254.000000 154.000000"
 preserveAspectRatio="xMidYMid meet">

<g transform="translate(0.000000,154.000000) scale(0.100000,-0.100000)"
fill="#000000" stroke="none">
<path d="M1254 1452 c8 -13 -72 -187 -88 -190 -21 -5 -31 -48 -16 -67 10 -12
11 -40 5 -118 -5 -56 -8 -122 -7 -146 2 -40 1 -43 -15 -30 -17 13 -17 12 0 -8
33 -39 146 -54 217 -30 27 9 35 18 36 37 1 14 5 33 9 43 4 9 3 23 -3 30 -14
18 -22 207 -9 236 10 20 8 26 -15 45 -25 20 -98 164 -98 192 0 8 -5 14 -11 14
-5 0 -8 -3 -5 -8z m30 -278 c11 -29 7 -64 -9 -64 -11 0 -15 11 -15 40 0 40 13
53 24 24z m-84 -34 c0 -22 -4 -40 -10 -40 -11 0 -13 39 -4 64 10 26 14 19 14
-24z m160 -17 c0 -13 -4 -23 -10 -23 -5 0 -10 17 -10 38 0 27 3 33 10 22 5 -8
10 -25 10 -37z m-70 -114 c0 -5 -7 -9 -15 -9 -15 0 -20 12 -9 23 8 8 24 -1 24
-14z m-90 2 c0 -6 -4 -13 -10 -16 -5 -3 -10 1 -10 9 0 9 5 16 10 16 6 0 10 -4
10 -9z m160 -7 c0 -8 -5 -12 -10 -9 -6 4 -8 11 -5 16 9 14 15 11 15 -7z m-70
-55 c0 -19 -5 -29 -15 -29 -15 0 -22 50 -9 63 12 12 24 -4 24 -34z m-90 2 c0
-17 -4 -33 -10 -36 -6 -4 -10 8 -10 29 0 20 5 36 10 36 6 0 10 -13 10 -29z
m157 -23 c-2 -13 -4 -5 -4 17 -1 22 1 32 4 23 2 -10 2 -28 0 -40z"/>
<path d="M1038 1219 c-19 -10 -25 -49 -8 -49 11 0 33 37 28 50 -2 5 -11 4 -20
-1z"/>
<path d="M1480 1219 c0 -17 20 -49 30 -49 17 0 11 47 -6 54 -21 8 -24 8 -24
-5z"/>
<path d="M1572 1177 c-12 -15 -22 -67 -12 -67 12 0 40 36 40 53 0 21 -15 30
-28 14z"/>
<path d="M940 1155 c0 -14 8 -29 20 -35 18 -10 20 -8 20 19 0 17 -6 31 -16 35
-23 9 -24 8 -24 -19z"/>
<path d="M1070 1160 c10 -19 50 -29 50 -12 0 14 -24 32 -42 32 -16 0 -17 -3
-8 -20z"/>
<path d="M1426 1165 c-4 -10 6 -20 31 -30 42 -18 64 -16 71 4 4 11 -3 13 -32
8 -33 -5 -35 -4 -26 14 9 16 7 19 -14 19 -13 0 -26 -7 -30 -15z"/>
<path d="M1002 1143 c-9 -3 -5 -10 13 -19 25 -13 55 -10 55 6 0 16 -41 24 -68
13z"/>
<path d="M990 1080 c-9 -17 -8 -20 8 -20 18 0 42 18 42 32 0 17 -40 7 -50 -12z"/>
<path d="M1500 1091 c0 -12 19 -25 43 -28 15 -3 16 0 7 17 -11 20 -50 28 -50
11z"/>
<path d="M940 1070 c-19 -12 0 -34 24 -28 14 2 15 6 4 20 -9 13 -17 15 -28 8z"/>
<path d="M1570 1060 c-10 -19 -9 -21 12 -18 13 2 23 9 23 17 0 23 -23 24 -35
1z"/>
<path d="M1514 1013 c-27 -27 -30 -35 -19 -49 7 -10 19 -15 29 -11 20 8 21 26
0 34 -13 5 -12 9 7 29 12 13 21 25 18 27 -2 1 -18 -12 -35 -30z"/>
<path d="M1024 1002 c4 -7 1 -15 -8 -18 -22 -8 -20 -34 2 -34 9 0 24 6 33 13
15 11 14 14 -9 31 -14 11 -22 14 -18 8z"/>
<path d="M1080 991 c0 -6 5 -13 11 -17 8 -5 6 -10 -5 -16 -20 -11 -21 -28 -2
-28 22 0 35 23 25 48 -8 22 -29 31 -29 13z"/>
<path d="M1430 980 c0 -11 -5 -20 -12 -20 -15 0 23 -29 38 -30 7 0 11 11 10
24 -1 16 -5 22 -16 18 -13 -5 -13 -3 -1 11 12 15 11 17 -3 17 -9 0 -16 -8 -16
-20z"/>
<path d="M1403 905 c0 -8 4 -12 9 -9 5 3 6 10 3 15 -9 13 -12 11 -12 -6z"/>
<path d="M304 800 c-46 -18 -54 -46 -54 -180 0 -126 8 -157 44 -182 21 -15 84
-8 107 11 23 18 24 27 27 149 4 144 -7 184 -54 202 -30 12 -42 12 -70 0z m64
-176 c3 -127 -5 -152 -42 -138 -14 5 -16 25 -16 128 0 68 3 126 7 130 4 4 16
6 28 4 19 -3 20 -11 23 -124z"/>
<path d="M798 802 l-26 -3 -2 -184 -1 -183 58 -4 c98 -5 113 -1 113 33 0 28
-1 29 -50 29 l-50 0 0 154 c0 85 -3 156 -7 158 -5 2 -20 2 -35 0z"/>
<path d="M1934 800 c-46 -18 -54 -46 -54 -178 0 -161 15 -192 90 -192 75 0 90
32 90 185 0 128 -12 169 -56 185 -30 12 -42 12 -70 0z m55 -64 c8 -9 11 -52 9
-126 -3 -94 -6 -115 -20 -124 -12 -7 -21 -7 -28 0 -12 12 -18 233 -6 252 10
16 31 15 45 -2z"/>
<path d="M30 615 l0 -185 75 0 c74 0 76 0 95 33 26 41 26 107 1 138 -17 22
-17 27 -5 44 8 10 14 38 14 61 0 35 -5 47 -31 68 -25 22 -41 26 -90 26 l-59 0
0 -185z m115 80 c0 -36 -3 -40 -27 -43 -27 -3 -28 -2 -28 43 0 45 1 46 28 43
24 -3 27 -7 27 -43z m7 -131 c15 -33 -7 -77 -40 -82 -20 -3 -22 1 -22 52 0 53
1 56 25 56 18 0 29 -8 37 -26z m50 -46 c-6 -6 -15 -8 -19 -4 -4 4 -1 11 7 16
19 12 27 3 12 -12z"/>
<path d="M440 770 c0 -28 3 -30 35 -30 l35 0 1 -77 c1 -43 1 -98 1 -123 -3
-82 6 -110 33 -110 l24 0 3 158 c3 149 4 157 23 158 11 1 26 2 33 3 6 1 12 12
12 26 l0 25 -100 0 -100 0 0 -30z"/>
<path d="M669 796 c-2 -2 -3 -86 -1 -185 l3 -181 24 0 25 0 0 185 0 185 -23 0
c-13 0 -26 -2 -28 -4z"/>
<path d="M964 778 c3 -13 6 -96 6 -185 l0 -163 64 0 c59 0 66 2 90 31 25 29
26 35 26 160 0 125 -1 131 -25 154 -21 22 -33 25 -96 25 -69 0 -71 -1 -65 -22z
m124 -158 c2 -99 0 -116 -15 -127 -39 -29 -43 -19 -43 118 l0 130 28 -3 27 -3
3 -115z"/>
<path d="M1200 615 l0 -185 80 0 80 0 0 31 c0 27 -3 30 -27 28 -70 -5 -73 -3
-73 51 l0 50 46 0 c44 0 45 1 42 28 -3 24 -7 27 -43 27 l-40 0 -3 48 c-3 52
-10 48 88 52 19 0 26 7 28 28 l3 27 -90 0 -91 0 0 -185z"/>
<path d="M1408 793 c-2 -5 -2 -88 0 -185 l3 -178 25 0 c24 0 24 0 24 107 0 63
4 103 9 98 5 -6 22 -53 39 -105 28 -92 30 -95 61 -98 l31 -3 0 185 0 186 -31
0 -30 0 3 -115 c2 -63 0 -115 -4 -115 -5 0 -8 5 -8 12 0 7 -14 59 -32 115 -30
98 -32 103 -59 103 -15 0 -29 -3 -31 -7z"/>
<path d="M1660 616 l0 -186 69 0 c51 0 74 4 86 17 39 38 47 116 16 154 -17 22
-17 27 -5 44 8 10 14 37 14 60 0 62 -32 88 -115 93 l-65 4 0 -186z m118 101
c7 -38 -7 -67 -33 -67 -23 0 -25 4 -25 46 0 44 1 45 27 42 17 -2 29 -10 31
-21z m2 -146 c15 -29 12 -49 -10 -71 -36 -36 -50 -26 -50 35 0 52 1 55 25 55
14 0 29 -8 35 -19z m52 -53 c-6 -6 -15 -8 -19 -4 -4 4 -1 11 7 16 19 12 27 3
12 -12z"/>
<path d="M2100 615 l0 -185 30 0 30 0 0 70 c0 61 2 70 18 70 14 0 22 -16 36
-70 18 -67 20 -70 48 -70 23 0 28 4 24 18 -32 110 -37 143 -21 165 23 33 20
128 -6 161 -19 24 -27 26 -90 26 l-69 0 0 -185z m114 119 c35 -35 11 -114 -35
-114 -17 0 -19 7 -19 65 0 58 2 65 19 65 11 0 27 -7 35 -16z"/>
<path d="M2355 775 c-24 -23 -25 -29 -25 -158 0 -119 2 -137 20 -160 39 -49
125 -44 149 9 6 14 11 58 11 99 l0 75 -45 0 c-43 0 -45 -1 -45 -30 0 -20 5
-30 16 -30 24 0 16 -94 -9 -98 -38 -7 -47 15 -46 112 1 118 8 141 39 141 20 0
26 -6 30 -30 4 -24 11 -31 33 -33 26 -3 27 -1 27 38 0 56 -34 90 -90 90 -30 0
-47 -6 -65 -25z"/>
<path d="M460 343 c0 -28 -5 -43 -15 -47 -9 -3 -21 -19 -26 -36 -11 -29 -29
-41 -29 -19 0 6 -6 9 -12 6 -7 -2 -13 -19 -13 -38 0 -19 -4 -35 -10 -37 -17
-5 -17 36 -1 70 19 36 15 44 -12 29 -11 -6 -28 -8 -36 -5 -12 5 -16 -1 -16
-22 0 -33 -15 -62 -26 -51 -4 4 -2 24 4 44 15 47 10 52 -17 14 -18 -25 -20
-33 -10 -55 20 -42 50 -30 64 27 11 42 21 32 21 -20 -1 -42 2 -48 21 -51 16
-2 28 5 42 28 17 28 20 30 29 14 6 -11 17 -15 31 -11 14 3 21 0 21 -9 0 -19
26 -18 34 1 3 8 2 15 -3 15 -4 0 -6 13 -3 28 5 35 -14 142 -28 156 -7 7 -10
-4 -10 -31z m-4 -129 c-4 -13 -11 -24 -17 -24 -11 0 -3 75 10 95 8 14 14 -42
7 -71z"/>
<path d="M1980 343 c0 -27 -5 -43 -15 -47 -8 -3 -21 -20 -28 -38 l-14 -33 -6
28 c-8 28 -41 38 -50 15 -3 -7 -6 -2 -7 12 -1 20 -6 15 -25 -27 -22 -49 -41
-64 -58 -46 -4 4 5 19 20 35 19 20 24 31 16 39 -20 20 -48 5 -59 -31 -10 -29
-9 -38 4 -52 21 -24 30 -23 61 11 l27 29 -4 -34 c-5 -41 15 -46 24 -6 3 15 9
36 14 47 7 15 9 10 9 -22 1 -31 5 -43 16 -43 8 0 15 8 15 17 0 15 1 15 14 -2
8 -12 20 -16 35 -12 14 3 21 1 21 -9 0 -27 26 -14 43 21 15 33 18 34 42 23
l26 -12 -23 -17 -23 -18 43 2 c39 1 42 3 42 29 0 15 5 30 10 33 6 3 10 11 10
16 0 6 -5 7 -11 3 -8 -5 -10 0 -6 17 16 67 19 102 9 95 -6 -3 -16 -39 -23 -80
l-12 -73 -29 15 c-35 17 -34 43 2 53 22 5 23 7 7 14 -22 9 -47 -11 -47 -39 0
-11 -10 -32 -21 -46 -19 -23 -20 -23 -14 -4 7 27 -12 155 -26 169 -5 5 -9 -6
-9 -32z m-4 -129 c-4 -13 -11 -24 -17 -24 -11 0 -3 75 10 95 8 14 14 -42 7
-71z m-182 42 c-3 -9 -10 -16 -15 -16 -6 0 -5 9 1 21 13 24 24 20 14 -5z"/>
<path d="M188 338 c-17 -30 -17 -186 0 -213 11 -17 12 -14 7 23 -6 34 -4 42 9
42 8 0 18 4 21 10 3 5 0 7 -9 4 -12 -5 -12 0 0 37 27 76 4 153 -28 97z m28
-55 c-3 -26 -11 -52 -16 -57 -12 -12 -13 10 -4 67 10 55 28 47 20 -10z"/>
<path d="M741 328 c-19 -63 -18 -175 3 -204 13 -17 14 -16 10 21 -5 36 -3 41
20 52 14 6 26 7 26 2 0 -5 8 -9 18 -9 14 0 14 2 3 9 -12 8 -11 16 7 52 38 76
3 59 -40 -20 -26 -47 -46 -24 -38 41 8 63 20 73 21 17 l1 -44 8 35 c17 70 -18
113 -39 48z"/>
<path d="M1569 333 c-15 -38 -15 -173 0 -202 17 -31 22 -23 12 22 -8 32 -7 37
10 37 10 0 25 13 34 30 22 42 18 51 -5 13 -24 -40 -45 -44 -24 -5 20 38 19
132 -1 132 -9 0 -20 -12 -26 -27z m26 -79 c-3 -19 -10 -34 -15 -34 -8 0 -3 73
8 100 9 24 15 -27 7 -66z"/>
<path d="M900 291 c0 -11 -3 -28 -6 -38 -6 -16 -5 -16 9 2 18 22 22 55 7 55
-5 0 -10 -9 -10 -19z"/>
<path d="M1287 293 c-8 -10 -21 -32 -28 -48 l-13 -30 -4 28 c-4 32 -26 45 -46
28 -12 -10 -13 -8 -9 11 8 33 -6 17 -33 -39 l-24 -48 4 48 c4 51 -9 62 -24 22
-6 -17 -6 -33 2 -50 14 -32 24 -32 42 3 l15 27 1 -37 c0 -51 16 -48 23 3 8 63
27 74 27 16 0 -51 5 -57 26 -29 8 10 13 12 14 5 0 -20 27 -15 44 8 l15 22 6
-24 c7 -31 -7 -81 -25 -87 -13 -5 -12 4 5 53 7 20 6 20 -9 1 -24 -29 -21 -66
5 -66 34 0 53 60 38 128 l-11 56 -13 -30 c-7 -16 -20 -38 -29 -49 -17 -20 -17
-19 -10 5 3 14 13 38 21 53 17 34 12 44 -10 20z"/>
<path d="M1640 290 c0 -11 4 -20 10 -20 6 0 6 -9 0 -26 -16 -40 -12 -64 9 -64
10 0 22 7 25 16 6 15 4 15 -11 3 -15 -12 -16 -12 -10 4 17 47 18 64 3 70 -9 4
-13 13 -10 22 3 8 1 15 -5 15 -6 0 -11 -9 -11 -20z"/>
<path d="M2272 275 c-15 -31 -15 -46 -2 -25 7 10 9 -10 8 -65 -2 -46 1 -82 7
-85 6 -3 11 18 12 52 2 59 33 140 41 105 2 -10 -6 -35 -17 -57 -13 -25 -17
-42 -10 -46 6 -3 11 -4 13 -3 19 27 43 79 37 79 -5 0 -7 9 -4 20 7 28 -26 39
-43 15 -13 -18 -14 -17 -14 8 0 34 -13 35 -28 2z"/>
<path d="M617 270 c3 -11 7 -20 9 -20 2 0 4 9 4 20 0 11 -4 20 -9 20 -5 0 -7
-9 -4 -20z"/>
<path d="M1440 283 c0 -5 5 -15 10 -23 8 -12 10 -11 10 8 0 12 -4 22 -10 22
-5 0 -10 -3 -10 -7z"/>
<path d="M1703 255 c-6 -19 -8 -33 -3 -30 4 3 10 -4 13 -15 3 -11 11 -20 17
-20 7 0 10 7 6 16 -3 9 -6 31 -6 50 0 44 -14 44 -27 -1z"/>
<path d="M2214 263 c-7 -26 -7 -26 -15 -5 -8 22 -39 31 -39 12 0 -5 4 -10 9
-10 4 0 5 -19 0 -42 -10 -59 6 -72 28 -22 15 34 18 36 21 17 2 -13 7 -23 11
-23 13 0 35 30 27 37 -3 3 -6 1 -6 -5 0 -7 -3 -12 -8 -12 -4 0 -6 18 -4 40 5
46 -14 55 -24 13z"/>
<path d="M847 258 c-2 -13 -7 -30 -11 -38 -4 -9 0 -24 8 -35 13 -18 14 -17 31
16 13 25 14 31 4 22 -13 -10 -14 -7 -11 22 5 38 -13 48 -21 13z"/>
<path d="M958 249 c-6 -36 1 -79 12 -79 10 0 18 68 12 93 -7 27 -19 20 -24
-14z"/>
<path d="M1000 230 c0 -57 13 -65 29 -19 7 21 7 37 0 50 -17 33 -29 21 -29
-31z"/>
<path d="M1047 273 c-11 -10 -8 -25 2 -18 6 3 11 -15 13 -41 4 -56 23 -70 31
-22 7 48 -24 103 -46 81z"/>
<path d="M580 261 c0 -5 7 -11 15 -15 8 -3 15 -1 15 3 0 5 -7 11 -15 15 -8 3
-15 1 -15 -3z"/>
<path d="M650 260 c-8 -5 -12 -11 -9 -14 3 -3 14 1 25 9 21 16 8 20 -16 5z"/>
<path d="M911 239 c-6 -18 -11 -38 -11 -46 0 -19 42 -13 47 7 4 13 3 13 -7 0
-9 -12 -10 -5 -5 28 8 50 -8 57 -24 11z"/>
<path d="M1400 265 c0 -2 10 -10 23 -16 20 -11 21 -11 8 4 -13 16 -31 23 -31
12z"/>
<path d="M1480 260 c-8 -5 -12 -11 -9 -14 2 -3 11 -1 19 4 8 5 12 11 9 14 -2
3 -11 1 -19 -4z"/>
<path d="M515 219 c-4 -6 -5 -12 -2 -15 2 -3 7 2 10 11 7 17 1 20 -8 4z"/>
<path d="M585 220 c-3 -5 -2 -10 4 -10 5 0 13 5 16 10 3 6 2 10 -4 10 -5 0
-13 -4 -16 -10z"/>
<path d="M645 220 c3 -5 14 -10 23 -10 15 0 15 2 2 10 -20 13 -33 13 -25 0z"/>
<path d="M1410 220 c-13 -8 -13 -10 2 -10 9 0 20 5 23 10 8 13 -5 13 -25 0z"/>
<path d="M1475 220 c3 -5 11 -10 16 -10 6 0 7 5 4 10 -3 6 -11 10 -16 10 -6 0
-7 -4 -4 -10z"/>
<path d="M622 200 c0 -14 2 -19 5 -12 2 6 2 18 0 25 -3 6 -5 1 -5 -13z"/>
<path d="M1447 205 c-4 -8 -2 -17 3 -20 6 -4 10 3 10 14 0 25 -6 27 -13 6z"/>
</g>
</svg>
