<?xml version="1.0" standalone="no"?>
<!DOCTYPE svg PUBLIC "-//W3C//DTD SVG 20010904//EN"
 "http://www.w3.org/TR/2001/REC-SVG-20010904/DTD/svg10.dtd">
<svg version="1.0" xmlns="http://www.w3.org/2000/svg"
 width="200.000000pt" height="200.000000pt" viewBox="0 0 200.000000 200.000000"
 preserveAspectRatio="xMidYMid meet">

<g transform="translate(0.000000,200.000000) scale(0.100000,-0.100000)"
fill="#000000" stroke="none">
<path d="M0 1000 l0 -1000 1000 0 1000 0 0 1000 0 1000 -1000 0 -1000 0 0
-1000z m1590 158 l0 -122 53 52 c51 50 54 52 110 52 31 0 57 -3 57 -6 0 -4
-25 -33 -55 -66 -30 -32 -55 -64 -55 -69 0 -5 24 -44 53 -87 28 -42 56 -82 60
-89 6 -10 -6 -13 -52 -13 l-61 0 -36 55 c-20 30 -40 55 -43 55 -18 0 -31 -28
-31 -67 l0 -43 -50 0 -50 0 0 235 0 235 50 0 50 0 0 -122z m-1128 74 c29 -28
33 -39 33 -83 0 -42 -4 -55 -25 -72 l-26 -22 33 -31 c27 -26 33 -39 33 -73 0
-104 -58 -140 -222 -141 l-108 0 0 231 0 231 125 -4 125 -3 32 -33z m563 -111
c125 -73 97 -273 -43 -311 -168 -45 -290 152 -174 281 52 58 147 71 217 30z
m321 18 c45 -12 104 -65 104 -94 0 -8 -18 -20 -40 -26 -38 -11 -42 -11 -56 9
-11 15 -26 22 -50 22 -45 0 -74 -29 -74 -75 0 -68 77 -101 126 -54 21 20 25
20 63 8 l40 -14 -16 -32 c-42 -87 -172 -105 -254 -36 -100 85 -64 256 61 291
47 14 45 14 96 1z m-706 -14 c0 -18 1 -18 36 0 16 8 39 15 52 15 20 0 22 -5
22 -50 0 -48 -1 -50 -28 -50 -56 0 -67 -18 -72 -127 l-5 -98 -47 -3 -48 -3 0
165 0 166 45 0 c33 0 45 -4 45 -15z m262 -452 c3 -63 5 -68 27 -71 32 -5 41
12 41 81 0 31 5 57 10 57 6 0 10 -30 10 -69 0 -61 -3 -72 -22 -85 -31 -22 -45
-20 -73 9 -20 20 -25 34 -25 78 0 29 3 57 7 60 16 17 22 2 25 -60z m258 51 c0
-9 -5 -14 -12 -12 -18 6 -21 28 -4 28 9 0 16 -7 16 -16z m458 4 c-6 -18 -28
-21 -28 -4 0 9 7 16 16 16 9 0 14 -5 12 -12z m52 -22 c0 -8 6 -17 13 -20 10
-5 10 -7 0 -12 -7 -3 -13 -21 -13 -39 0 -18 6 -35 13 -38 6 -2 9 -8 5 -12 -16
-17 -38 5 -38 38 0 18 -6 39 -12 46 -10 11 -10 14 0 18 6 3 12 11 12 19 0 8 5
14 10 14 6 0 10 -6 10 -14z m-573 -28 c15 -12 18 -98 3 -98 -5 0 -10 15 -10
33 0 41 -13 62 -34 54 -11 -4 -16 -19 -16 -47 0 -29 -4 -40 -15 -40 -11 0 -15
12 -15 48 0 27 2 51 5 54 10 9 69 7 82 -4z m63 -43 c0 -42 -3 -55 -15 -55 -11
0 -15 12 -15 48 0 27 3 52 7 55 16 17 23 3 23 -48z m52 18 l15 -38 17 38 c15
33 36 50 36 28 0 -23 -43 -101 -55 -101 -8 0 -15 2 -15 5 0 2 -9 27 -20 55
-15 39 -17 50 -6 50 7 0 20 -17 28 -37z m167 23 c11 -13 9 -82 -3 -93 -10 -10
-56 -5 -71 7 -18 15 -20 71 -3 88 16 16 63 15 77 -2z m91 -3 c0 -7 -7 -13 -15
-13 -8 0 -15 -8 -16 -17 -3 -50 -5 -57 -16 -60 -9 -3 -13 11 -13 50 0 53 0 54
30 54 18 0 30 -6 30 -14z m91 1 c12 -15 10 -16 -19 -10 -41 10 -43 -8 -2 -23
36 -12 41 -45 9 -61 -16 -9 -26 -8 -45 5 -32 21 -30 28 6 20 33 -7 42 9 10 18
-23 6 -35 30 -26 52 7 20 50 19 67 -1z m49 -39 c0 -30 -4 -55 -10 -55 -5 0
-10 25 -10 55 0 30 5 55 10 55 6 0 10 -25 10 -55z m137 18 l16 -38 15 38 c8
20 21 37 28 37 12 0 12 -5 0 -32 -29 -69 -60 -128 -68 -128 -11 0 -10 18 2 41
8 14 6 28 -10 58 -22 45 -25 61 -9 61 5 0 17 -17 26 -37z"/>
<path d="M287 1183 c-4 -3 -7 -26 -7 -50 l0 -43 45 0 c36 0 48 5 60 24 19 28
10 54 -22 67 -28 11 -67 12 -76 2z"/>
<path d="M280 950 l0 -50 49 0 c53 0 81 17 81 50 0 33 -28 50 -81 50 l-49 0 0
-50z"/>
<path d="M885 1030 c-11 -12 -19 -36 -19 -55 0 -45 28 -75 69 -75 41 0 69 30
69 75 0 45 -28 75 -69 75 -19 0 -39 -8 -50 -20z"/>
<path d="M1315 660 c-4 -6 7 -10 25 -10 18 0 29 4 25 10 -3 6 -15 10 -25 10
-10 0 -22 -4 -25 -10z"/>
<path d="M1313 618 c2 -7 14 -13 27 -13 13 0 25 6 28 13 2 8 -7 12 -28 12 -21
0 -30 -4 -27 -12z"/>
</g>
</svg>
