<?xml version="1.0" standalone="no"?>
<!DOCTYPE svg PUBLIC "-//W3C//DTD SVG 20010904//EN"
 "http://www.w3.org/TR/2001/REC-SVG-20010904/DTD/svg10.dtd">
<svg version="1.0" xmlns="http://www.w3.org/2000/svg"
 width="194.000000pt" height="231.000000pt" viewBox="0 0 194.000000 231.000000"
 preserveAspectRatio="xMidYMid meet">

<g transform="translate(0.000000,231.000000) scale(0.100000,-0.100000)"
fill="#000000" stroke="none">
<path d="M490 2190 c0 -5 9 -10 20 -10 17 0 20 -7 20 -50 0 -27 5 -50 10 -50
6 0 10 23 10 50 0 43 3 50 20 50 11 0 20 5 20 10 0 6 -22 10 -50 10 -27 0 -50
-4 -50 -10z"/>
<path d="M610 2146 c0 -30 5 -58 10 -61 6 -4 10 17 10 54 0 34 -4 61 -10 61
-5 0 -10 -24 -10 -54z"/>
<path d="M650 2190 c0 -5 7 -10 15 -10 11 0 15 -12 15 -51 0 -58 24 -66 27 -8
1 19 2 40 2 47 1 6 8 12 16 12 8 0 15 5 15 10 0 6 -20 10 -45 10 -25 0 -45 -4
-45 -10z"/>
<path d="M760 2152 c0 -55 12 -72 51 -72 34 0 39 8 46 70 4 42 3 50 -11 50
-13 0 -16 -11 -16 -50 0 -43 -3 -50 -19 -50 -15 0 -20 10 -26 50 -9 64 -25 65
-25 2z"/>
<path d="M870 2190 c0 -5 9 -10 20 -10 17 0 20 -7 20 -50 0 -27 5 -50 10 -50
6 0 10 21 10 46 0 37 4 47 20 51 37 10 20 23 -30 23 -27 0 -50 -4 -50 -10z"/>
<path d="M990 2140 l0 -60 45 0 c25 0 45 5 45 10 0 6 -16 10 -35 10 -24 0 -35
5 -35 15 0 10 10 15 30 15 17 0 30 5 30 10 0 6 -14 10 -31 10 -41 0 -33 24 9
28 45 5 30 22 -19 22 l-39 0 0 -60z"/>
<path d="M1148 2173 c-4 -41 3 -93 13 -93 5 0 9 11 9 25 0 20 5 25 25 25 14 0
25 5 25 10 0 6 -11 10 -25 10 -16 0 -25 6 -25 15 0 10 10 15 30 15 17 0 30 5
30 10 0 6 -18 10 -39 10 -36 0 -40 -3 -43 -27z"/>
<path d="M1268 2189 c-26 -15 -25 -85 1 -99 47 -25 91 0 91 50 0 50 -47 75
-92 49z m60 -21 c17 -17 15 -43 -4 -59 -31 -26 -70 25 -44 56 15 18 32 19 48
3z"/>
<path d="M1385 2191 c-11 -20 -2 -111 12 -111 7 0 13 11 13 25 0 14 4 25 10
25 5 0 17 -11 26 -25 9 -14 23 -25 30 -25 18 0 18 14 -1 30 -13 11 -13 15 0
33 13 18 13 23 -2 39 -17 19 -78 25 -88 9z m73 -28 c2 -8 -6 -13 -22 -13 -17
0 -26 5 -26 16 0 19 41 16 48 -3z"/>
<path d="M382 2168 c-20 -20 -14 -47 12 -54 14 -3 29 -4 33 -1 5 3 15 1 23 -4
23 -14 -8 -30 -45 -23 -27 6 -28 5 -16 -10 24 -29 91 -13 91 22 0 27 -20 42
-58 42 -21 0 -31 4 -27 11 4 5 18 9 30 7 13 -2 25 2 27 7 4 15 -55 18 -70 3z"/>
<path d="M1599 2108 c-19 -37 -23 -40 -34 -25 -13 18 -35 23 -35 8 0 -12 29
-41 40 -41 24 0 42 16 55 47 18 42 19 53 5 53 -5 0 -19 -19 -31 -42z"/>
<path d="M287 2123 c-4 -3 0 -17 9 -31 21 -32 13 -36 -30 -16 -53 26 -62 9
-24 -49 29 -45 48 -59 48 -37 0 6 -7 22 -16 35 -19 29 -18 30 31 9 53 -22 62
-7 28 49 -28 47 -34 52 -46 40z"/>
<path d="M1695 2057 c-22 -13 -41 -31 -43 -40 -5 -25 25 -67 48 -67 30 0 93
41 81 53 -6 6 -22 3 -45 -11 -32 -19 -37 -20 -51 -5 -19 18 -8 35 35 53 17 7
30 16 30 21 0 18 -18 17 -55 -4z"/>
<path d="M492 2014 c-54 -20 -113 -76 -140 -134 -20 -44 -21 -59 -24 -810 -3
-729 -2 -767 16 -808 22 -51 90 -114 143 -131 27 -8 166 -14 466 -18 500 -7
513 -6 588 67 89 85 84 26 87 875 2 554 0 761 -9 793 -14 52 -77 125 -133 154
-40 21 -54 21 -496 24 -392 3 -461 1 -498 -12z m963 -47 c53 -15 109 -75 125
-132 10 -37 11 -197 6 -788 -8 -798 -5 -759 -62 -826 -52 -62 -53 -62 -547
-61 -423 0 -452 1 -491 19 -53 25 -67 38 -94 84 l-22 38 0 752 c0 515 4 765
11 792 13 48 80 116 130 133 46 15 886 6 944 -11z"/>
<path d="M779 1833 c-12 -14 -14 -51 -3 -62 10 -10 34 25 34 50 0 33 -11 37
-31 12z"/>
<path d="M973 1825 c-17 -19 -16 -30 2 -45 8 -7 20 -30 25 -51 6 -22 15 -39
20 -39 6 0 10 -6 10 -14 0 -8 5 -16 11 -18 6 -2 14 -27 17 -56 4 -41 1 -57
-13 -72 -26 -28 -38 -25 -32 9 8 37 -15 60 -38 41 -21 -18 -19 -33 5 -27 15 4
20 0 20 -14 0 -34 31 -97 50 -102 26 -7 60 52 60 102 0 24 8 49 22 66 23 30
32 105 16 138 -10 19 -38 23 -55 6 -9 -9 -17 -3 -32 22 -12 19 -21 37 -21 42
0 4 -7 7 -15 7 -8 0 -15 5 -15 10 0 15 -23 12 -37 -5z"/>
<path d="M837 1779 l-19 -40 31 -47 c28 -43 29 -48 14 -64 -10 -11 -24 -16
-34 -13 -23 8 -59 -11 -59 -31 0 -25 -25 -26 -64 -3 -35 21 -38 21 -56 4 -23
-21 -26 -35 -7 -35 8 0 24 -11 37 -25 31 -33 90 -36 90 -5 0 27 40 44 56 24
10 -13 17 -12 48 3 39 19 44 30 21 39 -8 4 -15 13 -15 21 0 12 9 14 44 9 46
-7 86 7 86 31 0 16 -37 27 -77 24 -38 -3 -39 0 -16 35 15 24 15 28 -5 70 -28
56 -51 57 -75 3z"/>
<path d="M688 1733 c-16 -15 -15 -19 13 -54 34 -43 63 -56 84 -39 22 18 18 31
-21 73 -39 41 -52 45 -76 20z"/>
<path d="M1326 1623 c-3 -7 -13 -13 -23 -13 -10 0 -38 -18 -63 -40 -40 -35
-43 -39 -22 -40 18 0 22 -4 18 -18 -4 -12 3 -27 20 -43 23 -22 25 -30 22 -88
l-3 -64 30 -2 c40 -3 95 20 95 40 0 11 -6 14 -25 9 -35 -9 -33 18 2 41 25 17
25 19 8 31 -10 7 -15 20 -12 28 4 9 2 18 -4 22 -13 8 -1 66 17 79 11 8 7 16
-21 41 -24 22 -36 27 -39 17z m14 -243 c0 -11 -7 -20 -15 -20 -15 0 -21 21 -8
33 12 13 23 7 23 -13z"/>
<path d="M1429 1542 c-14 -16 -19 -68 -7 -88 3 -5 8 -25 12 -44 7 -37 32 -77
42 -68 3 3 6 35 8 70 2 50 -2 67 -16 83 -12 13 -17 28 -13 42 6 27 -4 29 -26
5z"/>
<path d="M863 1508 c-13 -6 -25 -19 -28 -29 -7 -20 -14 -22 -52 -20 -28 3 -38
-16 -23 -44 10 -19 9 -25 -13 -48 -18 -17 -24 -32 -20 -48 11 -50 11 -51 37
-34 30 20 50 66 41 95 -5 15 0 26 17 41 19 16 35 19 98 17 70 -3 75 -2 78 18
2 16 -7 28 -31 43 -37 23 -70 26 -104 9z"/>
<path d="M1130 1407 c-25 -11 -47 -21 -50 -22 -28 -10 -40 -20 -40 -34 0 -9
-5 -22 -11 -28 -18 -18 0 -35 31 -28 35 8 44 -6 45 -66 0 -47 0 -47 -34 -47
-41 0 -51 -14 -51 -73 0 -33 5 -49 15 -53 8 -3 15 -13 15 -23 0 -28 16 -47 31
-37 15 9 25 12 82 21 37 6 37 6 37 55 0 32 -5 50 -14 54 -13 5 -15 45 -7 136
0 9 15 21 33 27 l32 11 -22 22 -22 22 -29 -21 c-29 -22 -41 -21 -41 4 0 7 7
13 15 13 19 0 52 67 39 79 -5 5 -28 0 -54 -12z"/>
<path d="M971 1401 c-7 -5 -21 -7 -30 -4 -9 2 -33 -11 -54 -31 -33 -30 -37
-38 -27 -55 13 -25 45 -27 58 -4 6 9 23 16 43 17 31 1 33 3 35 38 3 40 -4 51
-25 39z"/>
<path d="M1390 1267 c-14 -13 -33 -26 -42 -30 -18 -6 -26 -47 -10 -47 5 0 4
-24 -1 -54 -7 -37 -6 -80 1 -138 7 -45 14 -184 17 -308 6 -232 8 -250 24 -250
21 0 30 61 21 141 -6 53 -6 88 0 100 6 10 10 37 9 61 -1 24 3 144 8 268 5 124
7 237 4 253 l-6 27 -25 -23z"/>
<path d="M600 1190 c-8 -5 -25 -10 -37 -10 -25 0 -80 -52 -94 -88 -26 -69 7
-158 88 -240 58 -58 62 -70 36 -109 -14 -21 -19 -52 -21 -137 -2 -107 -3 -111
-32 -141 -17 -17 -27 -34 -24 -38 9 -8 144 -10 144 -2 0 3 -10 19 -21 35 -24
32 -24 33 15 164 14 48 26 104 26 122 0 19 6 37 13 39 6 2 43 -1 81 -8 82 -14
77 -3 96 -202 7 -72 18 -133 24 -137 16 -11 104 -10 110 1 4 5 -9 19 -28 30
-58 36 -59 41 -57 173 1 67 5 127 9 133 12 19 9 60 -6 77 -14 17 -17 15 -49
-22 -21 -24 -39 -37 -48 -33 -19 7 -19 33 -1 58 15 22 27 85 15 85 -3 0 -12
-7 -19 -15 -6 -8 -22 -13 -33 -12 -19 2 -22 -3 -21 -35 1 -32 -2 -38 -20 -38
-25 0 -53 47 -58 95 -3 35 -34 47 -45 18 -7 -22 -38 -53 -52 -53 -5 0 -19 12
-30 26 -22 28 -29 74 -11 74 6 0 10 -4 10 -10 0 -33 93 12 105 50 9 29 21 25
31 -11 11 -37 62 -59 140 -59 32 0 56 -5 63 -14 7 -8 28 -14 47 -14 19 0 38
-3 41 -6 3 -3 -2 -24 -12 -46 -18 -40 -18 -43 0 -113 10 -40 27 -91 37 -115
11 -23 22 -61 26 -85 10 -55 34 -67 140 -67 79 0 83 -1 77 -20 -10 -32 11 -23
34 14 18 29 21 49 21 155 0 101 -2 121 -15 121 -10 0 -15 10 -15 30 0 20 -5
30 -15 30 -13 0 -15 -20 -15 -124 0 -143 -2 -147 -84 -154 -66 -5 -96 18 -96
72 0 19 -4 37 -9 41 -5 3 -17 31 -26 62 -13 46 -15 65 -6 94 6 20 11 64 11 99
0 61 -1 62 -52 116 -59 62 -156 127 -214 143 -48 13 -154 14 -174 1z"/>
<path d="M1210 962 c0 -23 -8 -32 -45 -50 -25 -12 -57 -22 -71 -22 -19 0 -25
-5 -22 -17 3 -14 13 -17 58 -15 107 5 146 32 115 78 -8 13 -15 30 -15 39 0 8
-4 15 -10 15 -5 0 -10 -13 -10 -28z"/>
<path d="M551 314 c-28 -35 -26 -75 4 -108 31 -33 74 -34 103 -3 12 13 19 27
15 30 -10 11 -43 8 -43 -3 0 -5 -11 -10 -25 -10 -22 0 -25 4 -25 39 0 44 18
58 52 40 28 -15 45 3 23 25 -26 26 -80 21 -104 -10z"/>
<path d="M710 259 c0 -71 2 -80 18 -77 10 2 18 14 20 31 5 40 37 31 55 -15 7
-21 47 -25 47 -5 0 7 -7 23 -16 35 -15 21 -15 25 0 41 21 23 20 33 -4 54 -13
11 -37 17 -70 17 l-50 0 0 -81z m87 35 c5 -16 -29 -27 -38 -12 -4 6 -5 16 -2
21 7 11 35 5 40 -9z"/>
<path d="M887 334 c-4 -4 -7 -38 -7 -75 0 -50 4 -68 15 -73 23 -8 36 28 33 92
-2 42 -7 58 -18 60 -9 1 -19 0 -23 -4z"/>
<path d="M1030 281 l0 -61 -41 6 c-39 7 -41 6 -30 -13 19 -36 71 -44 99 -16
12 12 17 34 17 77 0 56 -2 61 -22 64 -22 3 -23 0 -23 -57z"/>
<path d="M1152 328 c-6 -7 -22 -43 -36 -80 l-25 -68 23 0 c13 0 26 7 30 15 3
8 17 15 31 15 14 0 28 -7 31 -15 4 -8 17 -15 31 -15 20 0 24 4 18 18 -4 9 -16
42 -28 72 -27 70 -50 88 -75 58z m38 -75 c0 -7 -7 -13 -15 -13 -16 0 -19 9 -9
35 5 13 8 14 15 3 5 -7 9 -19 9 -25z"/>
<path d="M1287 334 c-4 -4 -7 -41 -7 -81 0 -71 1 -74 23 -71 15 2 23 11 25 30
3 21 9 27 30 30 36 4 36 32 0 36 -40 5 -36 30 5 28 22 -1 32 3 32 14 0 11 -14
16 -50 18 -28 2 -54 0 -58 -4z"/>
<path d="M156 2013 c-12 -12 -6 -21 34 -47 41 -27 60 -32 60 -16 0 13 -86 71
-94 63z"/>
<path d="M1788 1908 c-2 -19 -10 -24 -43 -26 -62 -5 -67 -22 -7 -22 45 0 52
-3 52 -20 0 -11 5 -20 10 -20 6 0 10 25 10 55 0 54 -15 77 -22 33z"/>
<path d="M123 1863 c-22 -8 -14 -23 12 -23 38 0 34 -36 -5 -45 -50 -11 -23
-25 47 -25 57 0 64 2 53 15 -7 8 -20 14 -29 13 -10 -2 -17 5 -19 20 -3 19 1
22 27 22 23 0 29 4 25 15 -6 15 -82 20 -111 8z"/>
<path d="M1748 1783 l-48 -4 0 -50 c0 -27 5 -49 10 -49 6 0 10 18 10 40 0 31
3 38 15 34 9 -4 15 -19 15 -35 0 -40 18 -37 22 4 2 17 8 32 13 32 6 0 11 -15
13 -32 2 -18 8 -33 14 -33 7 0 8 14 4 38 -3 20 -6 43 -6 50 0 6 -3 11 -7 10
-5 -1 -29 -3 -55 -5z"/>
<path d="M116 1728 c-20 -29 -20 -34 4 -58 39 -39 120 -18 120 30 0 28 -30 54
-44 39 -8 -8 -8 -13 2 -16 19 -7 14 -40 -8 -46 -47 -12 -79 20 -49 50 7 7 7
13 1 17 -6 4 -18 -4 -26 -16z"/>
<path d="M207 1623 c-22 -11 -32 -12 -42 -3 -8 6 -23 9 -35 5 -16 -5 -20 -15
-20 -46 l0 -39 65 0 c67 0 91 16 33 22 l-32 3 34 32 c39 37 38 48 -3 26z m-44
-43 c4 -15 0 -20 -14 -20 -12 0 -19 7 -19 18 0 37 23 38 33 2z"/>
<path d="M1695 1590 c-3 -5 3 -14 14 -19 22 -12 18 -51 -5 -51 -8 0 -14 -5
-14 -11 0 -7 11 -8 32 -4 61 14 103 32 103 45 0 15 -122 53 -130 40z m90 -40
c3 -5 -3 -10 -14 -10 -12 0 -21 5 -21 10 0 6 6 10 14 10 8 0 18 -4 21 -10z"/>
<path d="M163 1498 c-29 -11 -53 -26 -53 -33 0 -12 45 -33 107 -50 18 -5 22
-3 17 9 -3 9 -10 16 -15 16 -15 0 -10 48 6 54 18 7 20 26 3 25 -7 -1 -37 -10
-65 -21z m24 -44 c-3 -4 -14 -3 -24 0 -15 6 -15 8 -3 16 16 10 39 -4 27 -16z"/>
<path d="M1694 1475 c2 -5 15 -9 29 -7 40 4 42 -16 2 -32 -56 -24 -43 -36 40
-36 81 0 107 19 28 21 l-48 1 43 19 c41 19 55 38 30 40 -58 6 -127 2 -124 -6z"/>
<path d="M220 1365 c0 -28 -4 -35 -20 -35 -16 0 -20 7 -20 30 0 17 -4 30 -10
30 -5 0 -10 -14 -10 -31 0 -38 -24 -35 -28 4 -5 42 -22 32 -22 -13 l0 -40 65
0 65 0 0 45 c0 25 -4 45 -10 45 -5 0 -10 -16 -10 -35z"/>
<path d="M1697 1373 c-13 -13 -7 -43 13 -63 24 -24 91 -27 109 -6 7 8 14 28
16 45 l4 31 -68 0 c-37 0 -71 -3 -74 -7z m113 -33 c0 -38 -83 -41 -88 -2 -3
20 1 22 42 22 39 0 46 -3 46 -20z"/>
<path d="M183 1282 c-6 -4 -17 -20 -23 -36 -8 -22 -14 -26 -22 -18 -8 8 -8 15
2 27 15 19 9 28 -14 19 -33 -12 -16 -74 21 -74 18 0 27 8 34 30 6 17 17 30 25
30 16 0 19 -26 4 -35 -5 -3 -10 -13 -10 -21 0 -12 4 -12 20 -4 27 14 27 65 1
80 -23 12 -23 12 -38 2z"/>
<path d="M1700 1226 c0 -9 7 -16 15 -16 9 0 15 -9 15 -25 0 -16 -6 -25 -15
-25 -8 0 -15 -4 -15 -10 0 -13 5 -13 74 8 33 10 61 23 63 29 3 7 -19 19 -54
29 -32 9 -64 19 -70 21 -7 3 -13 -2 -13 -11z m85 -36 c3 -5 -3 -10 -14 -10
-12 0 -21 5 -21 10 0 6 6 10 14 10 8 0 18 -4 21 -10z"/>
<path d="M112 1138 l3 -43 63 -3 62 -3 0 46 c0 25 -4 45 -10 45 -5 0 -10 -16
-10 -36 0 -28 -4 -35 -17 -32 -10 2 -18 12 -18 25 0 32 -19 29 -23 -2 -5 -36
-26 -26 -30 13 -5 48 -24 38 -20 -10z"/>
<path d="M1723 1122 c-19 -3 -23 -10 -23 -38 0 -22 5 -34 14 -34 9 0 12 8 8
25 -4 24 -3 25 57 25 33 0 61 4 61 9 0 10 -79 18 -117 13z"/>
<path d="M120 1050 c-6 -11 -10 -33 -8 -48 3 -26 6 -27 66 -30 51 -2 62 0 62
13 0 9 -9 15 -25 15 -32 0 -32 17 -1 32 34 15 45 43 14 33 -29 -9 -47 -9 -75
0 -16 5 -24 1 -33 -15z m50 -30 c0 -11 -7 -20 -15 -20 -8 0 -15 9 -15 20 0 11
7 20 15 20 8 0 15 -9 15 -20z"/>
<path d="M1758 1032 l-58 -3 0 -34 c0 -19 5 -35 10 -35 9 0 15 21 11 43 0 4
26 7 59 7 33 0 60 4 60 9 0 13 -19 16 -82 13z"/>
<path d="M1700 930 c0 -7 27 -10 70 -9 39 1 70 6 70 10 0 5 -31 9 -70 9 -42 0
-70 -4 -70 -10z"/>
<path d="M222 886 c6 -29 -7 -36 -63 -36 -21 0 -39 -4 -39 -10 0 -10 112 -15
121 -5 9 8 -3 75 -13 75 -6 0 -8 -11 -6 -24z"/>
<path d="M1700 860 c0 -29 4 -40 15 -40 10 0 15 10 15 31 0 24 4 30 18 27 9
-2 18 -13 20 -26 4 -26 22 -20 22 9 0 10 7 19 15 19 9 0 15 -9 15 -25 0 -16 6
-25 15 -25 16 0 18 12 9 48 -6 20 -12 22 -75 22 l-69 0 0 -40z"/>
<path d="M180 794 c-74 -30 -75 -47 -5 -68 58 -19 64 -26 39 -47 -12 -10 -20
-10 -35 -1 -41 26 -59 10 -59 -52 l0 -33 59 1 c80 1 94 17 26 28 -18 3 -17 6
12 32 32 29 39 66 15 74 -17 5 -15 42 4 63 24 27 4 28 -56 3z m20 -34 c0 -5
-9 -10 -21 -10 -11 0 -17 5 -14 10 3 6 13 10 21 10 8 0 14 -4 14 -10z m-30
-120 c0 -11 -7 -20 -15 -20 -8 0 -15 9 -15 20 0 11 7 20 15 20 8 0 15 -9 15
-20z"/>
<path d="M1704 785 c-4 -8 1 -26 10 -40 13 -20 25 -25 61 -25 49 0 75 19 75
56 0 23 -3 24 -70 24 -54 0 -72 -4 -76 -15z m114 -22 c-2 -13 -15 -19 -46 -21
-37 -3 -42 -1 -42 17 0 18 6 21 46 21 38 0 45 -3 42 -17z"/>
<path d="M1717 654 c-15 -15 -6 -24 23 -24 23 0 30 -4 30 -20 0 -11 5 -20 10
-20 6 0 10 9 10 20 0 13 7 20 20 20 15 0 20 -7 20 -25 0 -14 5 -25 11 -25 6 0
9 16 7 38 l-3 37 -60 3 c-34 2 -64 0 -68 -4z"/>
<path d="M120 536 c0 -25 5 -48 10 -51 6 -3 10 3 10 14 0 19 6 21 55 21 30 0
55 5 55 10 0 6 -23 10 -51 10 -42 0 -52 3 -56 20 -9 36 -23 21 -23 -24z"/>
<path d="M1717 563 c-18 -17 -2 -23 51 -19 31 2 63 5 70 5 6 1 12 5 12 9 0 10
-124 15 -133 5z"/>
<path d="M1712 483 l3 -38 55 -1 c65 -1 80 8 80 47 l0 29 -71 0 -70 0 3 -37z
m58 2 c0 -16 -6 -25 -15 -25 -21 0 -31 30 -14 41 23 14 29 11 29 -16z m60 1
c0 -21 -21 -31 -31 -15 -14 22 -11 29 11 29 11 0 20 -6 20 -14z"/>
<path d="M120 457 c0 -9 12 -12 38 -9 35 3 36 2 17 -13 -58 -45 -60 -48 -42
-54 24 -9 117 -1 117 10 0 5 -17 9 -37 9 l-38 1 37 22 c57 33 49 47 -27 47
-47 0 -65 -4 -65 -13z"/>
<path d="M1715 410 c-3 -6 5 -10 19 -10 37 0 40 -16 6 -36 -46 -27 -35 -48 11
-23 15 8 24 7 35 -2 11 -9 21 -9 39 -1 20 9 25 19 25 47 l0 35 -64 0 c-36 0
-68 -4 -71 -10z m115 -28 c0 -10 -3 -22 -7 -25 -10 -11 -32 13 -26 29 8 20 33
17 33 -4z"/>
<path d="M120 310 l0 -40 65 0 65 0 0 40 c0 22 -4 40 -10 40 -5 0 -10 -13 -10
-30 0 -23 -4 -30 -20 -30 -16 0 -20 7 -20 30 0 17 -4 30 -10 30 -5 0 -10 -14
-10 -31 0 -20 -4 -29 -12 -26 -7 2 -14 9 -14 15 -1 7 -2 19 -3 27 -3 34 -21
12 -21 -25z"/>
<path d="M1710 270 c0 -29 4 -40 15 -40 10 0 15 10 15 30 0 37 27 41 36 5 3
-14 10 -25 15 -25 5 0 9 11 9 25 0 16 6 25 15 25 10 0 15 -10 15 -30 0 -16 4
-30 9 -30 17 0 23 19 16 50 -7 30 -7 30 -76 30 l-69 0 0 -40z"/>
<path d="M207 236 c-3 -8 1 -17 9 -20 19 -7 18 -32 -2 -40 -45 -17 -92 10 -64
38 14 14 12 26 -5 26 -20 0 -29 -43 -15 -69 27 -52 137 -16 123 39 -7 27 -39
45 -46 26z"/>
<path d="M1740 212 c-52 -17 -29 -85 25 -74 16 3 30 14 35 28 13 33 34 31 26
-1 -5 -18 -2 -25 9 -25 20 0 32 50 14 61 -27 17 -59 10 -71 -16 -6 -14 -17
-25 -25 -25 -16 0 -18 27 -1 32 6 2 9 9 7 15 -2 5 -11 8 -19 5z"/>
</g>
</svg>
