<?xml version="1.0" standalone="no"?>
<!DOCTYPE svg PUBLIC "-//W3C//DTD SVG 20010904//EN"
 "http://www.w3.org/TR/2001/REC-SVG-20010904/DTD/svg10.dtd">
<svg version="1.0" xmlns="http://www.w3.org/2000/svg"
 width="225.000000pt" height="225.000000pt" viewBox="0 0 225.000000 225.000000"
 preserveAspectRatio="xMidYMid meet">

<g transform="translate(0.000000,225.000000) scale(0.100000,-0.100000)"
fill="#000000" stroke="none">
<path d="M960 2210 c8 -5 20 -10 25 -10 6 0 3 5 -5 10 -8 5 -19 10 -25 10 -5
0 -3 -5 5 -10z"/>
<path d="M896 2195 c10 -8 23 -15 28 -15 6 0 1 7 -10 15 -10 8 -23 15 -28 15
-6 0 -1 -7 10 -15z"/>
<path d="M1310 2191 c0 -5 -8 -12 -17 -14 -10 -2 -8 -3 5 -2 12 1 22 -1 22 -4
0 -10 -20 -37 -20 -27 0 5 -7 3 -15 -4 -8 -6 -19 -9 -24 -5 -7 3 -8 0 -5 -9 3
-9 11 -14 17 -13 7 1 13 -11 15 -27 2 -17 0 -26 -7 -22 -5 4 -12 3 -15 -2 -2
-4 10 -13 27 -20 27 -10 29 -9 14 2 -15 12 -15 15 -2 26 16 13 21 35 6 26 -5
-3 -11 1 -14 9 -4 8 2 16 13 20 35 11 43 32 21 54 -12 12 -21 17 -21 12z m30
-35 c0 -3 -4 -8 -10 -11 -5 -3 -10 -1 -10 4 0 6 5 11 10 11 6 0 10 -2 10 -4z"/>
<path d="M955 2161 c-3 -5 0 -13 6 -17 8 -4 9 -3 5 4 -4 7 -1 12 7 12 10 0 12
-9 9 -32 -6 -42 3 -34 11 10 6 27 4 32 -13 32 -10 0 -21 -4 -25 -9z"/>
<path d="M1018 2145 c3 -16 -2 -34 -14 -48 l-19 -22 21 18 c24 20 38 77 19 77
-8 0 -10 -10 -7 -25z"/>
<path d="M1230 2099 c0 -19 4 -41 9 -48 6 -10 8 1 4 30 -7 55 -13 63 -13 18z"/>
<path d="M1502 2091 c8 -14 30 -36 49 -49 25 -18 27 -19 9 -3 -14 12 -36 34
-49 49 -22 24 -22 25 -9 3z"/>
<path d="M728 2063 c-19 -21 -41 -39 -49 -41 -8 -2 -17 -9 -21 -15 -4 -7 -11
-12 -15 -12 -13 0 -74 -27 -70 -31 8 -8 112 37 135 58 26 25 66 78 59 78 -3 0
-20 -17 -39 -37z"/>
<path d="M1034 2082 c-9 -5 -8 -11 2 -20 8 -7 14 -11 14 -8 0 2 3 11 6 20 6
17 -3 21 -22 8z"/>
<path d="M1540 2086 c0 -2 8 -10 18 -17 15 -13 16 -12 3 4 -13 16 -21 21 -21
13z"/>
<path d="M933 2051 c1 -17 -5 -29 -21 -37 -23 -11 -22 -12 13 -16 30 -3 34 -2
21 7 -12 9 -13 14 -4 23 14 14 52 16 43 2 -3 -5 0 -7 9 -4 12 5 12 8 -2 23 -9
9 -18 13 -20 9 -6 -12 -30 -9 -36 5 -2 6 -4 1 -3 -12z"/>
<path d="M1320 2061 c0 -10 29 -36 34 -30 1 2 -6 12 -16 22 -10 9 -18 13 -18
8z"/>
<path d="M1580 2056 c0 -2 7 -7 16 -10 8 -3 12 -2 9 4 -6 10 -25 14 -25 6z"/>
<path d="M900 2040 c-9 -6 -10 -10 -3 -10 6 0 15 5 18 10 8 12 4 12 -15 0z"/>
<path d="M860 2025 c-15 -18 -34 -20 -24 -2 5 8 2 8 -9 -2 -21 -17 -21 -16 2
-18 11 -1 27 7 37 18 9 10 15 19 12 19 -3 0 -11 -7 -18 -15z"/>
<path d="M1271 2028 c-1 -16 77 -88 94 -88 5 0 -10 14 -34 32 -23 17 -47 40
-51 52 -7 16 -9 17 -9 4z"/>
<path d="M1384 2012 c18 -21 29 -23 27 -5 -1 4 -4 8 -8 8 -5 0 -15 4 -23 9 -9
6 -7 1 4 -12z"/>
<path d="M525 2005 c-25 -12 -26 -14 -5 -9 28 7 60 23 45 23 -5 0 -23 -6 -40
-14z"/>
<path d="M1314 2008 c-3 -4 4 -8 15 -8 12 0 21 4 21 8 0 5 -7 9 -15 9 -9 0
-18 -4 -21 -9z"/>
<path d="M1610 2001 c14 -11 29 -21 33 -21 4 0 53 -24 107 -54 55 -30 98 -50
94 -45 -3 5 -31 23 -62 39 -79 41 -95 53 -57 45 39 -9 32 -3 -28 23 -26 12
-45 17 -42 12 9 -14 -1 -12 -38 6 l-32 15 25 -20z m80 -21 c8 -5 11 -10 5 -10
-5 0 -17 5 -25 10 -8 5 -10 10 -5 10 6 0 17 -5 25 -10z"/>
<path d="M778 1975 c5 -27 -7 -32 -27 -12 -10 10 -11 9 -6 -5 9 -23 17 -22 57
1 17 11 36 17 41 14 6 -3 7 -1 3 5 -4 8 -15 8 -31 2 -20 -7 -25 -6 -25 5 0 8
-4 15 -9 15 -4 0 -6 -11 -3 -25z"/>
<path d="M866 1976 c5 -20 0 -27 -23 -40 -15 -8 -23 -15 -18 -15 6 -1 17 3 25
9 9 6 20 5 30 -3 12 -9 13 -9 3 3 -8 9 -9 19 -2 32 7 12 6 18 -1 18 -6 0 -8 5
-5 10 3 6 1 10 -5 10 -6 0 -8 -10 -4 -24z"/>
<path d="M1367 1989 c7 -7 15 -10 18 -7 3 3 -2 9 -12 12 -14 6 -15 5 -6 -5z"/>
<path d="M1438 1988 c5 -5 16 -8 23 -6 8 3 3 7 -10 11 -17 4 -21 3 -13 -5z"/>
<path d="M420 1970 c-25 -11 -38 -19 -30 -19 8 0 35 9 60 19 25 10 38 19 30
18 -8 0 -35 -8 -60 -18z"/>
<path d="M916 1975 c-4 -11 1 -15 17 -14 12 0 16 3 9 6 -6 2 -10 9 -6 14 3 5
1 9 -4 9 -6 0 -12 -7 -16 -15z"/>
<path d="M689 1963 c-13 -17 -13 -17 6 -3 11 8 22 16 24 17 2 2 0 3 -6 3 -6 0
-17 -8 -24 -17z"/>
<path d="M1490 1975 c0 -2 6 -8 13 -14 10 -8 14 -7 14 2 0 8 -6 14 -14 14 -7
0 -13 -1 -13 -2z"/>
<path d="M1290 1961 c0 -6 4 -13 10 -16 6 -3 7 1 4 9 -7 18 -14 21 -14 7z"/>
<path d="M1385 1944 c8 -13 12 -24 8 -24 -14 0 21 -20 36 -20 8 0 2 9 -13 21
-31 25 -33 39 -5 39 27 0 61 -19 54 -30 -3 -5 -1 -11 4 -14 16 -11 22 11 6 24
-8 7 -13 15 -11 19 3 4 -18 7 -45 8 l-50 0 16 -23z"/>
<path d="M480 1950 c-9 -6 -10 -10 -3 -10 6 0 15 5 18 10 8 12 4 12 -15 0z"/>
<path d="M510 1940 c-19 -11 -30 -19 -25 -19 6 0 26 8 45 19 19 11 31 19 25
19 -5 0 -26 -8 -45 -19z"/>
<path d="M628 1942 c-12 -15 -11 -16 5 -3 15 12 17 11 17 -8 0 -11 4 -21 8
-21 13 0 9 39 -4 44 -7 3 -18 -3 -26 -12z"/>
<path d="M723 1945 c0 -8 4 -12 9 -9 5 3 6 10 3 15 -9 13 -12 11 -12 -6z"/>
<path d="M1576 1951 c-3 -5 5 -11 19 -13 30 -6 32 -2 6 12 -11 6 -22 6 -25 1z"/>
<path d="M1760 1956 c0 -2 7 -7 16 -10 8 -3 12 -2 9 4 -6 10 -25 14 -25 6z"/>
<path d="M340 1940 c-8 -5 -10 -10 -5 -10 6 0 17 5 25 10 8 5 11 10 5 10 -5 0
-17 -5 -25 -10z"/>
<path d="M793 1925 c-14 -31 -12 -31 15 0 13 15 17 25 9 25 -6 0 -17 -11 -24
-25z"/>
<path d="M1880 1935 c14 -8 30 -14 35 -14 6 0 -1 6 -15 14 -14 8 -29 14 -35
14 -5 0 1 -6 15 -14z"/>
<path d="M1325 1930 c3 -5 16 -15 28 -21 22 -12 22 -12 3 10 -19 21 -43 30
-31 11z"/>
<path d="M1530 1924 c25 -11 31 -17 21 -23 -9 -6 -10 -11 -2 -15 6 -4 11 -2
11 3 0 6 8 11 17 11 10 0 1 9 -20 20 -20 11 -43 20 -49 20 -7 -1 3 -8 22 -16z"/>
<path d="M1630 1917 c-10 -20 -10 -20 3 -5 10 13 17 14 25 6 6 -6 14 -10 16
-7 3 3 -4 10 -14 17 -17 10 -21 9 -30 -11z"/>
<path d="M290 1915 c-17 -10 -20 -14 -9 -15 9 0 22 7 29 15 15 18 12 18 -20 0z"/>
<path d="M561 1909 c-13 -10 -19 -19 -13 -19 5 0 16 7 23 17 13 15 15 13 20
-13 l7 -29 1 27 c1 35 -9 40 -38 17z"/>
<path d="M1830 1926 c0 -3 9 -10 20 -16 11 -6 20 -8 20 -6 0 3 -9 10 -20 16
-11 6 -20 8 -20 6z"/>
<path d="M436 1905 c-11 -8 -16 -15 -10 -15 5 0 18 7 28 15 11 8 16 15 10 15
-5 0 -18 -7 -28 -15z"/>
<path d="M709 1884 c-23 -24 -26 -32 -11 -23 12 8 22 17 22 20 0 4 8 5 19 2
10 -3 22 0 25 5 4 6 -3 8 -16 4 -21 -5 -22 -4 -9 11 24 30 6 18 -30 -19z"/>
<path d="M1700 1907 c-9 -7 -14 -19 -12 -28 3 -18 -35 -20 -46 -3 -4 6 -16 14
-27 17 -16 6 -15 3 5 -14 20 -17 21 -20 6 -15 -19 7 -19 6 -1 -14 18 -19 18
-20 -2 -20 -11 0 -28 9 -38 20 -10 11 -28 20 -39 19 -20 -1 -19 -2 23 -15 10
-3 11 -8 4 -15 -6 -6 -19 -6 -39 1 -35 14 -20 -2 18 -18 15 -6 27 -8 25 -3 -4
15 1 15 56 -3 15 -5 16 -8 5 -20 -7 -8 -16 -12 -20 -9 -5 2 -8 0 -8 -5 0 -6 7
-13 16 -16 8 -3 12 -2 9 4 -11 18 20 21 57 5 42 -17 58 -35 31 -35 -38 0 -41
-20 -9 -53 26 -27 35 -31 54 -23 18 7 32 5 58 -9 32 -17 50 -53 21 -42 -7 3
-23 -1 -35 -7 l-23 -12 23 -19 c13 -11 17 -13 11 -5 -19 21 -16 30 11 30 34 0
76 -39 78 -74 2 -16 13 -36 26 -46 26 -21 13 -37 -25 -32 -11 2 -24 -1 -27 -6
-3 -5 5 -7 17 -5 15 3 32 -5 51 -24 26 -25 28 -26 17 -4 -7 12 -11 31 -8 42 3
11 -3 23 -17 32 -23 16 -36 87 -16 87 6 0 8 5 4 11 -4 8 -9 7 -15 -2 -13 -21
-49 18 -49 53 0 26 3 29 23 23 18 -5 19 -4 7 5 -8 6 -23 15 -33 21 -16 9 -18
8 -12 -10 3 -12 2 -21 -3 -21 -11 0 -37 29 -45 50 -4 12 -6 12 -6 -1 -1 -21
-48 -34 -67 -18 -8 6 -11 16 -7 22 3 5 1 7 -5 3 -6 -3 -13 -2 -17 4 -10 17 26
24 59 12 l31 -12 -32 26 c-34 27 -44 64 -17 64 8 0 12 5 9 11 -4 6 -9 8 -12 5
-3 -3 -13 3 -22 12 -9 10 -13 13 -10 7 11 -20 8 -55 -6 -55 -18 0 -58 34 -61
53 -2 17 22 31 37 21 8 -5 12 2 25 45 4 11 9 10 27 -5 l22 -19 -19 23 c-11 12
-20 22 -20 22 -1 0 -8 -6 -16 -13z"/>
<path d="M808 1893 c7 -3 16 -2 19 1 4 3 -2 6 -13 5 -11 0 -14 -3 -6 -6z"/>
<path d="M1396 1891 c-3 -5 5 -11 19 -13 30 -6 32 -2 6 12 -11 6 -22 6 -25 1z"/>
<path d="M1484 1892 c3 -6 -1 -15 -10 -20 -9 -5 -12 -12 -7 -15 5 -3 14 3 21
13 9 14 9 21 0 26 -6 4 -8 3 -4 -4z"/>
<path d="M353 1862 c-29 -15 -53 -31 -53 -35 0 -7 84 37 105 55 15 13 3 9 -52
-20z"/>
<path d="M485 1870 c-25 -27 -27 -99 -2 -74 3 3 2 16 -3 29 -7 17 -4 27 9 39
22 20 31 20 31 2 0 -8 4 -18 10 -21 6 -4 7 2 1 16 -11 31 -24 33 -46 9z"/>
<path d="M625 1880 c-4 -6 -1 -9 5 -8 27 6 15 -30 -17 -52 -23 -16 -30 -26
-22 -28 8 -3 21 -10 29 -16 13 -9 13 -9 2 6 -17 21 -9 36 26 50 16 6 22 12 14
15 -10 4 -10 8 0 21 7 10 8 14 4 10 -5 -4 -15 -3 -22 3 -8 7 -14 7 -19 -1z"/>
<path d="M1756 1874 c-4 -9 -4 -19 -1 -22 3 -3 5 0 5 8 0 10 3 10 17 -1 15
-13 15 -12 4 9 -14 26 -17 27 -25 6z"/>
<path d="M1043 1873 c9 -2 25 -2 35 0 9 3 1 5 -18 5 -19 0 -27 -2 -17 -5z"/>
<path d="M2010 1876 c0 -3 9 -10 20 -16 11 -6 20 -8 20 -6 0 3 -9 10 -20 16
-11 6 -20 8 -20 6z"/>
<path d="M737 1859 c7 -7 15 -10 18 -7 3 3 -2 9 -12 12 -14 6 -15 5 -6 -5z"/>
<path d="M958 1863 c6 -2 18 -2 25 0 6 3 1 5 -13 5 -14 0 -19 -2 -12 -5z"/>
<path d="M1860 1867 c0 -2 15 -14 33 -27 20 -15 27 -17 18 -6 -13 16 -51 41
-51 33z"/>
<path d="M908 1853 c6 -2 18 -2 25 0 6 3 1 5 -13 5 -14 0 -19 -2 -12 -5z"/>
<path d="M208 1808 c-24 -24 -35 -36 -24 -27 37 28 81 69 74 69 -3 0 -26 -19
-50 -42z"/>
<path d="M420 1835 c-7 -8 -16 -13 -20 -10 -5 3 -11 2 -14 -3 -10 -17 24 -8
41 10 9 10 14 18 11 18 -3 0 -11 -7 -18 -15z"/>
<path d="M860 1840 c-8 -5 -10 -10 -5 -10 6 0 17 5 25 10 8 5 11 10 5 10 -5 0
-17 -5 -25 -10z"/>
<path d="M1188 1827 c-38 -41 -47 -55 -42 -61 2 -3 -1 -2 -7 3 -8 6 -8 15 0
30 13 24 14 23 -15 26 -22 2 -25 -9 -10 -34 7 -11 6 -12 -5 -6 -11 7 -12 6 -2
-7 7 -8 10 -18 6 -21 -3 -4 0 -13 6 -21 8 -10 9 -16 1 -21 -10 -6 -14 1 -11
19 1 5 -5 4 -14 -4 -11 -9 -12 -16 -5 -26 9 -10 6 -11 -12 -7 -23 5 -23 5 2
-16 14 -11 38 -25 53 -30 25 -9 29 -7 37 13 5 13 14 27 20 31 9 6 9 10 -1 16
-8 5 -17 3 -22 -4 -6 -8 -7 -7 -4 3 2 8 10 14 17 12 7 -2 17 3 21 10 15 22 10
28 -16 18 -21 -8 -25 -7 -25 9 0 15 5 18 23 14 22 -5 22 -5 2 10 -20 16 -20
16 4 17 13 0 21 3 18 7 -4 3 -2 12 5 20 21 25 -1 25 -24 0z"/>
<path d="M1330 1840 c8 -5 22 -9 30 -9 10 0 8 3 -5 9 -27 12 -43 12 -25 0z"/>
<path d="M1826 1841 c-4 -6 -3 -11 3 -11 5 0 13 -9 16 -21 4 -11 9 -18 12 -16
2 3 -2 18 -10 33 -9 17 -17 23 -21 15z"/>
<path d="M949 1833 c-1 -5 -1 -11 0 -15 0 -5 -3 -8 -9 -8 -5 0 -7 -6 -4 -14 4
-11 -2 -13 -28 -10 -29 4 -31 3 -16 -9 10 -8 15 -17 11 -20 -3 -4 -1 -7 6 -7
8 0 11 -8 8 -20 -3 -10 -1 -20 4 -22 5 -2 10 -17 12 -33 2 -28 5 -30 35 -27
17 2 33 8 33 13 1 5 2 13 3 18 0 5 4 12 8 16 4 4 4 13 2 20 -3 7 2 15 11 19 9
3 13 11 10 17 -5 7 -13 5 -25 -6 -12 -11 -20 -13 -25 -6 -3 6 -2 11 3 11 5 0
17 12 27 26 9 15 12 23 6 20 -6 -4 -11 -2 -11 3 0 6 4 11 8 11 5 0 9 6 9 14 0
25 -26 5 -39 -29 -6 -19 -15 -32 -20 -29 -4 3 -4 13 2 24 7 13 6 19 -6 24 -8
3 -12 10 -9 16 3 5 4 10 1 10 -3 0 -7 -3 -7 -7z m15 -99 c3 -8 2 -12 -4 -9 -6
3 -10 10 -10 16 0 14 7 11 14 -7z"/>
<path d="M78 1768 c-57 -55 -58 -57 -9 -14 81 72 86 76 79 76 -3 0 -35 -28
-70 -62z"/>
<path d="M506 1821 c-4 -5 3 -7 14 -4 23 6 26 13 6 13 -8 0 -17 -4 -20 -9z"/>
<path d="M565 1820 c3 -5 8 -10 11 -10 2 0 4 5 4 10 0 6 -5 10 -11 10 -5 0 -7
-4 -4 -10z"/>
<path d="M1280 1817 c0 -26 -1 -30 -12 -51 -8 -14 -7 -17 4 -13 7 2 12 10 10
16 -1 7 2 10 8 6 6 -3 8 -10 5 -15 -3 -5 -1 -11 4 -14 11 -7 2 66 -10 79 -6 5
-9 2 -9 -8z"/>
<path d="M1793 1810 c-3 -11 -10 -17 -17 -13 -6 3 -3 -3 7 -15 11 -11 17 -25
14 -29 -3 -5 2 -9 12 -10 10 -1 18 5 18 13 0 8 -2 12 -5 10 -12 -13 -29 21
-21 41 5 13 6 23 3 23 -3 0 -8 -9 -11 -20z"/>
<path d="M670 1810 c-9 -6 -10 -10 -3 -10 6 0 15 5 18 10 8 12 4 12 -15 0z"/>
<path d="M1930 1816 c0 -2 8 -10 18 -17 15 -13 16 -12 3 4 -13 16 -21 21 -21
13z"/>
<path d="M760 1800 c-8 -5 -10 -10 -5 -10 6 0 17 5 25 10 8 5 11 10 5 10 -5 0
-17 -5 -25 -10z"/>
<path d="M2032 1794 c10 -10 20 -16 22 -13 3 3 -5 11 -17 18 -21 13 -21 12 -5
-5z"/>
<path d="M2135 1790 c10 -11 20 -20 23 -20 3 0 -3 9 -13 20 -10 11 -20 20 -23
20 -3 0 3 -9 13 -20z"/>
<path d="M408 1778 c-5 -24 -3 -26 15 -17 10 6 32 9 48 7 18 -3 29 0 29 7 0 9
-12 10 -40 5 -32 -6 -40 -4 -43 9 -2 10 -5 5 -9 -11z"/>
<path d="M555 1783 c-5 -10 -8 -21 -7 -24 1 -4 -10 -6 -24 -6 -14 0 -38 -12
-53 -27 -15 -14 -32 -26 -38 -26 -6 0 -13 -6 -16 -14 -5 -12 0 -11 22 2 26 15
30 15 54 -1 30 -19 43 -11 21 14 -9 10 -23 15 -32 11 -15 -5 -15 -3 -4 11 8 9
28 17 45 19 18 2 32 8 32 13 0 6 4 16 9 23 4 7 6 15 3 18 -2 3 -8 -3 -12 -13z"/>
<path d="M1465 1787 c23 -16 55 -28 55 -22 0 6 -56 35 -67 35 -4 0 1 -6 12
-13z"/>
<path d="M1224 1779 c-3 -6 -3 -14 2 -18 5 -3 17 -21 27 -40 l17 -33 -22 5
c-13 4 -29 2 -36 -2 -10 -6 -1 -13 30 -26 74 -30 84 -29 95 8 5 17 15 31 21
30 7 -2 12 4 12 12 0 18 -12 19 -27 4 -9 -9 -12 -7 -10 9 0 11 4 19 8 16 4 -2
10 3 13 12 11 28 6 34 -14 17 -11 -10 -20 -23 -20 -30 0 -16 -12 -17 -29 0
-14 12 -13 6 6 -40 3 -7 0 -13 -6 -13 -6 0 -11 6 -11 14 0 8 -11 28 -25 44
-13 16 -22 32 -18 36 3 3 4 6 0 6 -3 0 -9 -5 -13 -11z"/>
<path d="M357 1752 c1 -8 3 -16 3 -18 0 -3 5 -2 10 1 6 3 10 11 10 16 0 6 -4
8 -9 5 -5 -4 -11 -3 -14 1 -2 5 -2 2 0 -5z"/>
<path d="M679 1753 c-13 -16 -12 -17 4 -4 9 7 17 15 17 17 0 8 -8 3 -21 -13z"/>
<path d="M2020 1735 c19 -19 36 -35 39 -35 3 0 -10 16 -29 35 -19 19 -36 35
-39 35 -3 0 10 -16 29 -35z"/>
<path d="M2105 1730 c21 -22 41 -40 44 -40 3 0 -13 18 -34 40 -21 22 -41 40
-44 40 -3 0 13 -18 34 -40z"/>
<path d="M1902 1727 c-17 -47 -14 -59 4 -18 8 19 13 39 12 43 -2 5 -9 -6 -16
-25z"/>
<path d="M1941 1740 c14 -31 19 -36 19 -24 0 6 -7 19 -16 30 -14 18 -14 18 -3
-6z"/>
<path d="M2180 1747 c0 -2 15 -16 33 -33 l32 -29 -29 33 c-28 30 -36 37 -36
29z"/>
<path d="M544 1718 l-19 -23 25 20 c14 11 27 21 29 22 2 2 0 3 -6 3 -5 0 -18
-10 -29 -22z"/>
<path d="M636 1725 c-11 -8 -15 -15 -9 -15 6 0 16 7 23 15 16 19 11 19 -14 0z"/>
<path d="M1400 1736 c0 -2 7 -9 15 -16 13 -11 14 -10 9 4 -5 14 -24 23 -24 12z"/>
<path d="M179 1703 l-24 -28 28 24 c15 14 27 26 27 28 0 8 -8 1 -31 -24z"/>
<path d="M270 1726 c0 -2 8 -10 18 -17 15 -13 16 -12 3 4 -13 16 -21 21 -21
13z"/>
<path d="M360 1710 c0 -6 7 -10 15 -10 8 0 15 2 15 4 0 2 -7 6 -15 10 -8 3
-15 1 -15 -4z"/>
<path d="M1982 1695 c0 -16 2 -22 5 -12 2 9 2 23 0 30 -3 6 -5 -1 -5 -18z"/>
<path d="M1405 1689 c8 -32 -15 -54 -46 -44 -14 5 -19 4 -15 -4 4 -6 2 -11 -5
-11 -8 0 -6 -6 4 -18 37 -41 10 -78 -29 -41 -13 12 -24 17 -24 10 0 -6 6 -14
14 -17 8 -3 11 -15 9 -29 -4 -16 3 -30 21 -46 14 -12 26 -27 26 -33 0 -6 -5
-5 -12 2 -14 14 -42 16 -34 3 4 -5 0 -12 -6 -14 -7 -3 -3 -6 9 -6 16 -1 27
-11 37 -36 13 -31 19 -35 48 -34 23 1 27 3 11 6 -18 3 -23 11 -23 34 0 61 34
26 56 -57 17 -66 16 -65 40 -68 10 -2 20 -9 22 -17 3 -12 2 -12 -6 0 -8 11
-11 10 -14 -5 -3 -10 3 -28 11 -38 15 -18 14 -19 -33 -13 -28 3 -43 1 -35 -3
24 -13 389 -18 389 -5 0 14 -29 53 -30 39 0 -5 5 -15 12 -22 6 -6 10 -13 7
-15 -2 -1 -58 0 -124 3 -66 4 -113 8 -105 9 8 2 18 3 22 2 4 0 5 5 2 13 -3 8
4 16 20 20 14 3 35 16 47 29 12 12 19 17 15 10 -4 -7 3 -15 16 -19 38 -13 46
-13 65 2 16 12 14 13 -24 14 -24 0 -43 3 -43 8 0 4 -5 14 -10 22 -9 13 -13 11
-29 -9 -19 -24 -81 -39 -81 -20 0 5 -9 4 -19 -3 -11 -7 -17 -16 -15 -20 3 -5
-2 -15 -10 -24 -9 -8 -16 -12 -16 -7 0 5 5 14 12 21 9 9 9 12 -1 12 -11 0 -11
3 -1 15 7 8 16 13 20 10 4 -3 13 2 20 10 7 8 18 15 24 15 6 0 5 -4 -3 -9 -11
-7 -10 -10 6 -15 26 -8 53 2 53 20 0 8 5 14 10 14 14 0 12 27 -2 33 -9 4 -9 6
-1 6 6 1 21 -15 33 -34 14 -23 29 -35 43 -35 21 1 21 2 -5 23 -16 13 -28 29
-28 37 0 10 9 5 25 -13 34 -36 37 -34 14 13 -22 45 -24 66 -7 76 7 4 8 3 4 -4
-5 -8 -1 -10 9 -6 12 5 13 10 6 17 -14 14 -14 27 -1 27 6 0 15 -10 20 -22 7
-18 9 -19 9 -6 1 10 -8 23 -19 30 -11 7 -20 18 -20 25 0 6 -4 14 -9 17 -5 4
-7 -2 -4 -12 4 -16 -32 -61 -41 -51 -10 10 -10 42 1 46 7 3 10 -4 7 -19 -2
-13 -1 -16 2 -8 4 8 12 18 18 22 8 5 7 8 -1 8 -7 0 -13 7 -13 16 0 12 -5 10
-19 -7 l-19 -24 -6 25 c-2 14 -8 43 -11 64 -4 26 -9 35 -15 26 -6 -9 -12 -6
-25 14 -10 14 -23 26 -30 26 -7 0 -25 7 -41 14 -15 8 -31 13 -36 10 -4 -3 -8
-1 -8 5 0 13 -29 41 -43 41 -6 0 -2 -6 8 -14 18 -13 17 -14 -10 -9 -17 3 -34
11 -38 17 -4 6 -5 -1 -2 -15z m25 -28 c-5 -11 -19 -26 -31 -34 -15 -11 -18
-21 -13 -41 9 -35 -1 -33 -20 6 -20 39 -20 38 4 38 10 0 27 11 37 25 21 29 38
33 23 6z m107 -18 c-4 -3 -3 -11 2 -17 5 -7 2 -23 -8 -43 -16 -29 -18 -30 -29
-12 -15 23 -15 32 -2 24 6 -3 11 -1 11 4 1 6 3 16 4 21 1 6 3 15 4 20 0 6 6
10 13 10 6 0 8 -3 5 -7z m-57 -23 c0 -5 -5 -12 -10 -15 -6 -4 -7 -12 -3 -18 3
-7 -3 -4 -15 7 -12 10 -20 22 -18 25 7 10 46 11 46 1z m108 -2 c7 -7 11 -28
11 -47 -1 -22 -3 -28 -6 -14 -2 12 -12 27 -21 35 -11 9 -14 10 -8 1 4 -8 2
-13 -4 -13 -7 0 -9 7 -6 16 3 9 6 20 6 25 0 13 14 11 28 -3z m-84 -78 c14 0
28 5 31 10 16 26 25 -8 16 -59 -1 -2 -12 4 -26 13 -13 9 -31 16 -39 16 -9 0
-20 9 -26 20 -6 11 -16 19 -23 17 -7 -1 -11 4 -9 11 1 7 -5 15 -13 18 -8 3
-12 10 -9 15 3 5 21 -7 40 -26 20 -21 43 -35 58 -35z m133 18 c-3 -8 -6 -5 -6
6 -1 11 2 17 5 13 3 -3 4 -12 1 -19z m-177 -53 c11 -3 17 -12 14 -19 -3 -7 2
-21 11 -30 11 -10 12 -16 4 -16 -6 0 -17 -7 -24 -16 -11 -16 -12 -16 -18 0 -4
9 -3 15 2 12 5 -3 12 1 15 10 5 12 1 14 -17 9 -22 -6 -22 -6 -2 11 l20 16 -20
-6 c-11 -3 -27 -1 -35 4 -12 7 -8 10 14 10 29 0 31 9 4 14 -7 1 -18 5 -25 9
-6 4 -14 3 -18 -3 -3 -5 -10 -10 -14 -10 -10 0 -7 37 4 47 4 5 5 1 1 -7 -4 -8
1 -5 10 8 l17 23 19 -30 c11 -17 28 -33 38 -36z m-110 -4 c0 -23 -23 4 -27 31
-3 22 -2 22 12 4 8 -11 15 -27 15 -35z m47 -3 c-2 -7 2 -21 11 -30 14 -17 13
-18 -10 -18 -27 0 -33 23 -13 47 13 16 18 16 12 1z m130 -29 c-16 -25 -31 -19
-35 14 -3 26 -2 27 22 16 21 -10 23 -14 13 -30z m126 20 c3 -10 -1 -20 -9 -23
-9 -4 -14 2 -14 15 0 11 -4 18 -9 14 -5 -3 -12 -2 -15 3 -2 4 6 8 19 8 14 0
26 -7 28 -17z m-53 -10 c0 -5 -7 -12 -15 -15 -12 -5 -13 -10 -4 -20 13 -16 33
-19 24 -4 -3 6 -1 10 5 10 6 0 8 5 4 13 -6 9 -4 9 7 1 8 -6 26 -14 42 -18 20
-5 27 -12 27 -31 0 -17 -6 -26 -17 -27 -10 -1 -25 -2 -33 -4 -8 -1 -21 -2 -28
-3 -7 -1 -10 -6 -7 -11 4 -6 10 -8 15 -5 5 3 12 0 16 -6 5 -9 -2 -10 -26 -6
-28 6 -31 5 -20 -8 21 -26 -3 -16 -40 15 -19 17 -41 28 -48 25 -20 -7 -27 25
-8 43 15 15 17 15 31 -3 8 -11 13 -25 10 -32 -2 -6 2 -14 10 -17 8 -3 15 -1
17 4 2 6 15 11 31 12 15 1 27 6 27 11 0 5 -10 5 -21 2 -14 -5 -19 -3 -15 3 4
6 -3 8 -16 6 -13 -2 -17 -2 -10 2 6 3 12 10 12 15 0 6 -4 7 -10 4 -6 -4 -7 1
-4 12 5 16 4 16 -10 -1 -11 -14 -16 -15 -16 -6 0 21 40 59 56 53 8 -3 14 -9
14 -14z m-120 -114 c7 -8 17 -12 23 -8 6 3 7 1 3 -5 -4 -7 -2 -12 4 -12 6 0 8
-4 5 -10 -3 -5 -1 -10 5 -10 6 0 8 -5 5 -10 -4 -6 -12 -4 -21 5 -19 19 -25 19
-18 0 4 -8 3 -15 0 -15 -6 0 -36 62 -36 75 0 10 18 5 30 -10z m147 -40 c0 -8
-4 -12 -9 -9 -5 3 -6 10 -3 15 9 13 12 11 12 -6z m-47 -65 c0 -5 -5 -10 -11
-10 -5 0 -7 5 -4 10 3 6 8 10 11 10 2 0 4 -4 4 -10z"/>
<path d="M1634 1434 c-17 -7 -5 -44 11 -37 8 2 13 13 12 24 -1 20 -4 21 -23
13z"/>
<path d="M79 1683 c-13 -16 -12 -17 4 -4 9 7 17 15 17 17 0 8 -8 3 -21 -13z"/>
<path d="M307 1693 c-4 -3 -7 -11 -7 -17 0 -6 5 -5 12 2 6 6 9 14 7 17 -3 3
-9 2 -12 -2z"/>
<path d="M545 1638 c-31 -35 -61 -72 -67 -83 -13 -24 -17 -28 66 68 80 92 81
102 1 15z"/>
<path d="M1645 1660 c21 -22 41 -40 44 -40 3 0 -13 18 -34 40 -21 22 -41 40
-44 40 -3 0 13 -18 34 -40z"/>
<path d="M1538 1673 c12 -2 20 -9 17 -14 -4 -5 1 -9 11 -9 13 0 14 3 4 15 -7
8 -22 14 -34 14 -20 -2 -20 -2 2 -6z"/>
<path d="M2150 1676 c0 -2 8 -10 18 -17 15 -13 16 -12 3 4 -13 16 -21 21 -21
13z"/>
<path d="M210 1661 c0 -6 4 -13 10 -16 6 -3 7 1 4 9 -7 18 -14 21 -14 7z"/>
<path d="M319 1653 c-13 -16 -12 -17 4 -4 9 7 17 15 17 17 0 8 -8 3 -21 -13z"/>
<path d="M655 1660 c-3 -6 1 -7 9 -4 18 7 21 14 7 14 -6 0 -13 -4 -16 -10z"/>
<path d="M694 1662 c4 -7 23 -12 42 -12 40 0 41 -2 13 -43 l-21 -32 26 30 c14
17 26 33 26 38 0 13 30 7 36 -7 7 -17 -14 -59 -25 -52 -4 3 -18 -5 -31 -19
-22 -23 -22 -24 -1 -18 11 3 21 9 21 14 0 5 4 9 9 9 11 0 -28 -153 -41 -161
-7 -4 -6 -9 1 -13 13 -8 -7 -56 -23 -56 -6 0 -4 -4 4 -10 11 -7 9 -11 -13 -19
-58 -22 -84 -4 -61 40 10 21 11 29 3 29 -7 0 1 11 17 25 16 14 21 23 12 19
-22 -8 -23 6 -2 32 14 17 15 17 10 1 -3 -10 -2 -16 3 -12 5 3 11 0 13 -7 3 -8
11 -7 28 5 14 9 20 17 14 17 -5 0 -16 -6 -22 -12 -10 -10 -14 -8 -18 10 -4 12
-11 22 -18 22 -7 0 -6 3 2 8 10 7 10 15 2 36 -6 17 -6 25 0 21 6 -3 11 -3 11
2 3 19 4 92 2 89 -2 -1 -13 -22 -26 -47 -17 -30 -30 -43 -42 -41 -9 2 -14 -1
-11 -6 3 -6 0 -13 -6 -16 -7 -3 -2 -3 11 0 20 5 23 4 16 -12 -4 -11 -12 -35
-17 -54 -6 -19 -13 -39 -18 -45 -4 -5 -13 -31 -21 -57 -9 -34 -19 -48 -31 -48
-9 0 -20 5 -23 10 -3 6 -18 10 -33 9 -15 0 -21 -3 -14 -6 20 -8 14 -26 -8 -20
-13 3 -25 -2 -35 -16 -20 -29 -19 -32 10 -35 14 -1 25 3 25 8 0 5 -7 7 -15 4
-8 -4 -15 -1 -15 5 0 6 15 11 33 11 24 0 28 -3 17 -10 -13 -8 -12 -10 3 -10 9
0 17 4 17 10 0 5 19 9 43 7 31 -1 41 2 39 12 -4 18 8 51 18 51 5 0 7 -10 5
-22 -3 -12 3 -27 13 -35 16 -14 16 -14 -1 -9 -11 3 -16 2 -12 -4 3 -6 18 -7
32 -4 21 6 24 4 18 -7 -5 -8 1 -6 13 5 17 15 25 16 36 7 11 -9 16 -9 22 0 5 8
3 9 -7 4 -11 -7 -11 -6 1 9 8 10 15 25 16 33 1 8 6 22 10 31 4 9 8 22 9 28 13
59 34 73 62 42 17 -20 17 -21 0 -15 -15 6 -17 3 -12 -13 4 -12 2 -20 -5 -20
-6 0 -8 -5 -4 -12 5 -8 2 -9 -9 -5 -27 10 -20 -9 8 -21 24 -11 25 -10 25 23 0
19 5 35 10 35 6 0 10 11 10 25 0 14 3 25 8 25 12 0 13 98 1 106 -7 4 -9 3 -6
-3 4 -6 -3 -19 -14 -29 -11 -10 -17 -24 -15 -31 6 -14 -23 -47 -33 -38 -3 4 3
13 13 21 17 12 18 14 3 14 -19 0 -21 19 -10 71 l8 34 5 -45 c5 -43 6 -44 18
-22 11 19 10 26 -3 44 -19 28 -19 62 -1 81 13 13 5 15 -61 16 -42 1 -80 4 -86
8 -6 3 -7 1 -3 -5z m-44 -296 c0 -3 -4 -8 -10 -11 -5 -3 -10 -1 -10 4 0 6 5
11 10 11 6 0 10 -2 10 -4z"/>
<path d="M1935 1650 c-4 -11 -11 -17 -17 -14 -7 5 -8 2 -3 -6 6 -10 11 -9 22
5 13 19 17 35 9 35 -3 0 -8 -9 -11 -20z"/>
<path d="M2015 1659 c-4 -6 -5 -12 -2 -15 2 -3 7 2 10 11 7 17 1 20 -8 4z"/>
<path d="M49 1643 c-13 -16 -12 -17 4 -4 9 7 17 15 17 17 0 8 -8 3 -21 -13z"/>
<path d="M400 1650 c0 -4 11 -10 25 -12 13 -3 22 -2 20 2 -7 11 -45 20 -45 10z"/>
<path d="M1760 1643 c0 -6 8 -17 18 -24 16 -13 16 -13 2 6 -8 11 -16 22 -17
24 -2 2 -3 0 -3 -6z"/>
<path d="M1970 1618 c-25 -41 -24 -47 0 -78 24 -30 26 -19 4 15 -15 23 -15 27
5 60 11 19 18 35 16 35 -3 0 -14 -15 -25 -32z"/>
<path d="M360 1620 c-9 -6 -10 -10 -3 -10 6 0 15 5 18 10 8 12 4 12 -15 0z"/>
<path d="M447 1612 c-10 -10 -14 -22 -10 -25 3 -4 -1 -7 -11 -7 -9 0 -14 -5
-11 -10 5 -8 11 -7 21 1 8 6 12 14 9 17 -3 3 2 14 12 24 9 10 14 18 11 18 -3
0 -12 -8 -21 -18z"/>
<path d="M1042 1597 c-19 -19 -30 -40 -27 -48 4 -10 -2 -15 -15 -16 -16 -1
-20 3 -15 16 3 11 0 18 -9 18 -11 0 -12 -7 -5 -31 5 -17 9 -32 9 -33 0 -2 5
-3 11 -3 5 0 7 6 3 13 -4 6 -3 9 1 4 5 -4 10 -29 12 -55 l4 -47 -20 33 c-12
17 -25 32 -29 32 -14 0 -42 -35 -42 -51 1 -11 3 -11 13 2 15 19 47 32 48 19 3
-19 5 -25 17 -47 7 -13 17 -23 23 -23 6 0 8 4 4 10 -3 5 1 26 10 46 19 45 19
57 0 24 -17 -29 -19 -22 -5 15 7 17 7 24 0 20 -6 -3 -10 3 -10 15 0 12 4 18
10 15 6 -3 7 1 4 10 -4 8 -1 22 6 30 7 8 9 15 4 15 -4 0 3 11 16 25 13 14 21
25 19 25 -3 0 -20 -15 -37 -33z"/>
<path d="M2020 1616 c0 -8 4 -17 9 -20 5 -4 7 3 4 14 -6 23 -13 26 -13 6z"/>
<path d="M870 1605 c0 -8 4 -15 10 -15 5 0 7 7 4 15 -4 8 -8 15 -10 15 -2 0
-4 -7 -4 -15z"/>
<path d="M250 1595 c0 -8 4 -15 10 -15 5 0 7 7 4 15 -4 8 -8 15 -10 15 -2 0
-4 -7 -4 -15z"/>
<path d="M188 1579 c13 -13 29 -32 36 -43 11 -16 13 -16 13 -2 0 9 -4 16 -8
16 -4 0 -11 9 -14 21 -4 11 -9 18 -12 15 -4 -3 -13 -1 -22 6 -9 6 -6 1 7 -13z"/>
<path d="M627 1583 c5 -12 3 -14 -8 -8 -8 5 -11 4 -6 0 15 -17 35 -13 30 6 -3
10 -9 19 -14 19 -5 0 -5 -7 -2 -17z"/>
<path d="M655 1590 c3 -5 11 -10 16 -10 6 0 7 5 4 10 -3 6 -11 10 -16 10 -6 0
-7 -4 -4 -10z"/>
<path d="M365 1580 c-3 -6 1 -7 9 -4 18 7 21 14 7 14 -6 0 -13 -4 -16 -10z"/>
<path d="M1254 1579 c15 -9 16 -13 5 -20 -11 -7 -10 -9 4 -9 9 0 17 4 17 8 0
12 -22 32 -34 32 -6 0 -3 -5 8 -11z"/>
<path d="M1341 1574 c0 -11 3 -14 6 -6 3 7 2 16 -1 19 -3 4 -6 -2 -5 -13z"/>
<path d="M1985 1579 c-3 -4 2 -6 10 -5 21 3 28 13 10 13 -9 0 -18 -4 -20 -8z"/>
<path d="M323 1553 c-17 -22 -22 -24 -22 -10 -1 19 -16 23 -27 5 -4 -7 -3 -8
4 -4 7 4 12 1 12 -8 0 -29 30 -11 54 32 12 21 1 13 -21 -15z"/>
<path d="M884 1565 c8 -6 16 -24 19 -40 3 -21 4 -18 4 12 -1 34 -4 41 -20 40
-15 -1 -16 -3 -3 -12z"/>
<path d="M1139 1556 c11 -12 21 -27 21 -33 0 -6 9 -22 21 -37 15 -20 17 -24 5
-20 -21 8 -46 -13 -46 -39 0 -20 1 -20 14 -2 17 24 46 13 46 -19 0 -13 7 -26
15 -30 8 -3 15 -15 15 -26 0 -26 16 -26 31 1 9 17 8 20 -2 14 -9 -6 -11 -3 -6
8 3 9 2 19 -3 22 -6 4 -10 1 -10 -5 0 -6 -5 -8 -11 -4 -7 4 0 17 18 36 16 17
22 28 13 26 -9 -2 -14 3 -12 12 3 12 1 13 -9 3 -7 -7 -17 -13 -21 -13 -13 0
-9 43 7 74 15 28 13 46 -6 46 -5 0 -9 -8 -9 -18 0 -19 -32 -24 -47 -7 -5 4 -1
4 7 0 13 -7 13 -6 2 7 -7 9 -22 18 -33 21 l-21 6 21 -23z m51 -46 c0 -5 -2
-10 -4 -10 -3 0 -8 5 -11 10 -3 6 -1 10 4 10 6 0 11 -4 11 -10z m-10 -54 c0
-2 -7 -7 -16 -10 -8 -3 -12 -2 -9 4 6 10 25 14 25 6z"/>
<path d="M390 1529 c-22 -18 -22 -19 -3 -10 12 6 25 16 28 21 9 15 3 12 -25
-11z"/>
<path d="M919 1518 c-3 -22 -1 -34 4 -29 5 5 7 21 5 37 -3 27 -4 26 -9 -8z"/>
<path d="M1852 1529 c9 -9 15 -19 12 -22 -3 -3 4 -3 17 0 l23 6 -24 9 c-13 5
-29 12 -35 16 -6 4 -3 0 7 -9z"/>
<path d="M161 1531 c-1 -7 -7 -11 -16 -7 -9 3 -15 0 -15 -9 0 -9 6 -12 16 -8
10 4 22 -1 29 -11 11 -15 13 -15 19 -1 3 9 2 13 -4 10 -6 -4 -14 4 -19 17 -6
13 -10 17 -10 9z"/>
<path d="M760 1531 c0 -9 -9 -12 -25 -9 -14 3 -25 1 -25 -3 0 -13 48 -11 55 2
4 6 4 13 1 16 -3 4 -6 1 -6 -6z"/>
<path d="M1105 1530 c4 -7 2 -15 -5 -20 -9 -5 -8 -8 2 -13 17 -6 22 29 6 39
-7 5 -8 2 -3 -6z"/>
<path d="M2160 1521 c0 -6 4 -13 10 -16 6 -3 7 1 4 9 -7 18 -14 21 -14 7z"/>
<path d="M2011 1513 c3 -20 -2 -34 -11 -28 -6 4 -8 10 -6 14 3 4 -1 8 -9 8 -8
0 -15 -4 -15 -9 0 -4 4 -8 10 -8 5 0 17 -12 25 -27 9 -16 14 -20 11 -10 -3 10
-1 27 4 37 7 13 7 21 0 25 -6 4 -10 3 -9 -2z"/>
<path d="M320 1500 c0 -5 7 -10 15 -10 8 0 15 5 15 10 0 6 -7 10 -15 10 -8 0
-15 -4 -15 -10z"/>
<path d="M625 1500 c3 -5 8 -10 11 -10 2 0 4 5 4 10 0 6 -5 10 -11 10 -5 0 -7
-4 -4 -10z"/>
<path d="M209 1479 c-8 -16 -8 -24 2 -33 9 -8 10 -8 5 1 -4 7 -2 22 4 33 6 11
8 20 6 20 -3 0 -10 -9 -17 -21z"/>
<path d="M290 1490 c0 -5 5 -10 11 -10 5 0 7 5 4 10 -3 6 -8 10 -11 10 -2 0
-4 -4 -4 -10z"/>
<path d="M435 1489 c-4 -6 -5 -12 -2 -15 2 -3 7 2 10 11 7 17 1 20 -8 4z"/>
<path d="M359 1473 c-13 -16 -12 -17 4 -4 9 7 17 15 17 17 0 8 -8 3 -21 -13z"/>
<path d="M728 1478 c5 -5 16 -8 23 -6 8 3 3 7 -10 11 -17 4 -21 3 -13 -5z"/>
<path d="M2100 1480 c-9 -6 -10 -10 -3 -10 6 0 15 5 18 10 8 12 4 12 -15 0z"/>
<path d="M2061 1457 c-13 -21 -12 -21 5 -5 10 10 16 20 13 22 -3 3 -11 -5 -18
-17z"/>
<path d="M273 1452 c-10 -14 -14 -14 -21 -4 -8 11 -10 11 -14 0 -3 -8 -1 -21
6 -30 9 -12 20 -14 51 -7 l40 8 -35 -1 c-53 0 -54 1 -29 21 13 11 22 22 19 25
-3 3 -11 -3 -17 -12z"/>
<path d="M541 1458 c-1 -10 -5 -18 -11 -18 -5 0 -10 -5 -10 -12 0 -8 6 -7 16
4 9 9 14 22 11 30 -4 9 -6 7 -6 -4z"/>
<path d="M600 1460 c0 -5 5 -10 11 -10 5 0 7 5 4 10 -3 6 -8 10 -11 10 -2 0
-4 -4 -4 -10z"/>
<path d="M1790 1461 c0 -6 4 -13 10 -16 6 -3 7 1 4 9 -7 18 -14 21 -14 7z"/>
<path d="M134 1443 c4 -7 1 -13 -6 -14 -7 0 -3 -4 10 -9 12 -5 27 -20 32 -32
5 -13 9 -16 9 -8 0 8 -11 29 -25 45 -15 17 -23 24 -20 18z"/>
<path d="M2014 1422 c-6 -4 -14 -16 -17 -27 -7 -19 -6 -19 10 1 10 12 25 24
33 27 13 5 13 5 0 6 -8 0 -20 -3 -26 -7z"/>
<path d="M2081 1397 c-25 -29 -25 -30 -34 -8 -6 11 -14 21 -19 21 -5 0 -1 -11
8 -25 9 -14 14 -36 12 -50 -6 -31 17 -54 35 -36 7 7 8 12 2 11 -40 -8 -38 38
3 82 14 15 24 29 21 32 -2 2 -15 -10 -28 -27z"/>
<path d="M571 1406 c-10 -12 -8 -13 8 -9 12 3 18 9 15 14 -7 12 -10 11 -23 -5z"/>
<path d="M396 1395 c-9 -26 -7 -32 5 -12 6 10 9 21 6 23 -2 3 -7 -2 -11 -11z"/>
<path d="M530 1400 c-8 -5 -12 -11 -9 -14 2 -3 11 -1 19 4 8 5 12 11 9 14 -2
3 -11 1 -19 -4z"/>
<path d="M1110 1391 c-8 -6 -18 -7 -23 -4 -6 3 -2 -8 9 -25 10 -17 18 -30 19
-29 0 1 7 11 15 21 10 13 10 17 3 12 -16 -9 -17 6 -1 22 14 14 -1 16 -22 3z"/>
<path d="M493 1373 c-3 -10 -8 -22 -11 -27 -3 -5 0 -6 5 -3 11 7 25 47 17 47
-3 0 -7 -8 -11 -17z"/>
<path d="M547 1361 c-11 -14 -10 -14 6 -2 12 9 17 10 17 2 0 -7 5 -9 10 -6 15
9 12 22 -5 22 -8 0 -21 -7 -28 -16z"/>
<path d="M690 1364 c-18 -10 -20 -14 -8 -14 9 0 20 5 23 11 4 6 14 8 22 5 8
-3 11 -1 8 4 -8 12 -14 12 -45 -6z"/>
<path d="M977 1373 c-9 -2 -14 -9 -10 -15 4 -8 0 -9 -11 -5 -15 6 -15 5 1 -18
22 -30 25 -30 41 -5 8 14 9 20 1 20 -6 0 -9 7 -5 15 3 8 4 14 3 14 -1 -1 -10
-3 -20 -6z"/>
<path d="M293 1361 c-40 -7 -83 -34 -83 -52 0 -4 11 3 25 16 18 18 35 25 65
25 22 0 40 5 40 10 0 6 -1 9 -2 9 -2 -1 -22 -5 -45 -8z"/>
<path d="M1911 1353 c0 -11 3 -13 6 -5 7 17 43 15 65 -5 22 -20 24 -11 2 11
-22 23 -74 21 -73 -1z"/>
<path d="M110 1356 c0 -3 9 -10 20 -16 11 -6 20 -8 20 -6 0 3 -9 10 -20 16
-11 6 -20 8 -20 6z"/>
<path d="M515 1350 c3 -5 8 -10 11 -10 2 0 4 5 4 10 0 6 -5 10 -11 10 -5 0 -7
-4 -4 -10z"/>
<path d="M1398 1353 c6 -2 10 -8 8 -12 -3 -4 1 -8 9 -8 11 0 12 4 4 14 -6 7
-17 13 -23 12 -7 0 -6 -2 2 -6z"/>
<path d="M1276 1324 c-3 -8 -10 -13 -15 -9 -6 3 -6 -7 0 -27 6 -22 6 -34 -1
-36 -7 -3 -7 -9 1 -18 10 -12 -1 -14 -65 -14 -69 0 -76 2 -76 20 0 11 -5 20
-11 20 -8 0 -8 4 -2 13 24 31 21 43 -11 45 -25 1 -28 0 -14 -8 23 -14 22 -71
-1 -63 -9 4 -4 -4 11 -15 23 -19 39 -22 120 -22 56 0 88 4 79 9 -9 6 -10 11
-2 15 6 4 11 13 11 19 0 7 -4 6 -10 -3 -6 -10 -8 2 -5 38 5 53 2 64 -9 36z"/>
<path d="M2020 1324 c0 -9 -5 -12 -12 -8 -7 4 -8 3 -4 -5 6 -9 11 -9 22 0 16
13 18 29 4 29 -5 0 -10 -7 -10 -16z"/>
<path d="M796 1305 c4 -11 2 -13 -9 -9 -24 9 -28 -11 -7 -34 25 -26 25 -31 1
-25 -10 3 -21 1 -24 -4 -3 -5 15 -10 41 -11 26 0 41 1 35 4 -8 3 -13 24 -13
50 0 32 -4 44 -15 44 -9 0 -12 -6 -9 -15z"/>
<path d="M12 1290 c0 -14 2 -19 5 -12 2 6 2 18 0 25 -3 6 -5 1 -5 -13z"/>
<path d="M246 1301 c-4 -5 3 -7 14 -4 23 6 26 13 6 13 -8 0 -17 -4 -20 -9z"/>
<path d="M1295 1300 c3 -5 11 -10 16 -10 6 0 7 5 4 10 -3 6 -11 10 -16 10 -6
0 -7 -4 -4 -10z"/>
<path d="M925 1289 c19 -12 19 -12 0 -20 -20 -7 -20 -8 0 -8 12 -1 16 -4 9 -9
-9 -5 -8 -11 2 -20 12 -10 14 -10 14 3 0 8 4 15 8 15 4 0 8 9 9 20 1 11 -4 20
-12 20 -7 0 -22 3 -32 6 -16 5 -16 4 2 -7z"/>
<path d="M1947 1293 c29 -4 64 -34 75 -63 2 -5 10 -10 18 -12 20 -4 37 -28 41
-58 3 -19 0 -25 -13 -24 -21 2 -24 -12 -5 -19 6 -2 23 8 37 22 14 14 21 23 16
19 -17 -13 -26 -9 -26 12 0 11 6 20 13 21 6 0 1 5 -12 10 -25 10 -26 9 24 69
l20 25 -27 -23 c-24 -22 -27 -22 -31 -5 -3 10 -5 2 -6 -17 -1 -27 -4 -31 -11
-20 -9 13 -10 13 -10 0 -1 -20 -40 26 -40 47 0 8 -4 12 -9 8 -5 -3 -12 -1 -16
5 -3 5 -21 9 -38 8 l-32 -1 32 -4z"/>
<path d="M1420 1270 c-26 -26 -19 -39 17 -31 26 5 27 6 5 9 -23 3 -23 4 -6 23
23 25 9 24 -16 -1z"/>
<path d="M56 1268 c3 -4 17 -8 32 -8 15 0 38 -12 54 -27 27 -26 27 -27 10 -47
-13 -15 -9 -14 15 4 32 25 41 40 23 40 -5 0 -10 -5 -10 -10 0 -6 -14 3 -30 19
-27 26 -107 50 -94 29z"/>
<path d="M223 1238 c1 -23 4 -25 17 -15 25 19 26 20 8 14 -11 -4 -18 0 -21 11
-3 9 -4 5 -4 -10z"/>
<path d="M424 1238 c-3 -5 39 -7 93 -7 111 1 106 7 -10 11 -43 2 -81 0 -83 -4z"/>
<path d="M361 1224 c0 -11 3 -14 6 -6 3 7 2 16 -1 19 -3 4 -6 -2 -5 -13z"/>
<path d="M715 1230 c-3 -6 1 -7 9 -4 18 7 21 14 7 14 -6 0 -13 -4 -16 -10z"/>
<path d="M2165 1230 c-3 -5 -1 -10 4 -10 6 0 11 5 11 10 0 6 -2 10 -4 10 -3 0
-8 -4 -11 -10z"/>
<path d="M2008 1199 c18 -19 16 -63 -4 -55 -8 3 -13 2 -10 -3 3 -5 14 -11 23
-13 16 -4 18 1 15 33 -3 23 -10 40 -20 44 -14 5 -15 4 -4 -6z"/>
<path d="M81 1197 c2 -1 13 -9 24 -17 19 -14 19 -14 6 3 -7 9 -18 17 -24 17
-6 0 -8 -1 -6 -3z"/>
<path d="M209 1168 c4 -28 6 -29 9 -9 2 13 0 27 -5 32 -6 6 -7 -3 -4 -23z"/>
<path d="M420 1178 c0 -4 14 -8 30 -8 17 0 30 2 30 4 0 2 -13 6 -30 8 -16 3
-30 1 -30 -4z"/>
<path d="M235 1170 c-3 -6 1 -7 9 -4 18 7 21 14 7 14 -6 0 -13 -4 -16 -10z"/>
<path d="M388 1173 c7 -3 16 -2 19 1 4 3 -2 6 -13 5 -11 0 -14 -3 -6 -6z"/>
<path d="M1870 1166 c0 -8 -10 -17 -22 -19 -23 -4 -23 -4 -1 -6 19 -1 21 -7
21 -47 0 -25 3 -48 6 -51 3 -4 6 26 6 65 0 40 -2 72 -5 72 -3 0 -5 -6 -5 -14z"/>
<path d="M2170 1169 c0 -5 5 -7 10 -4 6 3 10 8 10 11 0 2 -4 4 -10 4 -5 0 -10
-5 -10 -11z"/>
<path d="M2243 1145 c0 -22 2 -30 4 -17 2 12 2 30 0 40 -3 9 -5 -1 -4 -23z"/>
<path d="M958 1163 c23 -2 59 -2 80 0 20 2 1 4 -43 4 -44 0 -61 -2 -37 -4z"/>
<path d="M353 1125 c0 -22 2 -30 4 -17 2 12 2 30 0 40 -3 9 -5 -1 -4 -23z"/>
<path d="M1358 1153 c29 -2 74 -2 100 0 26 2 2 3 -53 3 -55 0 -76 -1 -47 -3z"/>
<path d="M1940 1150 c0 -5 5 -10 11 -10 5 0 7 5 4 10 -3 6 -8 10 -11 10 -2 0
-4 -4 -4 -10z"/>
<path d="M2156 1133 c-6 -14 -5 -15 5 -6 7 7 10 15 7 18 -3 3 -9 -2 -12 -12z"/>
<path d="M170 1124 c0 -8 -4 -13 -9 -9 -5 3 -12 1 -16 -5 -3 -5 -1 -10 5 -10
6 0 8 -6 5 -12 -4 -7 0 -5 8 5 18 22 22 21 45 -3 18 -20 20 -20 33 -3 13 16
12 17 -3 4 -19 -14 -22 -10 -19 29 0 10 -1 11 -5 3 -8 -18 -24 -16 -24 2 0 8
-4 15 -10 15 -5 0 -10 -7 -10 -16z"/>
<path d="M276 1118 c3 -5 10 -6 15 -3 13 9 11 12 -6 12 -8 0 -12 -4 -9 -9z"/>
<path d="M90 1113 c0 -5 12 -16 25 -26 16 -11 23 -13 20 -5 -6 15 -45 42 -45
31z"/>
<path d="M582 1113 c37 -2 100 -2 140 0 40 1 10 3 -67 3 -77 0 -110 -1 -73 -3z"/>
<path d="M48 1103 c6 -2 18 -2 25 0 6 3 1 5 -13 5 -14 0 -19 -2 -12 -5z"/>
<path d="M1018 1103 c7 -3 16 -2 19 1 4 3 -2 6 -13 5 -11 0 -14 -3 -6 -6z"/>
<path d="M1132 1048 l2 -63 3 57 4 57 42 4 42 4 -47 1 -48 2 2 -62z"/>
<path d="M1633 1093 c43 -2 110 -2 150 0 40 1 5 3 -78 3 -82 0 -115 -2 -72 -3z"/>
<path d="M1940 1085 c0 -9 6 -12 15 -9 8 4 12 10 9 15 -8 14 -24 10 -24 -6z"/>
<path d="M2083 1070 c-1 -19 2 -28 4 -20 3 8 13 24 22 35 15 18 15 19 -1 7
-13 -10 -17 -10 -20 0 -3 7 -5 -3 -5 -22z"/>
<path d="M2157 1071 c-4 -17 -3 -21 5 -13 5 5 8 16 6 23 -3 8 -7 3 -11 -10z"/>
<path d="M1263 1067 c-13 -6 -23 -16 -23 -22 0 -7 -12 -16 -27 -20 l-28 -7 32
-16 c33 -15 49 -47 31 -59 -6 -3 -8 -2 -5 3 3 6 2 16 -2 23 -6 9 -8 4 -8 -13
0 -30 12 -33 40 -8 14 12 18 12 11 2 -5 -8 -9 -37 -9 -65 -1 -27 -5 -80 -9
-117 l-9 -68 41 -42 c23 -23 39 -44 36 -47 -3 -3 -14 5 -24 19 -11 14 -20 20
-20 14 0 -6 7 -17 15 -24 15 -13 30 -72 27 -105 -2 -16 0 -15 10 5 8 14 19 25
26 25 7 0 17 6 21 14 7 11 10 9 16 -8 3 -12 15 -21 25 -21 14 0 18 -5 15 -17
-3 -10 2 -2 11 17 9 19 20 38 26 41 5 3 9 9 9 13 -3 23 0 30 8 17 12 -19 32
18 24 47 -3 13 -1 22 6 22 7 0 9 -5 5 -12 -5 -7 -3 -8 5 -3 7 4 11 16 8 26 -3
12 -1 17 6 12 7 -4 8 0 4 11 -4 9 -3 14 2 11 12 -7 22 24 16 53 -2 13 0 20 6
17 5 -4 9 2 9 12 0 11 5 24 12 31 9 9 9 12 0 12 -6 0 -23 -20 -38 -45 -31 -54
-40 -58 -19 -9 21 50 20 74 -1 48 -8 -10 -13 -13 -9 -6 3 6 4 12 0 12 -3 0
-10 -10 -15 -22 -7 -17 -8 -10 -5 27 5 50 4 50 -10 20 -16 -35 -20 -19 -5 21
6 15 9 29 6 31 -2 2 -11 -15 -20 -39 l-16 -43 4 43 c5 52 0 54 -13 5 -7 -26
-7 -41 1 -50 8 -11 7 -12 -6 -7 -12 5 -15 2 -10 -10 3 -8 15 -18 25 -21 22 -7
55 -52 45 -62 -3 -3 -6 -1 -6 6 0 7 -8 11 -17 9 -10 -1 -31 6 -46 16 -22 15
-27 24 -23 48 2 17 2 27 -1 25 -8 -9 -31 16 -27 28 3 6 -2 19 -11 30 -10 13
-14 15 -12 5 2 -8 2 -12 0 -7 -3 4 -8 5 -13 2 -5 -3 -18 9 -30 25 -16 22 -20
38 -15 57 5 22 4 25 -8 15 -15 -13 -47 -6 -47 10 0 5 -6 6 -12 2 -10 -6 -10
-5 -1 8 7 8 11 17 10 19 -2 2 5 12 16 23 11 10 18 13 15 6 -2 -6 11 -27 28
-45 27 -29 54 -92 33 -80 -4 3 -5 -4 -2 -15 5 -17 7 -18 20 -4 13 13 12 19
-11 58 -14 25 -26 51 -26 59 0 25 -42 46 -67 34z m82 -247 c4 0 3 5 0 10 -3 6
-3 10 0 10 14 0 102 -98 107 -118 7 -24 -2 -28 -20 -10 -7 7 -12 8 -12 3 0 -5
-7 1 -16 13 -8 12 -19 22 -25 22 -13 0 -11 -47 2 -72 9 -16 13 -18 20 -7 7 12
10 12 21 0 10 -10 10 -12 0 -7 -7 5 -16 -2 -21 -18 -7 -18 -15 -23 -30 -19
-12 3 -18 9 -15 14 3 5 1 9 -4 9 -14 0 -32 73 -32 134 0 38 -4 56 -12 56 -9 0
-8 3 2 10 11 7 17 4 22 -10 4 -11 10 -20 13 -20z m-38 -12 c-3 -8 -6 -5 -6 6
-1 11 2 17 5 13 3 -3 4 -12 1 -19z m-5 -65 c-3 -16 -7 -22 -10 -15 -4 13 4 42
11 42 2 0 2 -12 -1 -27z m176 -89 c0 -40 -27 -132 -28 -95 0 8 -7 19 -15 25
-33 24 -18 81 17 60 5 -3 8 0 7 7 -2 13 10 49 16 49 2 0 3 -21 3 -46z m32 -1
c-1 -31 -3 -35 -11 -20 -6 9 -7 26 -4 37 10 30 15 24 15 -17z m-132 -56 c8
-10 6 -13 -9 -13 -10 0 -19 6 -19 13 0 7 4 13 9 13 5 0 13 -6 19 -13z"/>
<path d="M1426 625 c-6 -16 2 -25 24 -25 21 0 20 36 -1 37 -10 1 -20 -4 -23
-12z"/>
<path d="M2005 1046 c23 -30 25 -37 12 -42 -9 -3 -21 -2 -28 2 -8 5 -9 3 -4
-5 4 -7 11 -25 16 -39 9 -26 9 -26 6 -2 -2 18 5 32 25 48 26 22 29 22 36 5 7
-17 8 -17 29 5 12 12 19 22 15 22 -5 0 -14 -6 -21 -12 -10 -11 -14 -9 -23 5
-9 17 -10 17 -23 1 -11 -16 -13 -15 -26 11 -8 16 -20 31 -28 33 -8 3 -2 -12
14 -32z"/>
<path d="M362 1045 c0 -16 2 -22 5 -12 2 9 2 23 0 30 -3 6 -5 -1 -5 -18z"/>
<path d="M618 1053 c7 -3 16 -2 19 1 4 3 -2 6 -13 5 -11 0 -14 -3 -6 -6z"/>
<path d="M259 1023 l-24 -28 27 23 c25 23 27 23 37 5 11 -17 12 -17 9 1 -5 30
-22 29 -49 -1z"/>
<path d="M657 1039 c7 -7 15 -10 18 -7 3 3 -2 9 -12 12 -14 6 -15 5 -6 -5z"/>
<path d="M2166 1033 c-6 -14 -5 -15 5 -6 7 7 10 15 7 18 -3 3 -9 -2 -12 -12z"/>
<path d="M535 1020 c-26 -28 -15 -31 12 -3 12 13 19 23 14 23 -4 0 -16 -9 -26
-20z"/>
<path d="M698 1023 c7 -3 16 -2 19 1 4 3 -2 6 -13 5 -11 0 -14 -3 -6 -6z"/>
<path d="M50 1016 c0 -2 8 -10 18 -17 15 -13 16 -12 3 4 -13 16 -21 21 -21 13z"/>
<path d="M147 1000 c9 -11 19 -17 21 -15 6 6 -18 35 -29 35 -5 0 -1 -9 8 -20z"/>
<path d="M184 1009 c-4 -7 -3 -9 3 -6 6 4 20 -7 31 -24 12 -20 21 -26 24 -17
7 18 -48 62 -58 47z"/>
<path d="M1275 1010 c3 -5 10 -10 16 -10 5 0 9 5 9 10 0 6 -7 10 -16 10 -8 0
-12 -4 -9 -10z"/>
<path d="M1931 988 c2 -30 2 -30 6 -6 2 15 12 29 21 31 12 3 10 5 -5 6 -20 1
-23 -4 -22 -31z"/>
<path d="M818 1003 c12 -2 30 -2 40 0 9 3 -1 5 -23 4 -22 0 -30 -2 -17 -4z"/>
<path d="M892 995 c4 -4 3 -16 -3 -26 -5 -11 -7 -19 -5 -19 3 0 10 9 16 19 7
15 7 22 -2 27 -7 4 -10 4 -6 -1z"/>
<path d="M11 974 c0 -11 3 -14 6 -6 3 7 2 16 -1 19 -3 4 -6 -2 -5 -13z"/>
<path d="M92 964 c10 -10 20 -16 22 -13 3 3 -5 11 -17 18 -21 13 -21 12 -5 -5z"/>
<path d="M372 965 c0 -11 3 -29 8 -40 11 -25 11 1 0 35 -6 20 -8 21 -8 5z"/>
<path d="M511 964 c0 -11 3 -14 6 -6 3 7 2 16 -1 19 -3 4 -6 -2 -5 -13z"/>
<path d="M2076 964 c1 -6 -3 -18 -9 -25 -7 -7 -2 -5 11 5 22 19 30 32 13 22
-5 -4 -11 -3 -14 1 -2 5 -3 3 -1 -3z"/>
<path d="M2132 971 c26 -6 27 -8 15 -31 -7 -14 -22 -26 -34 -28 -12 -2 -27
-11 -34 -20 -11 -14 -11 -15 1 -4 8 6 21 12 30 12 20 0 45 26 54 58 7 20 4 22
-26 21 -32 -1 -32 -2 -6 -8z"/>
<path d="M1486 955 c-9 -26 -7 -32 5 -12 6 10 9 21 6 23 -2 3 -7 -2 -11 -11z"/>
<path d="M65 950 c-3 -5 -1 -10 4 -10 6 0 11 5 11 10 0 6 -2 10 -4 10 -3 0 -8
-4 -11 -10z"/>
<path d="M137 953 c-4 -3 1 -16 11 -27 28 -32 35 -56 14 -56 -13 0 -12 -3 6
-16 12 -8 22 -23 23 -32 0 -11 2 -12 6 -4 3 7 -1 19 -7 28 -7 8 -10 18 -6 21
4 4 11 1 16 -7 8 -13 10 -13 10 -1 0 10 7 8 23 -7 13 -12 27 -22 31 -22 5 0
-2 8 -14 18 -22 17 -22 20 -7 43 11 16 13 29 7 39 -8 12 -10 9 -10 -12 0 -29
-28 -52 -47 -40 -6 4 -15 19 -18 35 -4 15 -11 25 -15 22 -5 -3 -11 -1 -14 4
-4 5 2 12 11 14 14 4 15 5 2 6 -9 0 -19 -2 -22 -6z"/>
<path d="M296 949 c2 -4 -2 -11 -9 -16 -8 -4 -19 -23 -25 -41 -6 -19 -7 -30
-2 -27 6 4 10 12 10 18 0 7 7 23 17 36 15 23 17 23 30 6 7 -11 13 -14 13 -8 0
7 -5 15 -10 18 -6 4 -8 10 -6 14 3 4 -1 8 -9 8 -8 0 -12 -4 -9 -8z"/>
<path d="M911 944 c0 -11 3 -14 6 -6 3 7 2 16 -1 19 -3 4 -6 -2 -5 -13z"/>
<path d="M1510 939 c-12 -8 -10 -9 8 -4 19 6 23 3 22 -12 -1 -10 -1 -27 0 -38
2 -17 3 -16 9 5 14 49 -5 73 -39 49z"/>
<path d="M1851 934 c0 -11 3 -14 6 -6 3 7 2 16 -1 19 -3 4 -6 -2 -5 -13z"/>
<path d="M1922 930 c0 -14 2 -19 5 -12 2 6 2 18 0 25 -3 6 -5 1 -5 -13z"/>
<path d="M1955 935 c14 -11 19 -27 19 -58 -1 -41 -1 -41 9 -12 5 17 14 36 20
43 6 8 6 12 -1 12 -6 0 -13 -6 -15 -12 -3 -8 -6 -6 -6 4 -1 10 -11 22 -23 28
-22 11 -22 11 -3 -5z"/>
<path d="M2026 932 c-3 -5 1 -9 9 -9 8 0 15 4 15 9 0 4 -4 8 -9 8 -6 0 -12 -4
-15 -8z"/>
<path d="M1072 905 c0 -16 2 -22 5 -12 2 9 2 23 0 30 -3 6 -5 -1 -5 -18z"/>
<path d="M20 915 c0 -5 5 -17 10 -25 5 -8 10 -10 10 -5 0 6 -5 17 -10 25 -5 8
-10 11 -10 5z"/>
<path d="M580 906 c0 -8 4 -17 9 -20 5 -4 7 3 4 14 -6 23 -13 26 -13 6z"/>
<path d="M920 898 c0 -9 7 -22 17 -29 15 -13 15 -12 3 11 -17 34 -20 36 -20
18z"/>
<path d="M1836 895 c-9 -26 -7 -32 5 -12 6 10 9 21 6 23 -2 3 -7 -2 -11 -11z"/>
<path d="M390 889 c0 -4 7 -22 15 -40 8 -19 14 -27 14 -19 0 14 -28 72 -29 59z"/>
<path d="M620 880 c8 -5 20 -10 25 -10 6 0 3 5 -5 10 -8 5 -19 10 -25 10 -5 0
-3 -5 5 -10z"/>
<path d="M101 863 c7 -10 14 -20 16 -22 1 -2 1 6 0 18 -1 11 -8 21 -15 21 -12
0 -12 -3 -1 -17z"/>
<path d="M512 860 c0 -14 2 -19 5 -12 2 6 2 18 0 25 -3 6 -5 1 -5 -13z"/>
<path d="M820 855 c0 -14 -9 -43 -20 -65 -22 -44 -27 -69 -5 -30 7 14 17 23
21 20 5 -3 10 19 11 48 2 28 1 52 -2 52 -3 0 -5 -11 -5 -25z"/>
<path d="M1588 873 c7 -3 16 -2 19 1 4 3 -2 6 -13 5 -11 0 -14 -3 -6 -6z"/>
<path d="M2129 863 c-13 -16 -12 -17 4 -4 16 13 21 21 13 21 -2 0 -10 -8 -17
-17z"/>
<path d="M327 857 c-3 -8 1 -14 9 -14 8 0 14 6 14 14 0 7 -4 13 -9 13 -5 0
-11 -6 -14 -13z"/>
<path d="M1890 860 c0 -5 3 -9 8 -9 21 4 32 -3 33 -18 0 -11 3 -13 6 -5 2 6 9
10 14 6 5 -3 9 -3 9 0 0 6 -55 36 -65 36 -3 0 -5 -4 -5 -10z"/>
<path d="M1617 851 c12 -14 7 -41 -11 -53 -7 -5 -5 -8 5 -8 23 0 31 47 10 62
-13 10 -14 10 -4 -1z"/>
<path d="M2145 849 c-11 -17 1 -21 15 -4 8 9 8 15 2 15 -6 0 -14 -5 -17 -11z"/>
<path d="M570 843 c0 -7 3 -13 8 -13 4 0 18 -18 31 -40 14 -21 29 -36 35 -33
5 4 29 6 53 4 24 -1 43 3 43 8 0 6 -6 8 -13 5 -8 -3 -20 2 -27 11 -7 8 -17 15
-22 15 -6 0 -5 -6 2 -14 9 -12 7 -15 -12 -14 -13 1 -31 8 -40 16 -15 12 -16
18 -6 31 10 13 10 14 -1 4 -11 -9 -18 -7 -32 10 -10 12 -18 16 -19 10z"/>
<path d="M960 832 c6 -13 14 -21 18 -18 3 4 -2 14 -12 24 -18 16 -18 16 -6 -6z"/>
<path d="M1123 790 c0 -36 2 -50 4 -32 2 17 2 47 0 65 -2 17 -4 3 -4 -33z"/>
<path d="M2004 839 c-4 -7 -3 -9 4 -5 6 3 13 -2 15 -11 4 -16 5 -16 6 -1 1 21
-15 32 -25 17z"/>
<path d="M2041 838 c-1 -20 14 -24 25 -6 4 6 3 8 -4 4 -5 -3 -13 0 -15 6 -3 8
-6 6 -6 -4z"/>
<path d="M2088 843 c7 -3 16 -2 19 1 4 3 -2 6 -13 5 -11 0 -14 -3 -6 -6z"/>
<path d="M898 835 c-4 -4 -4 -14 -1 -23 5 -11 3 -13 -8 -7 -12 8 -12 6 0 -8 7
-9 20 -17 28 -17 11 0 13 4 5 13 -5 6 -11 20 -13 30 -2 11 -7 16 -11 12z"/>
<path d="M147 811 c3 -11 12 -22 20 -26 23 -8 22 -3 -3 23 -21 22 -22 22 -17
3z"/>
<path d="M718 806 c-4 -17 -1 -23 9 -19 15 6 18 29 4 37 -5 3 -11 -5 -13 -18z"/>
<path d="M987 809 c-12 -14 -15 -25 -9 -32 6 -7 12 -21 15 -32 3 -13 5 -9 4
10 0 17 3 40 7 53 9 27 5 28 -17 1z"/>
<path d="M1955 810 c-26 -28 -15 -31 12 -3 12 13 19 23 14 23 -4 0 -16 -9 -26
-20z"/>
<path d="M292 795 c0 -16 2 -22 5 -12 2 9 2 23 0 30 -3 6 -5 -1 -5 -18z"/>
<path d="M1871 799 c0 -16 9 -36 25 -53 24 -24 25 -28 12 -44 -19 -22 -31 -42
-24 -42 2 0 14 14 27 31 l21 30 -25 27 c-14 15 -27 38 -30 52 l-4 25 -2 -26z"/>
<path d="M118 803 c7 -3 16 -2 19 1 4 3 -2 6 -13 5 -11 0 -14 -3 -6 -6z"/>
<path d="M557 780 c-3 -13 -3 -28 2 -33 13 -13 19 5 11 33 l-6 25 -7 -25z"/>
<path d="M1063 750 c0 -30 2 -43 4 -27 2 15 2 39 0 55 -2 15 -4 2 -4 -28z"/>
<path d="M2050 790 c-10 -6 -2 -7 25 -3 49 7 58 13 19 13 -16 0 -36 -5 -44
-10z"/>
<path d="M1460 781 c0 -6 4 -13 10 -16 6 -3 7 1 4 9 -7 18 -14 21 -14 7z"/>
<path d="M210 769 c0 -5 -6 -7 -12 -3 -9 5 -9 2 1 -9 7 -9 19 -17 25 -16 7 0
7 2 -1 5 -7 3 -9 12 -6 20 3 8 2 14 -1 14 -3 0 -6 -5 -6 -11z"/>
<path d="M519 752 c-3 -20 -2 -29 4 -23 5 5 7 19 5 32 -3 20 -5 19 -9 -9z"/>
<path d="M580 772 c0 -6 5 -14 11 -18 6 -3 8 -15 5 -27 -2 -11 -1 -16 3 -11
11 12 26 61 16 52 -5 -4 -14 -3 -22 3 -9 8 -13 8 -13 1z"/>
<path d="M1018 768 c10 -13 10 -17 0 -21 -9 -4 -9 -6 -1 -6 20 -2 24 16 5 30
-15 13 -16 12 -4 -3z"/>
<path d="M2006 751 c-15 -28 -15 -29 7 -23 12 3 16 7 9 10 -8 2 -9 9 -2 23 6
10 8 19 6 19 -3 0 -12 -13 -20 -29z"/>
<path d="M254 758 c3 -9 1 -18 -4 -20 -4 -2 3 -12 18 -22 15 -11 22 -13 16 -5
-5 8 -9 16 -9 19 0 3 -6 14 -14 25 -9 14 -11 15 -7 3z"/>
<path d="M291 743 c0 -12 3 -24 9 -28 5 -3 7 -13 4 -23 -5 -14 -4 -14 4 -2 6
8 7 19 3 25 -5 5 -11 19 -14 30 -4 19 -5 18 -6 -2z"/>
<path d="M717 723 c-7 -39 -1 -40 11 -4 6 17 7 31 3 31 -5 0 -11 -12 -14 -27z"/>
<path d="M1954 735 c-16 -13 -16 -14 -1 -9 14 5 17 0 17 -25 0 -17 3 -31 8
-31 4 0 6 18 4 40 -2 22 -5 40 -6 40 -1 0 -11 -7 -22 -15z"/>
<path d="M162 715 c15 -16 29 -27 31 -24 3 2 -10 15 -27 28 l-31 24 27 -28z"/>
<path d="M626 725 c-3 -9 -6 -26 -5 -38 1 -14 4 -9 9 13 9 37 7 52 -4 25z"/>
<path d="M848 733 c6 -2 18 -2 25 0 6 3 1 5 -13 5 -14 0 -19 -2 -12 -5z"/>
<path d="M221 714 c0 -11 3 -14 6 -6 3 7 2 16 -1 19 -3 4 -6 -2 -5 -13z"/>
<path d="M779 716 c12 -15 71 -39 71 -30 0 3 -13 10 -30 15 -16 6 -30 15 -30
20 0 5 -5 9 -11 9 -8 0 -8 -4 0 -14z"/>
<path d="M508 687 c-3 -18 1 -32 13 -43 11 -10 19 -12 19 -6 0 6 -6 12 -12 15
-7 2 -10 7 -7 11 4 4 14 0 23 -9 14 -15 16 -15 16 -1 0 9 -7 16 -15 16 -9 0
-19 10 -24 22 -8 21 -8 21 -13 -5z"/>
<path d="M930 700 c0 -5 5 -10 11 -10 5 0 7 5 4 10 -3 6 -8 10 -11 10 -2 0 -4
-4 -4 -10z"/>
<path d="M991 694 c0 -11 3 -14 6 -6 3 7 2 16 -1 19 -3 4 -6 -2 -5 -13z"/>
<path d="M1831 694 c0 -11 3 -14 6 -6 3 7 2 16 -1 19 -3 4 -6 -2 -5 -13z"/>
<path d="M595 668 c0 -17 6 -32 13 -34 7 -1 8 0 2 3 -16 7 -12 23 4 17 8 -3
17 -13 19 -22 4 -15 5 -15 6 1 0 10 -6 20 -14 23 -8 4 -15 15 -15 25 0 10 -4
19 -8 19 -4 0 -8 -14 -7 -32z"/>
<path d="M880 691 c0 -7 -4 -9 -10 -6 -5 3 -10 1 -10 -4 0 -6 4 -11 9 -11 13
0 25 20 17 27 -3 4 -6 1 -6 -6z"/>
<path d="M2224 678 l-19 -23 23 19 c21 18 27 26 19 26 -2 0 -12 -10 -23 -22z"/>
<path d="M70 677 c0 -2 15 -14 33 -27 20 -15 27 -17 18 -6 -13 16 -51 41 -51
33z"/>
<path d="M345 671 c-3 -5 0 -13 6 -17 7 -4 9 -3 5 4 -3 5 0 13 6 15 9 4 10 6
1 6 -6 1 -14 -3 -18 -8z"/>
<path d="M394 665 c-11 -8 -14 -15 -6 -15 6 0 12 -7 12 -15 0 -19 14 -19 30 0
11 13 10 14 -3 9 -12 -4 -14 -1 -10 15 6 25 3 26 -23 6z"/>
<path d="M822 660 c0 -14 2 -19 5 -12 2 6 2 18 0 25 -3 6 -5 1 -5 -13z"/>
<path d="M2055 671 c3 -5 -7 -19 -21 -30 -15 -12 -23 -21 -19 -21 4 0 20 11
36 24 22 19 25 25 13 30 -8 3 -13 2 -9 -3z"/>
<path d="M916 648 c10 -14 21 -24 23 -22 3 3 -6 15 -18 27 l-24 22 19 -27z"/>
<path d="M1840 666 c0 -2 8 -10 18 -17 15 -13 16 -12 3 4 -13 16 -21 21 -21
13z"/>
<path d="M1936 635 c-14 -11 -16 -15 -5 -15 12 0 12 -2 -1 -10 -11 -7 -5 -8
20 -4 45 9 51 14 15 14 -23 0 -26 2 -15 15 16 19 11 19 -14 0z"/>
<path d="M464 631 c3 -5 -3 -11 -14 -14 -11 -3 -20 -10 -20 -16 0 -7 10 -5 25
5 21 14 26 34 9 34 -3 0 -3 -4 0 -9z"/>
<path d="M980 631 c-15 -4 -20 -10 -13 -14 13 -8 43 1 43 14 0 5 -1 9 -2 8 -2
-1 -14 -4 -28 -8z"/>
<path d="M810 604 c0 -17 -6 -36 -12 -43 -11 -11 -10 -13 4 -8 9 3 19 1 22 -6
3 -7 2 8 -1 33 -7 54 -13 65 -13 24z"/>
<path d="M1782 603 l27 -27 -35 -45 -36 -46 40 44 41 45 -22 27 c-12 15 -26
28 -32 28 -5 1 3 -11 17 -26z"/>
<path d="M1895 611 c-3 -5 -2 -12 3 -15 5 -3 9 1 9 9 0 17 -3 19 -12 6z"/>
<path d="M721 594 c0 -11 3 -14 6 -6 3 7 2 16 -1 19 -3 4 -6 -2 -5 -13z"/>
<path d="M1639 573 l-34 -38 38 34 c20 19 37 36 37 38 0 8 -8 0 -41 -34z"/>
<path d="M1699 562 c-24 -25 -34 -38 -21 -28 22 19 22 19 22 0 0 -10 5 -26 11
-34 8 -12 10 -9 6 13 -3 22 -2 25 9 16 11 -9 14 -8 14 1 0 6 -9 14 -20 17 -16
4 -18 8 -9 19 9 11 15 10 31 -9 11 -12 17 -16 13 -9 -3 6 -1 12 5 12 6 0 8 5
4 12 -5 8 -2 9 10 5 22 -9 11 9 -13 22 -14 8 -26 1 -62 -37z m51 22 c0 -8 -5
-12 -10 -9 -6 4 -8 11 -5 16 9 14 15 11 15 -7z"/>
<path d="M197 589 c7 -7 15 -10 18 -7 3 3 -2 9 -12 12 -14 6 -15 5 -6 -5z"/>
<path d="M345 580 c10 -11 20 -20 23 -20 3 0 -3 9 -13 20 -10 11 -20 20 -23
20 -3 0 3 -9 13 -20z"/>
<path d="M462 588 c-15 -15 -16 -32 -2 -23 6 3 10 1 10 -4 0 -6 7 -11 16 -11
8 0 12 -4 9 -10 -3 -5 -1 -10 5 -10 6 0 13 7 16 15 5 12 10 13 20 4 11 -9 10
-14 -7 -28 l-21 -17 27 -14 c24 -13 28 -13 37 3 5 10 14 15 19 11 6 -4 4 -13
-7 -25 -9 -10 -12 -19 -7 -19 6 0 14 7 17 16 3 8 10 12 16 9 26 -16 4 7 -52
56 -35 29 -57 46 -49 36 12 -15 11 -17 -3 -17 -9 0 -16 6 -16 14 0 21 -15 27
-28 14z m95 -73 c0 -8 -4 -15 -9 -15 -10 0 -11 14 -1 23 9 10 10 9 10 -8z"/>
<path d="M776 585 c4 -8 8 -15 10 -15 2 0 4 7 4 15 0 8 -4 15 -10 15 -5 0 -7
-7 -4 -15z"/>
<path d="M676 581 c-8 -12 23 -43 35 -36 12 8 11 25 -2 25 -5 0 -7 -5 -3 -12
4 -7 3 -8 -5 -4 -6 4 -9 11 -6 16 3 5 1 11 -4 14 -5 4 -12 2 -15 -3z"/>
<path d="M383 555 c0 -8 3 -13 5 -10 3 3 12 -1 21 -7 10 -8 9 -4 -3 10 -23 26
-23 26 -23 7z"/>
<path d="M1790 503 c-25 -27 -39 -43 -31 -36 7 6 19 10 25 9 6 -2 7 -1 3 2 -5
2 6 19 24 38 18 19 31 34 28 34 -3 0 -25 -21 -49 -47z"/>
<path d="M1363 515 c-3 -9 -3 -18 -1 -21 3 -3 8 4 11 16 6 23 -1 27 -10 5z"/>
<path d="M407 509 c7 -7 15 -10 18 -7 3 3 -2 9 -12 12 -14 6 -15 5 -6 -5z"/>
<path d="M490 485 c19 -19 36 -35 39 -35 3 0 -10 16 -29 35 -19 19 -36 35 -39
35 -3 0 10 -16 29 -35z"/>
<path d="M1410 500 c-6 -11 -8 -20 -6 -20 3 0 10 9 16 20 6 11 8 20 6 20 -3 0
-10 -9 -16 -20z"/>
<path d="M1985 510 c-3 -6 1 -7 9 -4 18 7 21 14 7 14 -6 0 -13 -4 -16 -10z"/>
<path d="M1651 497 c-12 -15 -5 -47 11 -47 5 0 6 5 3 10 -3 6 4 10 17 10 16 0
19 3 10 9 -8 4 -13 12 -12 17 3 15 -16 15 -29 1z m19 -7 c0 -5 -5 -10 -11 -10
-5 0 -7 5 -4 10 3 6 8 10 11 10 2 0 4 -4 4 -10z"/>
<path d="M453 484 c17 -20 16 -21 -10 -34 -16 -8 -34 -14 -41 -15 -7 0 -17 -6
-21 -14 -6 -10 -10 -10 -16 -1 -4 6 1 17 11 25 11 7 28 21 39 30 l20 16 -20
-10 c-11 -6 -31 -19 -45 -30 l-25 -20 55 -53 c30 -29 46 -43 36 -30 -17 19
-17 22 -3 22 9 0 19 9 22 20 3 11 13 20 21 20 8 0 14 5 14 10 0 6 -8 10 -17
10 -12 0 -14 3 -6 11 8 8 31 -4 84 -43 80 -58 149 -101 155 -95 2 2 -15 14
-39 27 -55 31 -142 94 -192 139 -22 20 -32 27 -22 15z m-25 -93 c-15 -21 -15
-21 -32 -2 -17 19 -17 19 2 14 11 -2 23 0 27 7 4 6 9 9 12 6 3 -2 -1 -14 -9
-25z"/>
<path d="M1305 465 c-10 -13 -24 -21 -30 -17 -5 3 -4 -2 4 -11 11 -13 11 -17
1 -17 -8 0 -11 -2 -9 -4 2 -3 20 -1 39 4 33 7 33 8 7 9 -17 1 -26 5 -22 12 4
6 12 8 19 6 6 -3 12 6 12 19 1 13 1 24 0 24 0 -1 -10 -12 -21 -25z"/>
<path d="M1452 474 c10 -10 20 -16 22 -13 3 3 -5 11 -17 18 -21 13 -21 12 -5
-5z"/>
<path d="M1835 480 c-3 -6 1 -7 9 -4 18 7 21 14 7 14 -6 0 -13 -4 -16 -10z"/>
<path d="M1875 475 c-25 -12 -26 -14 -5 -9 14 4 29 10 35 15 12 12 5 11 -30
-6z"/>
<path d="M640 465 c14 -17 14 -17 -5 -8 -17 10 -20 8 -21 -12 -2 -21 0 -22 24
-9 14 7 29 11 34 8 22 -14 4 6 -19 22 -27 17 -28 17 -13 -1z"/>
<path d="M1340 463 c0 -10 4 -14 8 -8 4 6 11 13 16 18 5 4 2 7 -7 7 -10 0 -17
-8 -17 -17z"/>
<path d="M1386 455 c-11 -8 -15 -15 -9 -15 6 0 16 7 23 15 16 19 11 19 -14 0z"/>
<path d="M1617 456 c5 -16 3 -18 -15 -14 -19 5 -20 4 -9 -20 10 -21 13 -22 15
-8 2 10 10 15 18 12 18 -7 18 5 -1 30 -15 18 -15 18 -8 0z"/>
<path d="M549 437 c14 -17 111 -80 111 -72 0 2 -28 23 -62 46 -35 24 -57 35
-49 26z"/>
<path d="M790 430 c19 -11 42 -19 50 -19 8 0 -5 8 -29 19 -55 25 -67 25 -21 0z"/>
<path d="M1112 413 c-2 -38 -5 -43 -26 -43 -13 0 -27 6 -29 13 -3 7 -6 5 -6
-5 -1 -16 8 -18 67 -16 37 0 53 3 35 5 -29 4 -32 7 -36 46 l-4 42 -1 -42z"/>
<path d="M1415 430 c-3 -6 1 -7 9 -4 18 7 21 14 7 14 -6 0 -13 -4 -16 -10z"/>
<path d="M1520 430 c-9 -6 -10 -10 -3 -10 6 0 15 5 18 10 8 12 4 12 -15 0z"/>
<path d="M1684 408 l-29 -32 33 27 c19 15 37 27 41 27 4 0 22 -17 39 -39 24
-30 28 -41 19 -52 -10 -11 -9 -11 5 0 16 12 15 16 -18 57 -20 24 -42 44 -48
44 -7 0 -25 -14 -42 -32z"/>
<path d="M1377 419 c7 -7 15 -10 18 -7 3 3 -2 9 -12 12 -14 6 -15 5 -6 -5z"/>
<path d="M1547 423 c-12 -12 -7 -23 11 -24 14 0 14 -2 -3 -9 -18 -8 -18 -9 5
-10 19 -1 9 -9 -45 -36 -38 -19 -64 -34 -56 -34 7 0 44 16 82 36 60 32 67 38
54 51 -8 8 -15 19 -15 24 0 10 -23 12 -33 2z"/>
<path d="M670 405 c-10 -12 -10 -15 3 -15 8 0 18 -6 20 -12 4 -10 8 -9 16 2 8
12 6 16 -9 18 -11 2 -18 8 -15 13 10 15 -1 10 -15 -6z"/>
<path d="M1465 400 c-4 -6 1 -7 11 -3 14 5 15 1 9 -27 -7 -32 -6 -33 10 -17 9
10 21 15 26 12 5 -4 9 1 9 10 0 8 -12 20 -26 25 -31 12 -31 12 -39 0z"/>
<path d="M467 378 c-23 -25 -8 -49 18 -28 13 10 15 9 15 -9 0 -11 4 -21 10
-21 5 0 7 7 3 15 -3 9 -2 15 3 14 37 -6 47 23 15 41 -28 14 -43 11 -64 -12z
m63 -8 c0 -5 -4 -10 -10 -10 -5 0 -10 5 -10 10 0 6 5 10 10 10 6 0 10 -4 10
-10z"/>
<path d="M1696 381 c-3 -5 1 -24 9 -42 14 -33 16 -33 19 -6 1 6 9 11 19 9 25
-4 21 13 -8 32 -28 19 -32 19 -39 7z m29 -10 c3 -5 1 -12 -5 -16 -5 -3 -10 1
-10 9 0 18 6 21 15 7z"/>
<path d="M1390 370 c-8 -5 -10 -10 -5 -10 6 0 17 5 25 10 8 5 11 10 5 10 -5 0
-17 -5 -25 -10z"/>
<path d="M1615 357 c-16 -12 -59 -36 -95 -54 -36 -18 -61 -33 -55 -33 17 0
154 72 171 91 22 25 16 24 -21 -4z"/>
<path d="M810 340 c-8 -14 -5 -19 12 -23 25 -7 38 -1 38 17 0 22 -39 27 -50 6z
m37 -6 c-3 -3 -12 -4 -19 -1 -8 3 -5 6 6 6 11 1 17 -2 13 -5z"/>
<path d="M1325 350 c-19 -8 -19 -9 -1 -9 13 -1 17 -6 13 -20 -3 -12 1 -22 12
-26 14 -6 13 -8 -4 -15 -13 -6 -15 -9 -5 -9 8 0 22 4 30 9 10 6 11 10 3 10 -7
0 -13 11 -13 25 0 14 -6 25 -12 26 -7 0 -4 4 7 9 13 5 14 9 5 9 -8 0 -24 -4
-35 -9z"/>
<path d="M560 339 c-8 -5 -11 -9 -7 -9 5 0 1 -7 -8 -16 -15 -16 -14 -18 14
-32 17 -8 31 -18 31 -22 0 -4 9 -10 20 -13 20 -5 45 15 33 26 -3 4 1 7 10 7
23 0 21 16 -4 33 -23 17 -58 11 -76 -12 -7 -9 -13 -12 -13 -7 0 5 7 17 16 27
17 19 6 33 -16 18z m47 -61 c-3 -8 -6 -5 -6 6 -1 11 2 17 5 13 3 -3 4 -12 1
-19z"/>
<path d="M918 343 c7 -3 16 -2 19 1 4 3 -2 6 -13 5 -11 0 -14 -3 -6 -6z"/>
<path d="M1375 340 c-8 -13 13 -50 28 -50 8 0 8 3 -2 9 -8 5 -9 11 -3 15 6 3
13 2 17 -4 3 -5 11 -10 16 -10 6 0 3 7 -5 16 -9 8 -16 20 -16 25 0 12 -27 12
-35 -1z"/>
<path d="M1635 339 c-10 -14 15 -71 29 -66 6 3 10 10 9 16 -2 6 5 11 15 11 10
0 13 3 6 8 -6 4 -13 15 -17 25 -7 19 -32 23 -42 6z m29 -20 c-3 -5 -10 -7 -15
-3 -5 3 -7 10 -3 15 3 5 10 7 15 3 5 -3 7 -10 3 -15z"/>
<path d="M874 318 c-19 -21 -19 -21 5 -8 13 6 21 7 17 2 -3 -6 -2 -13 4 -17 5
-3 10 3 10 14 0 29 -15 33 -36 9z"/>
<path d="M1272 333 c20 -3 30 -12 35 -31 6 -24 7 -24 14 -7 9 25 -15 46 -50
44 -26 -2 -26 -2 1 -6z"/>
<path d="M464 322 c8 -13 66 -56 66 -49 0 3 -17 17 -37 33 -20 15 -33 23 -29
16z"/>
<path d="M1018 323 c7 -3 16 -2 19 1 4 3 -2 6 -13 5 -11 0 -14 -3 -6 -6z"/>
<path d="M1188 323 c6 -2 18 -2 25 0 6 3 1 5 -13 5 -14 0 -19 -2 -12 -5z"/>
<path d="M1744 308 l-19 -23 23 19 c12 11 22 21 22 23 0 8 -8 2 -26 -19z"/>
<path d="M925 302 c-8 -23 -6 -25 12 -11 18 16 23 16 33 -1 5 -8 9 -7 13 3 4
11 -3 16 -23 19 -19 3 -31 -1 -35 -10z"/>
<path d="M1087 309 c12 -4 34 -4 50 1 24 7 20 8 -22 8 -37 -1 -44 -3 -28 -9z"/>
<path d="M1276 308 c5 -8 0 -9 -15 -5 -20 5 -22 2 -18 -18 2 -14 0 -26 -5 -29
-5 -2 -3 -3 4 -2 7 2 13 9 13 17 0 8 8 13 18 13 10 -1 17 5 17 17 0 11 -5 19
-11 19 -5 0 -7 -5 -3 -12z"/>
<path d="M1017 296 c-10 -25 -9 -26 8 -20 8 4 15 1 15 -4 0 -6 -10 -12 -22
-14 -13 -2 16 -4 63 -3 83 0 85 1 81 23 -5 28 -22 29 -22 1 0 -11 -4 -18 -10
-14 -5 3 -7 11 -4 18 2 7 -5 13 -20 13 -17 1 -26 -5 -30 -20 -5 -17 -8 -18
-15 -6 -5 8 -7 18 -4 24 4 5 -1 7 -10 3 -9 -3 -17 -1 -20 6 -2 6 -6 3 -10 -7z"/>
<path d="M1185 302 c-17 -12 -16 -31 4 -41 15 -8 20 -6 29 13 14 32 -5 49 -33
28z"/>
<path d="M1582 301 c-11 -7 -11 -14 4 -42 10 -19 17 -38 16 -42 -1 -4 7 -3 18
3 25 13 26 21 3 14 -17 -5 -17 -5 0 9 39 32 1 85 -41 58z m33 -39 c-8 -9 -25
20 -18 31 3 5 10 2 15 -7 6 -10 7 -20 3 -24z"/>
<path d="M726 291 c14 -13 104 -45 109 -39 3 3 -22 15 -56 26 -34 12 -58 17
-53 13z"/>
<path d="M661 267 c-11 -13 -21 -29 -21 -36 0 -8 -6 -11 -15 -7 -23 8 -18 -2
8 -15 12 -6 19 -8 15 -4 -4 4 0 14 10 21 23 18 33 17 25 -3 -5 -13 -2 -15 11
-10 10 4 19 1 22 -7 8 -21 30 -26 31 -7 1 9 4 27 8 41 6 24 5 24 -10 -3 -18
-32 -41 -28 -24 4 6 12 7 24 3 27 -4 4 -9 1 -11 -5 -3 -7 -9 -13 -15 -13 -6 0
-8 7 -5 15 10 25 -9 26 -32 2z"/>
<path d="M1545 270 c7 -23 2 -24 -25 -10 -14 7 -28 6 -53 -6 -33 -16 -34 -18
-24 -50 11 -37 27 -43 48 -18 12 15 11 16 -11 9 -22 -7 -23 -6 -11 9 12 14 11
16 -4 16 -14 0 -13 3 6 19 24 19 24 19 37 -5 7 -13 10 -29 7 -34 -6 -10 42 7
58 21 5 4 1 21 -7 38 -19 35 -31 41 -21 11z m0 -39 c3 -5 1 -12 -4 -15 -5 -3
-11 1 -15 9 -6 16 9 21 19 6z"/>
<path d="M1689 269 l-24 -20 28 17 c15 9 27 18 27 20 0 8 -8 4 -31 -17z"/>
<path d="M1395 255 c-22 -8 -31 -14 -20 -14 11 0 34 6 50 14 38 17 22 17 -30
0z"/>
<path d="M577 239 c7 -7 15 -10 18 -7 3 3 -2 9 -12 12 -14 6 -15 5 -6 -5z"/>
<path d="M858 243 c7 -3 16 -2 19 1 4 3 -2 6 -13 5 -11 0 -14 -3 -6 -6z"/>
<path d="M898 233 c6 -2 18 -2 25 0 6 3 1 5 -13 5 -14 0 -19 -2 -12 -5z"/>
<path d="M1295 230 c-27 -7 -28 -8 -5 -8 14 0 34 3 45 8 25 11 2 11 -40 0z"/>
<path d="M948 223 c6 -2 18 -2 25 0 6 3 1 5 -13 5 -14 0 -19 -2 -12 -5z"/>
<path d="M1390 220 c0 -5 -7 -7 -15 -4 -16 7 -19 -6 -9 -43 4 -13 11 -23 16
-23 6 0 8 7 4 15 -6 18 5 20 22 3 6 -6 15 -8 19 -4 5 4 0 13 -10 21 -10 7 -15
19 -11 29 3 9 1 16 -5 16 -6 0 -11 -4 -11 -10z"/>
<path d="M850 208 c0 -6 -8 -20 -17 -31 -10 -11 -13 -17 -7 -14 7 4 15 0 18
-9 4 -11 14 -15 31 -12 14 3 25 2 25 -3 0 -4 6 -9 13 -12 6 -2 3 -3 -7 -1 -10
2 -15 -1 -10 -5 16 -16 113 -31 193 -31 62 0 78 3 78 15 0 11 -4 12 -13 4 -16
-13 -162 -10 -171 4 -4 6 2 8 14 5 25 -7 50 27 34 46 -6 7 -8 15 -5 18 3 3 -8
9 -23 13 -23 5 -32 2 -51 -22 l-23 -28 10 27 c14 36 -3 44 -24 12 -9 -14 -19
-23 -22 -20 -3 3 0 12 7 21 7 9 10 19 6 23 -4 4 -14 -2 -22 -12 -14 -19 -14
-19 -14 2 0 12 -4 22 -10 22 -5 0 -10 -5 -10 -12z m134 -43 c-13 -10 -15 -14
-5 -15 8 0 12 -3 8 -6 -3 -3 -10 -3 -16 0 -14 9 -2 36 17 36 13 0 12 -3 -4
-15z"/>
<path d="M1003 213 c9 -2 25 -2 35 0 9 3 1 5 -18 5 -19 0 -27 -2 -17 -5z"/>
<path d="M1208 213 c12 -2 30 -2 40 0 9 3 -1 5 -23 4 -22 0 -30 -2 -17 -4z"/>
<path d="M1554 194 c-18 -14 -18 -14 6 -3 31 14 36 19 24 19 -6 0 -19 -7 -30
-16z"/>
<path d="M680 185 c14 -8 30 -14 35 -14 6 0 -1 6 -15 14 -14 8 -29 14 -35 14
-5 0 1 -6 15 -14z"/>
<path d="M1269 193 c-1 -5 0 -17 1 -28 2 -19 1 -19 -22 3 -32 30 -36 28 -35
-13 1 -34 27 -53 27 -19 0 8 5 12 10 9 6 -4 8 -10 6 -14 -3 -4 1 -8 9 -8 11 0
15 12 15 39 0 21 -2 38 -5 38 -3 0 -6 -3 -6 -7z"/>
<path d="M1035 180 c-3 -5 -2 -10 3 -10 15 0 24 -33 11 -40 -6 -5 -3 -9 10
-13 12 -3 21 -1 21 5 0 5 5 6 12 2 7 -4 8 -3 4 5 -4 6 0 23 8 36 14 21 14 25
2 25 -8 0 -17 -6 -20 -12 -5 -10 -7 -10 -12 0 -7 14 -30 16 -39 2z"/>
<path d="M1129 178 c-1 -7 -1 -17 0 -22 1 -4 -3 -14 -9 -20 -14 -18 0 -29 17
-14 11 9 19 9 33 0 27 -17 34 7 16 54 -7 17 -56 19 -57 2z"/>
<path d="M770 150 c8 -5 20 -10 25 -10 6 0 3 5 -5 10 -8 5 -19 10 -25 10 -5 0
-3 -5 5 -10z"/>
<path d="M1450 150 c-8 -5 -10 -10 -5 -10 6 0 17 5 25 10 8 5 11 10 5 10 -5 0
-17 -5 -25 -10z"/>
<path d="M830 130 c34 -11 60 -11 35 0 -11 5 -29 8 -40 8 -16 0 -15 -2 5 -8z"/>
<path d="M1320 120 c-47 -10 -78 -18 -68 -19 21 -1 169 27 176 34 8 7 -14 5
-108 -15z"/>
<path d="M1205 100 c3 -5 11 -10 16 -10 6 0 7 5 4 10 -3 6 -11 10 -16 10 -6 0
-7 -4 -4 -10z"/>
</g>
</svg>
