<?xml version="1.0" standalone="no"?>
<!DOCTYPE svg PUBLIC "-//W3C//DTD SVG 20010904//EN"
 "http://www.w3.org/TR/2001/REC-SVG-20010904/DTD/svg10.dtd">
<svg version="1.0" xmlns="http://www.w3.org/2000/svg"
 width="1200.000000pt" height="1690.000000pt" viewBox="0 0 1200.000000 1690.000000"
 preserveAspectRatio="xMidYMid meet">

<g transform="translate(0.000000,1690.000000) scale(0.100000,-0.100000)"
fill="#000000" stroke="none">
<path d="M5551 16713 c-127 -45 -201 -210 -173 -388 21 -133 74 -219 167 -268
48 -25 187 -30 249 -8 127 45 202 208 177 389 -18 138 -72 225 -166 268 -60
29 -184 32 -254 7z m207 -120 c64 -48 99 -147 89 -255 -11 -119 -72 -190 -165
-191 -114 -1 -181 93 -182 254 0 99 39 175 105 205 40 19 119 12 153 -13z"/>
<path d="M6147 16638 c-14 -185 -30 -569 -23 -575 3 -3 30 -8 60 -11 l53 -4 7
184 c4 101 11 208 14 237 l7 54 114 -241 c126 -264 116 -252 212 -252 39 0 39
0 39 40 0 21 7 168 15 326 9 157 13 289 10 292 -3 3 -29 7 -58 10 l-54 4 -6
-116 c-4 -64 -10 -168 -13 -232 -4 -63 -10 -111 -14 -107 -4 4 -56 110 -115
234 -118 250 -109 239 -205 239 l-37 0 -6 -82z"/>
<path d="M4797 16605 c-27 -7 -51 -16 -54 -19 -3 -3 7 -56 21 -118 14 -62 26
-116 26 -120 0 -6 -207 -58 -233 -58 -8 0 -21 40 -36 109 -14 61 -27 115 -31
121 -9 15 -120 -7 -120 -24 0 -12 142 -629 146 -634 4 -5 114 20 118 27 2 3
-11 69 -29 146 -18 77 -32 141 -32 141 4 3 228 54 236 54 5 0 24 -63 42 -140
36 -155 31 -150 115 -129 34 9 43 15 40 28 -3 9 -35 147 -71 306 -76 334 -74
325 -83 324 -4 0 -29 -7 -55 -14z"/>
<path d="M7361 16302 c-35 -130 -70 -249 -77 -264 -17 -32 -49 -43 -86 -29
-38 14 -51 45 -43 98 4 25 9 51 11 58 3 8 -11 16 -39 23 -25 7 -51 14 -60 18
-12 4 -18 -6 -26 -46 -26 -120 1 -198 82 -238 101 -49 207 -37 256 29 30 40
35 55 102 304 33 121 62 227 65 236 3 13 -7 19 -43 28 -27 7 -55 14 -63 16
-13 4 -28 -42 -79 -233z"/>
<path d="M7675 16233 c-103 -285 -108 -341 -40 -421 51 -58 131 -94 225 -99
69 -4 78 -2 120 25 32 20 54 46 77 88 31 59 179 453 172 458 -2 1 -30 12 -62
24 -43 16 -59 18 -62 9 -59 -166 -147 -402 -156 -420 -26 -49 -51 -67 -96 -67
-78 0 -133 44 -133 107 0 29 30 120 123 376 l36 97 -37 16 c-91 38 -79 52
-167 -193z"/>
<path d="M3903 16351 c-96 -33 -161 -94 -183 -172 -43 -149 39 -371 168 -457
53 -35 59 -37 141 -37 74 0 93 4 137 27 90 47 144 139 144 242 0 67 -9 73 -74
46 l-56 -22 0 -48 c0 -75 -57 -130 -135 -130 -101 0 -195 126 -203 274 -5 85
14 128 70 157 57 29 110 25 151 -11 41 -35 47 -36 112 -6 l50 23 -55 54 c-81
80 -160 97 -267 60z"/>
<path d="M8355 16160 l-25 -50 82 -41 c46 -23 84 -43 86 -44 2 -1 -51 -113
-117 -249 l-120 -246 58 -30 58 -29 119 245 c65 134 121 244 125 244 3 0 41
-16 83 -35 43 -19 79 -35 81 -35 3 0 16 22 29 48 l25 49 -57 28 c-31 15 -135
65 -230 111 l-172 83 -25 -49z"/>
<path d="M3320 16076 c-19 -7 -95 -43 -168 -80 l-132 -66 18 -38 c10 -20 74
-153 143 -294 68 -142 130 -258 137 -258 10 0 89 35 100 45 2 1 -22 56 -53
120 -30 65 -54 119 -53 121 2 1 37 19 78 38 118 57 143 49 199 -61 16 -32 37
-68 47 -80 l19 -21 63 28 c64 30 76 44 43 53 -12 3 -34 34 -56 78 -45 90 -78
127 -121 135 -33 6 -33 6 -19 35 18 33 20 106 4 146 -13 34 -55 80 -91 99 -33
17 -111 17 -158 0z m115 -132 c29 -31 40 -76 26 -103 -15 -27 -57 -56 -135
-91 l-66 -29 -41 80 c-22 45 -39 83 -37 85 2 2 42 21 89 43 100 48 131 51 164
15z"/>
<path d="M8815 15618 c-94 -149 -171 -276 -173 -282 -4 -18 388 -258 402 -247
6 6 21 27 33 48 l22 39 -144 89 c-80 50 -145 95 -145 100 0 6 19 40 43 77 l42
67 128 -80 c89 -55 132 -77 140 -70 23 19 51 82 41 89 -6 4 -63 40 -127 80
-65 40 -117 76 -117 79 0 3 16 32 36 64 l35 58 82 -51 c45 -28 105 -65 132
-83 28 -17 55 -34 61 -38 7 -4 24 14 42 42 l30 49 -194 121 c-107 67 -195 121
-197 121 -1 0 -79 -122 -172 -272z"/>
<path d="M5730 15690 c-74 -5 -173 -14 -220 -20 -47 -6 -146 -15 -221 -20
-147 -9 -172 -15 -449 -96 -347 -103 -485 -150 -703 -245 -623 -270 -1207
-689 -1640 -1179 -690 -780 -1081 -1648 -1213 -2695 -14 -112 -17 -345 -25
-1695 -12 -1918 -7 -4056 10 -4220 67 -673 220 -1220 494 -1766 767 -1530
2255 -2522 3952 -2633 1471 -97 2920 518 3891 1650 573 669 958 1499 1098
2372 67 412 68 479 63 3422 -4 2767 -2 2668 -53 3025 -73 518 -272 1154 -490
1568 -407 772 -1094 1473 -1889 1927 -260 149 -651 322 -920 408 -281 90 -600
150 -1000 187 -160 15 -529 20 -685 10z m760 -284 c560 -66 1029 -205 1520
-453 1154 -580 2004 -1631 2339 -2893 70 -266 122 -588 141 -885 6 -95 10
-657 10 -1382 l0 -1223 -317 0 c-179 0 -334 -4 -354 -10 -58 -16 -86 -55 -110
-153 -12 -48 -31 -99 -42 -114 -40 -50 -61 -53 -399 -53 -344 0 -357 2 -402
63 -19 26 -21 44 -24 247 l-3 218 -86 27 c-125 39 -177 45 -390 45 l-193 0 0
-701 0 -700 108 -51 c59 -27 109 -51 111 -53 1 -2 -9 -39 -23 -82 -54 -161
-56 -185 -56 -651 0 -458 1 -474 48 -525 26 -29 99 -62 177 -81 39 -10 77 -19
85 -22 11 -3 20 10 32 44 34 93 97 183 308 432 44 52 93 120 110 151 l30 57 0
591 0 591 205 0 205 0 0 -585 c0 -504 2 -591 15 -622 21 -51 80 -127 204 -263
339 -374 440 -553 444 -786 1 -65 -2 -79 -41 -158 -69 -139 -181 -263 -277
-307 -35 -16 -69 -19 -292 -19 -241 0 -253 -1 -253 -19 0 -45 33 -188 74 -317
95 -300 117 -417 120 -610 l1 -131 -47 -94 c-75 -150 -186 -271 -312 -337
l-51 -27 -1005 -3 c-705 -2 -1025 1 -1072 8 -192 32 -334 170 -375 364 -71
336 240 1166 636 1696 76 102 232 263 309 318 35 24 89 55 120 68 l57 23 5
653 c3 359 9 661 13 670 11 22 44 43 82 52 17 4 47 12 68 17 l37 10 0 729 0
730 -200 0 -200 0 0 -217 c0 -190 -3 -223 -19 -258 -35 -78 -124 -130 -273
-162 -66 -14 -133 -17 -332 -18 l-249 0 -71 190 -72 190 -119 9 c-196 13 -241
3 -610 -135 -123 -46 -151 -53 -232 -57 l-93 -4 0 736 c0 658 2 736 15 736 9
0 87 -15 173 -32 l157 -32 345 -1 345 0 76 28 c155 57 409 229 577 392 142
136 219 248 238 345 l7 33 -224 -6 c-373 -11 -774 -54 -924 -98 -65 -19 -134
-53 -385 -187 -102 -54 -216 -96 -293 -107 l-48 -7 3 368 3 369 25 45 c15 27
45 58 74 77 114 77 275 99 647 88 l256 -7 144 95 c79 53 167 115 195 139 148
128 226 262 252 437 l9 64 -181 -6 c-192 -6 -267 -19 -416 -72 -189 -68 -407
-201 -665 -405 -141 -111 -225 -171 -257 -183 -23 -8 -23 6 -2 86 41 158 161
316 323 426 74 50 202 114 274 137 l58 18 -3 346 -3 345 -30 52 c-35 62 -36
62 -164 1 -114 -54 -201 -141 -258 -258 -51 -103 -74 -185 -113 -400 -46 -253
-92 -377 -153 -414 -33 -19 -89 59 -198 277 -114 228 -153 291 -226 362 -107
106 -215 144 -431 152 l-154 6 4 -149 c4 -165 7 -175 81 -272 58 -77 175 -167
394 -303 216 -134 297 -201 314 -259 7 -23 10 -89 7 -176 -5 -188 -14 -202
-133 -233 -66 -18 -71 -16 -93 47 -64 174 -260 357 -485 454 -159 69 -220 79
-504 85 l-253 6 0 -25 c0 -13 7 -51 15 -83 92 -363 502 -594 1105 -623 l145
-7 3 -567 c2 -494 0 -568 -13 -568 -24 0 -174 81 -310 169 -272 176 -332 213
-405 249 l-75 37 -732 3 -733 2 0 -94 0 -95 38 -7 c155 -26 251 -70 492 -224
366 -235 519 -309 720 -350 97 -20 128 -21 420 -17 285 3 323 6 400 26 46 12
111 24 142 28 l58 6 0 -268 0 -268 -57 6 c-102 10 -127 22 -279 125 -87 59
-126 64 -397 59 -265 -4 -316 -13 -502 -87 -307 -122 -592 -333 -674 -500 -29
-60 -30 -65 -14 -72 10 -4 97 -28 193 -52 281 -71 330 -76 791 -75 l404 0 239
250 c131 138 242 247 246 242 6 -7 41 -920 44 -1143 1 -63 -3 -84 -27 -132
-50 -102 -179 -194 -308 -219 l-57 -11 -204 137 -205 137 -77 -26 c-180 -61
-374 -183 -517 -325 -144 -145 -201 -254 -202 -386 0 -38 5 -87 12 -107 18
-56 77 -103 163 -129 40 -13 76 -26 80 -29 14 -11 -118 -321 -186 -440 -77
-134 -140 -200 -210 -220 -78 -22 -359 -8 -476 24 -52 14 -105 26 -117 26 -29
0 -117 -89 -162 -165 -101 -168 -171 -487 -171 -782 0 -98 2 -112 18 -117 9
-3 76 -21 147 -41 72 -20 154 -43 184 -51 l54 -15 -6 -242 c-6 -264 -18 -349
-62 -422 -57 -99 -150 -140 -354 -156 -101 -9 -131 -15 -155 -32 -17 -12 -82
-59 -143 -104 -62 -46 -116 -83 -121 -83 -11 0 -24 29 -77 170 -24 63 -93 230
-154 371 -146 338 -196 509 -256 862 -63 376 -59 178 -63 3117 -3 2709 -1
2910 33 3178 69 533 217 1026 445 1482 232 463 556 905 916 1250 756 725 1696
1147 2759 1240 151 13 657 4 815 -14z m-1080 -10556 l0 -3400 -70 0 -70 0 -1
2743 -1 2742 -24 -107 c-30 -138 -51 -177 -138 -263 -200 -198 -605 -380 -891
-401 -64 -5 -104 -1 -204 20 -69 14 -127 28 -129 31 -8 8 18 85 49 146 109
217 488 535 854 717 60 30 128 57 151 60 34 3 231 -30 317 -54 16 -5 17 27 17
580 l0 586 70 0 70 0 0 -3400z m1500 3192 c0 -29 -30 -123 -56 -173 -38 -76
-138 -192 -222 -258 -146 -115 -267 -178 -421 -217 -134 -34 -211 -32 -336 10
l-100 34 -32 88 c-17 49 -32 96 -32 104 0 8 88 92 195 185 l195 170 392 36
c216 20 398 37 405 38 6 0 12 -7 12 -17z m538 -1274 c-4 -127 -5 -136 -38
-203 -46 -94 -215 -264 -355 -357 -259 -172 -554 -289 -766 -305 -119 -8 -153
0 -197 47 -42 45 -96 67 -189 76 l-66 7 7 110 c17 277 81 380 274 441 43 13
160 41 262 62 102 21 374 86 605 145 231 59 431 107 444 108 l23 1 -4 -132z
m-3386 -1294 c161 -51 354 -164 525 -308 112 -93 180 -167 244 -265 71 -107
79 -142 79 -358 l0 -183 -162 0 c-90 0 -181 5 -203 11 -91 25 -348 329 -588
694 -115 175 -247 401 -247 422 0 10 30 13 134 13 118 0 146 -3 218 -26z"/>
<path d="M2569 15609 c-30 -22 -53 -46 -53 -52 1 -13 204 -638 211 -650 5 -9
93 53 100 70 3 7 -4 41 -16 75 -12 34 -18 65 -14 68 41 35 174 130 183 130 6
0 34 -18 62 -39 l51 -39 55 41 54 41 -22 18 c-28 23 -548 378 -553 378 -2 0
-28 -18 -58 -41z m207 -205 c57 -42 104 -77 104 -79 0 -10 -125 -94 -131 -88
-4 5 -24 55 -44 113 -21 58 -40 111 -42 118 -9 22 8 13 113 -64z"/>
<path d="M2021 15161 c-90 -87 -162 -162 -160 -168 2 -6 105 -114 229 -242
l225 -231 168 161 c92 88 167 166 167 173 0 7 -16 27 -35 46 l-34 33 -98 -91
c-54 -49 -111 -104 -128 -121 l-29 -31 -58 57 c-32 32 -58 62 -58 68 -1 5 48
56 107 112 l108 102 -39 40 -39 40 -111 -104 -111 -105 -50 50 -50 50 120 120
120 120 -40 39 -40 39 -164 -157z"/>
<path d="M9788 15202 c-54 -22 -108 -104 -108 -165 0 -16 -6 -18 -53 -12 -74
9 -130 -8 -176 -54 -48 -48 -68 -118 -51 -180 20 -76 119 -161 187 -161 43 0
56 -13 49 -47 -6 -26 -1 -35 46 -79 l53 -49 9 93 c7 74 12 92 25 92 25 0 134
55 154 77 17 20 17 21 -22 52 l-39 31 -38 -25 c-55 -37 -62 -34 -57 28 8 96 7
95 57 90 134 -15 225 127 153 236 -40 61 -132 96 -189 73z m96 -113 c32 -26
33 -43 1 -74 -16 -17 -35 -25 -60 -25 -33 0 -35 2 -35 35 0 25 8 44 25 60 29
30 35 31 69 4z m-218 -196 c-2 -16 -8 -58 -11 -95 -4 -37 -10 -70 -14 -73 -4
-2 -25 0 -46 6 -84 23 -112 104 -56 160 25 25 37 29 81 29 51 0 52 0 46 -27z"/>
<path d="M1622 14745 c-73 -37 -135 -117 -153 -194 -29 -129 104 -267 222
-232 22 7 83 42 136 78 116 79 159 90 191 48 12 -15 22 -37 22 -49 0 -33 -53
-110 -92 -134 -40 -25 -65 -27 -104 -10 -24 11 -29 9 -66 -30 -21 -23 -36 -47
-32 -53 12 -20 88 -49 129 -49 87 0 210 93 255 193 23 49 26 124 6 170 -28 68
-104 120 -172 119 -50 0 -79 -15 -201 -98 -52 -35 -103 -64 -114 -64 -29 0
-69 44 -69 77 0 36 42 98 80 118 33 17 73 19 100 5 15 -8 25 -2 60 37 l41 47
-33 20 c-20 13 -54 22 -92 24 -51 3 -70 -1 -114 -23z"/>
<path d="M10275 14341 c-170 -54 -316 -99 -323 -102 -8 -3 0 -20 23 -54 20
-28 39 -51 43 -53 5 -1 34 7 67 18 32 11 61 20 66 20 6 0 105 -133 133 -178 5
-8 -7 -33 -34 -68 l-42 -56 37 -54 c21 -30 40 -54 44 -54 6 0 393 543 399 560
6 16 -72 120 -88 119 -8 0 -154 -45 -325 -98z m248 -54 c-15 -24 -155 -207
-159 -207 -6 0 -83 108 -86 120 -2 9 176 80 250 99 2 1 -1 -5 -5 -12z"/>
<path d="M1123 14107 c-91 -144 -118 -195 -109 -204 27 -28 549 -344 556 -336
17 19 240 384 240 392 0 9 -89 65 -94 59 -2 -1 -43 -66 -91 -143 -48 -77 -89
-142 -91 -144 -6 -6 -144 80 -144 90 0 5 34 63 75 129 41 66 75 123 75 127 0
5 -20 20 -45 35 l-44 27 -81 -129 c-77 -122 -83 -129 -103 -118 -40 21 -97 61
-97 67 0 4 38 68 84 141 52 83 81 139 76 145 -5 6 -26 21 -48 33 l-39 22 -120
-193z"/>
<path d="M10641 13846 c-150 -90 -277 -168 -283 -174 -6 -6 31 -76 98 -188 59
-98 110 -183 114 -187 6 -7 74 27 99 49 2 2 -32 64 -77 138 l-80 135 229 137
c126 75 231 140 234 143 2 4 -11 30 -29 59 l-32 52 -273 -164z"/>
<path d="M905 13646 c-22 -8 -54 -31 -70 -50 -25 -28 -156 -291 -167 -335 -3
-10 203 -111 540 -266 l52 -24 25 49 c14 27 25 53 25 58 0 5 -52 32 -115 62
-63 29 -115 56 -115 59 1 3 20 44 43 91 55 111 63 114 184 66 51 -20 99 -36
106 -36 8 0 26 27 41 61 31 73 31 73 4 66 -14 -4 -52 7 -102 29 -84 36 -138
44 -174 25 -29 -15 -29 -15 -36 23 -18 93 -144 157 -241 122z m128 -148 c39
-28 36 -71 -12 -174 l-40 -84 -77 35 c-43 20 -80 38 -82 40 -6 6 43 117 71
163 32 55 80 61 140 20z"/>
<path d="M11005 13361 c-115 -54 -249 -116 -297 -139 l-87 -40 38 -84 c21 -46
64 -136 94 -201 l56 -118 51 26 c27 14 50 27 50 29 0 2 -29 66 -65 142 -36 75
-64 138 -63 139 2 1 111 52 242 114 132 61 241 113 244 116 6 6 -38 115 -47
115 -3 -1 -100 -45 -216 -99z"/>
<path d="M11150 12795 c-337 -124 -318 -111 -283 -192 l18 -41 305 110 c168
61 307 113 309 115 6 4 -30 113 -38 117 -3 1 -143 -48 -311 -109z"/>
<path d="M431 12655 c-40 -113 -72 -207 -70 -209 2 -1 141 -52 309 -113 l305
-111 17 38 c36 78 37 78 -102 130 -95 35 -124 50 -122 63 1 8 21 64 43 124 22
59 38 112 35 118 -5 13 -83 38 -95 31 -5 -3 -28 -60 -51 -126 -23 -66 -46
-120 -51 -120 -13 0 -123 41 -132 50 -4 4 15 69 43 146 27 76 50 142 50 146 0
9 -41 27 -80 34 -24 5 -27 -1 -99 -201z"/>
<path d="M11257 12500 c-170 -43 -311 -80 -314 -83 -5 -6 97 -430 108 -448 7
-11 109 10 109 23 0 5 -18 81 -40 170 -23 88 -40 162 -38 163 11 11 163 42
168 35 3 -5 21 -73 40 -150 33 -138 35 -141 58 -135 14 3 37 9 53 12 16 3 29
10 29 15 0 5 -16 72 -35 150 -20 77 -35 141 -33 142 11 8 131 36 135 32 3 -2
22 -73 43 -156 21 -83 41 -154 44 -157 5 -6 106 16 106 23 0 5 -82 334 -101
407 -5 20 -13 37 -17 36 -4 0 -146 -36 -315 -79z"/>
<path d="M428 12136 c-136 -36 -208 -141 -208 -299 0 -87 23 -138 86 -197 73
-67 171 -100 300 -100 100 0 159 19 217 70 64 57 91 124 91 230 1 100 -17 143
-85 204 -93 85 -274 126 -401 92z m249 -146 c28 -12 66 -37 84 -56 32 -33 34
-40 34 -102 0 -117 -60 -168 -195 -166 -180 3 -299 109 -261 234 14 47 57 93
103 108 50 17 176 8 235 -18z"/>
<path d="M11390 11888 c-167 -27 -306 -50 -308 -52 -1 -2 9 -72 23 -156 35
-204 56 -244 160 -292 71 -33 230 -33 326 0 120 41 188 123 189 227 0 28 -10
112 -22 188 -20 125 -24 137 -43 136 -11 -1 -157 -24 -325 -51z m269 -171 c7
-45 10 -94 6 -109 -16 -63 -100 -106 -226 -115 -140 -10 -190 25 -214 152 -9
43 -13 81 -9 84 5 6 367 67 410 70 19 1 22 -8 33 -82z"/>
<path d="M146 11099 c-3 -17 -6 -120 -6 -229 l0 -197 53 -7 c28 -3 176 -6 328
-6 l276 0 6 137 c4 75 7 180 7 235 l0 98 -60 0 -60 0 0 -175 0 -175 -77 0
c-43 0 -84 4 -92 9 -12 8 -13 35 -8 154 l7 144 -51 6 c-29 4 -56 4 -60 1 -5
-3 -9 -72 -9 -155 l0 -149 -74 0 -74 0 6 170 5 170 -55 0 c-54 0 -56 -1 -62
-31z"/>
<path d="M11180 10870 l0 -60 140 0 140 0 0 -140 0 -140 55 0 54 0 3 138 3
137 78 3 77 3 0 -161 0 -160 60 0 60 0 0 220 0 220 -335 0 -335 0 0 -60z"/>
<path d="M147 10563 c-4 -3 -7 -118 -7 -255 l0 -248 60 0 60 0 0 95 0 95 275
0 275 0 0 65 0 65 -275 0 -275 0 0 95 0 95 -53 0 c-30 0 -57 -3 -60 -7z"/>
<path d="M11180 10345 l0 -65 335 0 335 0 0 65 0 65 -335 0 -335 0 0 -65z"/>
<path d="M11180 9990 c0 -182 11 -248 48 -292 73 -86 216 -91 285 -8 l27 32
20 -25 c40 -51 153 -61 208 -20 67 50 82 109 82 331 l0 142 -335 0 -335 0 0
-160z m298 -20 c6 -91 -7 -160 -33 -186 -32 -32 -85 -32 -121 0 -26 22 -28 29
-32 119 -2 53 -2 103 2 112 5 13 21 15 93 13 l88 -3 3 -55z m252 -41 c0 -55
-5 -109 -10 -119 -27 -50 -100 -49 -125 0 -10 20 -15 60 -15 125 l0 95 75 0
75 0 0 -101z"/>
<path d="M140 9916 l0 -66 223 0 c317 -1 342 -9 342 -124 0 -74 -17 -100 -74
-116 -20 -5 -138 -10 -263 -10 l-228 0 0 -66 0 -66 258 4 c235 3 261 5 302 24
86 39 121 107 121 229 0 122 -35 190 -121 229 -41 19 -67 21 -302 24 l-258 4
0 -66z"/>
<path d="M11180 9445 l0 -65 130 0 130 0 0 -94 c0 -133 -5 -137 -146 -147 -60
-4 -110 -8 -111 -8 -2 -1 -3 -35 -3 -77 l0 -76 23 15 c14 9 57 16 117 19 104
5 154 23 165 59 7 21 8 21 32 -10 36 -45 79 -64 146 -64 48 0 65 5 100 29 71
50 77 71 77 292 l0 192 -330 0 -330 0 0 -65z m550 -164 c0 -116 -3 -127 -41
-146 -34 -18 -60 -19 -92 -4 -37 17 -47 50 -47 154 l0 95 90 0 90 0 0 -99z"/>
<path d="M140 9135 l0 -255 60 0 60 0 0 95 0 95 275 0 275 0 0 65 0 65 -275 0
-275 0 0 95 0 95 -60 0 -60 0 0 -255z"/>
<path d="M11180 8630 l0 -240 60 0 60 0 0 175 0 175 90 0 90 0 0 -150 0 -150
55 0 55 0 0 150 0 150 70 0 70 0 0 -165 0 -165 60 0 60 0 0 230 0 230 -335 0
-335 0 0 -240z"/>
<path d="M140 8740 l0 -60 335 0 335 0 0 60 0 60 -335 0 -335 0 0 -60z"/>
<path d="M142 8348 l3 -253 57 -3 57 -3 3 98 3 98 273 3 272 2 0 60 0 60 -275
0 -275 0 0 95 0 95 -60 0 -60 0 2 -252z"/>
<path d="M11730 8000 l0 -100 -275 0 -275 0 0 -60 0 -60 273 -2 272 -3 3 -92
3 -93 60 0 59 0 -2 253 -3 252 -57 3 -58 3 0 -101z"/>
<path d="M547 8036 c-74 -27 -90 -54 -137 -226 -34 -126 -49 -150 -92 -150
-61 0 -100 79 -78 159 11 42 50 81 81 81 16 0 19 8 19 59 0 33 -3 62 -7 64 -5
3 -30 -1 -58 -8 -162 -42 -210 -315 -75 -428 76 -64 198 -61 258 7 32 37 52
89 77 203 24 108 63 142 130 117 27 -11 45 -60 45 -121 0 -73 -25 -119 -72
-131 -32 -8 -33 -9 -36 -70 -3 -70 -1 -71 72 -50 97 30 152 132 144 272 -7
127 -56 198 -153 225 -51 14 -71 13 -118 -3z"/>
<path d="M11180 7260 l0 -240 60 0 60 0 0 175 0 175 90 0 90 0 0 -150 0 -150
55 0 55 0 0 150 0 150 70 0 70 0 0 -165 0 -165 60 0 60 0 0 230 0 230 -335 0
-335 0 0 -240z"/>
<path d="M140 7370 l0 -60 232 0 c127 0 228 -3 224 -7 -4 -5 -107 -62 -229
-128 l-222 -120 -3 -68 -3 -67 336 0 335 0 0 60 0 60 -234 2 -234 3 232 126
231 126 3 67 3 66 -336 0 -335 0 0 -60z"/>
<path d="M11387 6929 c-138 -33 -219 -133 -220 -273 0 -82 19 -135 66 -185 35
-37 119 -81 155 -81 20 0 22 4 22 58 l0 59 -42 19 c-113 51 -117 192 -7 254
39 22 55 25 149 25 89 0 111 -3 147 -22 63 -34 83 -65 83 -133 0 -66 -23 -104
-77 -126 -33 -14 -33 -15 -33 -79 l0 -65 28 6 c15 3 50 19 77 34 125 68 164
272 76 395 -35 49 -116 100 -183 114 -58 13 -187 13 -241 0z"/>
<path d="M140 6730 l0 -60 335 0 335 0 0 60 0 60 -335 0 -335 0 0 -60z"/>
<path d="M690 6195 l0 -155 -275 0 -275 0 0 -65 0 -65 330 0 330 0 0 220 0
220 -55 0 -55 0 0 -155z"/>
<path d="M11180 6215 l0 -65 150 0 150 0 0 -125 0 -125 -150 0 -150 0 0 -65 0
-65 335 0 335 0 0 65 0 65 -130 0 -130 0 0 125 0 125 130 0 130 0 0 65 0 65
-335 0 -335 0 0 -65z"/>
<path d="M480 5676 c-350 -147 -328 -131 -315 -231 l6 -52 332 -87 c183 -47
335 -86 338 -86 9 0 -3 125 -14 131 -5 4 -36 12 -68 19 -38 8 -60 18 -63 29
-3 9 -6 63 -8 119 l-3 104 60 22 60 23 3 71 c2 40 -1 72 -5 71 -4 0 -150 -60
-323 -133z m95 -139 c4 -17 5 -53 3 -78 l-3 -47 -130 33 c-98 24 -125 34 -110
40 84 35 212 84 222 84 7 1 15 -14 18 -32z"/>
<path d="M11175 5553 c-4 -30 -4 -57 -2 -60 5 -5 420 -73 446 -73 34 0 -16
-21 -239 -100 -129 -46 -240 -85 -247 -87 -11 -4 -30 -120 -21 -128 6 -6 640
-106 644 -102 5 5 25 110 22 112 -2 2 -95 17 -208 34 -113 18 -214 35 -224 40
-14 5 49 31 224 92 265 92 255 85 261 174 l4 49 -295 47 c-162 26 -309 50
-326 52 -32 5 -32 5 -39 -50z"/>
<path d="M521 5019 c-162 -38 -297 -71 -299 -73 -2 -3 2 -30 9 -60 9 -43 16
-55 28 -52 66 18 423 97 426 94 3 -3 -247 -229 -366 -330 -19 -16 -19 -19 -4
-80 9 -35 18 -64 19 -66 3 -2 588 131 627 144 14 4 15 12 6 55 -5 28 -15 53
-21 55 -7 3 -110 -18 -230 -46 -121 -28 -220 -49 -222 -48 -2 3 267 244 367
329 l30 27 -12 61 c-11 57 -13 61 -38 60 -14 -1 -158 -32 -320 -70z"/>
<path d="M11205 4906 c-98 -31 -150 -79 -185 -173 -74 -197 31 -363 262 -418
233 -55 396 53 415 273 5 60 2 77 -19 123 -45 98 -122 155 -253 189 -88 23
-161 25 -220 6z m241 -146 c120 -53 170 -164 112 -250 -38 -55 -71 -74 -143
-78 -174 -11 -324 99 -301 221 10 52 43 97 89 118 55 26 172 21 243 -11z"/>
<path d="M730 4395 c-136 -39 -221 -99 -266 -191 -23 -48 -26 -63 -22 -127 13
-201 158 -318 355 -287 202 33 343 160 343 311 0 70 -31 164 -71 212 -68 83
-211 117 -339 82z m206 -131 c19 -9 44 -30 56 -47 26 -36 35 -116 18 -157 -29
-71 -146 -137 -260 -147 -67 -6 -133 24 -167 76 -33 48 -32 124 2 173 63 93
254 148 351 102z"/>
<path d="M10828 4068 l-74 -203 38 -17 c70 -32 66 -35 122 116 28 77 56 141
62 143 6 2 122 -37 259 -87 136 -50 249 -89 250 -88 1 2 12 28 23 59 l21 57
-27 11 c-84 34 -577 211 -587 211 -7 0 -46 -91 -87 -202z"/>
<path d="M960 3670 c-157 -71 -289 -131 -295 -133 -8 -3 23 -88 42 -116 2 -3
593 256 602 265 8 7 -42 114 -53 113 -6 -1 -139 -59 -296 -129z"/>
<path d="M10725 3674 c-136 -48 -222 -243 -170 -381 36 -93 133 -173 267 -217
174 -59 306 -9 380 142 43 86 46 181 9 252 -82 158 -327 261 -486 204z m247
-152 c112 -55 164 -138 139 -222 -26 -87 -90 -127 -187 -117 -97 10 -214 80
-250 148 -34 66 -7 163 57 207 51 35 151 29 241 -16z"/>
<path d="M1250 3326 c-96 -56 -200 -116 -232 -134 l-56 -32 -46 80 c-26 44
-49 80 -52 80 -6 0 -94 -51 -94 -55 0 -5 242 -420 250 -429 5 -5 28 3 54 18
l46 27 -15 29 c-9 17 -29 53 -46 81 -17 29 -27 55 -22 59 4 4 107 65 228 135
121 69 224 130 228 134 9 9 -43 103 -58 107 -6 1 -89 -44 -185 -100z"/>
<path d="M1386 2879 c-221 -312 -210 -283 -143 -363 l33 -38 331 103 332 103
-15 25 c-9 14 -26 39 -39 55 l-23 28 -67 -22 c-37 -12 -70 -18 -74 -14 -11 12
-115 156 -125 172 -5 8 7 33 33 67 23 30 41 57 41 60 0 8 -73 105 -80 105 -3
0 -94 -127 -204 -281z m180 -100 c25 -33 42 -64 38 -69 -5 -4 -65 -26 -132
-48 l-124 -41 24 32 c14 18 51 67 82 110 32 42 60 77 62 77 1 0 24 -27 50 -61z"/>
<path d="M10362 3030 c-124 -26 -222 -157 -205 -276 6 -49 4 -50 -37 -29 -27
14 -29 13 -54 -19 l-25 -34 139 -101 c76 -56 142 -101 147 -101 7 0 87 106
135 180 l18 26 -43 31 -43 30 -43 -59 c-23 -32 -47 -56 -52 -52 -19 11 -49 84
-49 119 0 85 84 165 173 165 52 0 134 -45 197 -108 91 -91 102 -171 34 -251
-39 -45 -87 -65 -136 -56 -31 6 -36 3 -66 -41 -19 -25 -30 -50 -25 -54 14 -12
74 -30 103 -30 96 0 207 77 257 177 78 160 -12 352 -209 447 -80 38 -148 49
-216 36z"/>
<path d="M1790 2399 c-113 -104 -221 -206 -240 -224 l-35 -35 42 -42 42 -42
117 110 c64 60 140 130 170 157 l53 47 -85 -252 -84 -253 48 -48 48 -48 243
227 243 227 -43 43 -42 43 -170 -160 c-94 -87 -172 -157 -174 -156 -1 2 35
118 82 257 l85 254 -42 43 c-23 24 -45 43 -48 43 -3 0 -97 -86 -210 -191z"/>
<path d="M9781 2385 l-41 -45 93 -84 93 -84 73 -194 c103 -270 88 -251 144
-186 l47 55 -64 139 c-35 76 -60 140 -56 142 5 2 73 -18 152 -43 l143 -46 47
53 c26 29 44 56 40 60 -4 4 -105 31 -224 61 l-218 55 -89 81 c-49 44 -91 81
-94 81 -2 0 -23 -20 -46 -45z"/>
<path d="M9208 1809 c-49 -14 -117 -74 -139 -123 -44 -98 -6 -224 84 -280 154
-95 342 10 341 191 0 51 -6 70 -30 110 -53 85 -161 128 -256 102z"/>
<path d="M2474 1681 c-22 -10 -56 -37 -76 -61 -88 -102 -68 -251 44 -326 201
-135 439 97 312 303 -56 90 -182 128 -280 84z"/>
<path d="M3367 1297 c-141 -272 -199 -389 -195 -392 2 -1 98 -50 214 -108
l211 -105 21 44 c12 25 22 49 22 54 0 6 -67 44 -150 85 -82 41 -150 80 -150
85 0 6 16 42 35 80 l35 70 138 -69 138 -69 27 49 28 48 -118 60 c-170 86 -161
75 -124 149 l31 62 150 -75 150 -75 25 49 25 50 -113 59 c-61 33 -153 80 -204
106 l-92 46 -104 -203z"/>
<path d="M8390 1425 c-57 -18 -118 -69 -136 -111 -37 -87 9 -197 92 -224 33
-11 34 -12 19 -40 -42 -81 7 -209 97 -256 70 -37 202 -2 265 69 96 109 41 287
-99 322 -24 6 -26 10 -17 32 15 41 10 93 -13 135 -41 72 -122 100 -208 73z
m104 -126 c31 -37 33 -77 6 -107 -45 -48 -111 -37 -136 24 -18 42 -12 66 23
94 38 30 76 26 107 -11z m120 -228 c22 -19 46 -71 46 -101 0 -34 -53 -80 -92
-80 -46 0 -73 22 -93 74 -15 38 -15 48 -3 73 15 33 70 63 101 56 12 -3 30 -13
41 -22z"/>
<path d="M7919 1201 c-116 -36 -167 -120 -143 -239 l6 -30 51 17 51 18 -3 42
c-4 57 26 91 79 91 41 0 64 -19 81 -68 14 -40 -6 -75 -55 -99 l-34 -16 16 -42
c14 -39 18 -42 39 -34 46 17 92 11 118 -17 64 -69 23 -174 -68 -174 -24 0 -63
30 -82 64 -10 17 -12 17 -55 0 -25 -9 -48 -20 -53 -24 -12 -10 50 -99 85 -120
73 -44 220 -14 281 59 77 92 49 247 -54 299 l-46 23 15 43 c13 36 14 50 4 84
-31 103 -128 154 -233 123z"/>
<path d="M4047 1190 c-78 -24 -137 -108 -137 -196 0 -68 25 -103 117 -166 114
-79 153 -116 153 -147 0 -70 -62 -95 -153 -61 -68 26 -97 59 -97 111 0 36 -2
38 -55 58 -31 12 -58 21 -60 21 -2 0 -7 -19 -10 -43 -21 -141 118 -269 296
-271 56 -1 72 3 114 29 66 41 97 100 92 176 -4 75 -25 102 -152 189 -135 93
-147 113 -101 167 29 33 81 36 136 8 48 -24 70 -54 70 -97 0 -34 3 -37 47 -52
64 -22 70 -21 77 18 19 101 -59 208 -179 245 -71 22 -112 25 -158 11z"/>
<path d="M7395 1021 c-80 -36 -121 -113 -112 -211 11 -124 73 -200 172 -208
66 -5 117 11 149 48 30 36 36 25 36 -59 0 -76 -25 -111 -78 -111 -22 0 -44 8
-58 21 -20 19 -26 19 -65 8 -61 -17 -64 -23 -41 -61 31 -50 76 -73 147 -72
146 0 213 89 202 268 -9 166 -77 322 -162 371 -52 31 -131 33 -190 6z m140
-103 c57 -45 73 -141 31 -183 -52 -52 -115 -41 -148 25 -21 41 -24 119 -5 142
33 42 81 48 122 16z"/>
<path d="M4501 980 c-6 -28 -11 -52 -11 -54 0 -2 39 -12 86 -22 48 -11 88 -24
90 -29 3 -6 -23 -127 -56 -269 -33 -143 -60 -260 -60 -261 0 -4 122 -26 125
-23 2 2 30 119 63 261 33 142 62 260 64 263 3 2 45 -5 93 -16 48 -11 89 -19
90 -18 6 6 23 103 20 107 -5 4 -465 111 -481 111 -7 0 -17 -23 -23 -50z"/>
<path d="M6973 913 c-15 -3 -24 -14 -28 -36 -10 -45 -52 -86 -102 -99 -37 -9
-43 -14 -43 -37 0 -50 11 -56 85 -45 36 6 68 8 69 5 2 -3 19 -104 37 -224 l34
-218 40 6 c66 10 75 15 74 38 0 12 -21 155 -47 317 -47 294 -47 295 -72 296
-14 1 -35 0 -47 -3z"/>
<path d="M5099 908 c0 -2 -24 -148 -53 -326 -52 -318 -52 -323 -32 -327 12 -2
83 -14 159 -26 116 -18 145 -19 187 -9 94 23 174 120 205 251 40 172 -2 316
-107 370 -46 23 -354 80 -359 67z m197 -138 c118 -20 154 -60 154 -167 0 -106
-35 -200 -92 -248 -31 -26 -36 -27 -108 -22 -90 7 -110 14 -110 36 0 9 14 105
31 214 35 221 24 204 125 187z"/>
<path d="M6282 588 l3 -63 63 -3 62 -3 0 66 0 65 -65 0 -66 0 3 -62z"/>
<path d="M6358 312 l-58 -3 0 -64 0 -65 65 0 65 0 -1 43 c-1 23 -4 53 -8 67
-6 24 -9 25 -63 22z"/>
<path d="M5696 248 c-3 -34 -5 -62 -3 -64 1 -1 30 -6 65 -10 l62 -7 0 65 0 65
-46 7 c-26 3 -52 6 -59 6 -8 0 -15 -23 -19 -62z"/>
</g>
</svg>
