<?xml version="1.0" standalone="no"?>
<!DOCTYPE svg PUBLIC "-//W3C//DTD SVG 20010904//EN"
 "http://www.w3.org/TR/2001/REC-SVG-20010904/DTD/svg10.dtd">
<svg version="1.0" xmlns="http://www.w3.org/2000/svg"
 width="311.000000pt" height="321.000000pt" viewBox="0 0 311.000000 321.000000"
 preserveAspectRatio="xMidYMid meet">

<g transform="translate(0.000000,321.000000) scale(0.100000,-0.100000)"
fill="#000000" stroke="none">
<path d="M1420 3065 l0 -145 -190 0 -190 0 0 -130 0 -130 191 0 190 0 -3 -52
-3 -51 -64 -13 c-404 -82 -721 -381 -828 -779 -23 -88 -27 -119 -27 -260 0
-136 3 -173 23 -249 55 -213 132 -347 286 -501 160 -159 324 -250 527 -291
l88 -18 0 -88 0 -88 135 0 135 0 0 90 c0 80 2 90 18 90 10 0 56 10 103 21 695
175 1022 965 653 1580 -56 94 -180 230 -274 301 -119 90 -375 198 -471 198
-28 0 -29 1 -29 55 l0 55 190 0 190 0 0 130 0 130 -190 0 -189 0 -3 143 -3
142 -132 3 -133 3 0 -146z m240 -30 l0 -145 190 0 190 0 0 -105 0 -105 -190 0
-190 0 0 -60 0 -60 -105 0 -105 0 0 60 0 60 -188 0 c-104 0 -191 2 -193 4 -2
2 -3 50 -1 105 l3 101 190 0 189 0 0 145 0 145 105 0 105 0 0 -145z m25 -506
c106 -12 275 -66 363 -115 340 -190 542 -531 542 -914 0 -274 -97 -514 -288
-712 -136 -141 -274 -225 -468 -284 -83 -26 -101 -28 -279 -28 -179 0 -195 1
-280 27 -361 111 -612 362 -721 722 -26 83 -28 103 -28 270 -1 212 14 285 93
450 149 312 437 528 775 580 104 17 179 18 291 4z m-25 -2159 l0 -70 -105 0
-105 0 0 70 0 70 105 0 105 0 0 -70z"/>
<path d="M1463 2483 c-14 -5 -17 -71 -4 -91 5 -8 17 -11 33 -7 20 5 24 11 20
31 -4 23 -32 35 -32 14 0 -5 5 -10 10 -10 6 0 10 -4 10 -10 0 -5 -7 -10 -15
-10 -10 0 -15 11 -15 35 0 37 8 43 28 23 9 -9 12 -8 12 4 0 12 -24 32 -33 27
-1 0 -8 -3 -14 -6z"/>
<path d="M1540 2478 c0 -7 -3 -30 -6 -50 -5 -25 -3 -38 5 -38 6 0 11 9 11 20
0 11 7 20 15 20 8 0 15 -9 15 -19 0 -11 4 -23 10 -26 13 -8 9 88 -4 97 -17 12
-46 9 -46 -4z m38 -19 c-2 -6 -8 -10 -13 -10 -5 0 -11 4 -13 10 -2 6 4 11 13
11 9 0 15 -5 13 -11z"/>
<path d="M1618 2434 c-4 -53 7 -68 16 -23 9 44 8 69 -3 69 -5 0 -11 -21 -13
-46z"/>
<path d="M1659 2453 c-16 -42 -8 -68 20 -68 13 0 26 6 29 13 2 6 -1 12 -7 12
-6 0 -11 -4 -11 -10 0 -5 -4 -10 -10 -10 -13 0 -13 40 0 60 8 12 11 13 19 1
10 -16 26 3 16 19 -12 20 -45 10 -56 -17z"/>
<path d="M1380 2451 c0 -10 -3 -33 -6 -50 -4 -20 -3 -31 5 -31 6 0 11 7 11 15
0 18 27 20 33 3 2 -7 7 -10 11 -7 4 4 -1 25 -10 48 -17 42 -44 56 -44 22z m30
-32 c0 -6 -4 -7 -10 -4 -5 3 -10 11 -10 16 0 6 5 7 10 4 6 -3 10 -11 10 -16z"/>
<path d="M1743 2454 c-3 -9 -6 -32 -7 -52 -1 -33 2 -37 24 -37 20 0 26 7 37
44 7 25 11 47 8 49 -8 9 -17 -6 -24 -39 -4 -18 -12 -34 -20 -37 -10 -3 -11 6
-6 42 7 45 0 62 -12 30z"/>
<path d="M1265 2440 c-8 -14 14 -90 26 -90 6 0 8 9 4 19 -4 13 0 23 12 30 16
9 16 10 -4 11 -27 0 -30 15 -5 29 15 9 15 10 -5 11 -12 0 -25 -4 -28 -10z"/>
<path d="M1830 2426 c-5 -14 -14 -37 -19 -50 -10 -26 1 -36 37 -36 15 1 15 2
-1 15 -17 12 -18 18 -7 50 14 42 6 61 -10 21z"/>
<path d="M1193 2423 c-17 -6 -16 -38 2 -73 17 -33 36 -38 56 -14 11 13 10 22
-6 52 -21 37 -31 44 -52 35z m37 -43 c7 -17 9 -34 6 -38 -10 -9 -36 27 -36 50
0 28 16 21 30 -12z"/>
<path d="M1880 2421 c0 -5 5 -11 10 -13 7 -2 6 -16 -4 -40 -9 -20 -12 -39 -7
-42 4 -3 15 13 24 35 9 23 21 38 27 34 5 -3 10 -1 10 5 0 6 -12 15 -26 20 -31
12 -34 12 -34 1z"/>
<path d="M1945 2361 c-20 -45 -15 -71 14 -71 22 0 68 74 53 84 -5 3 -16 -10
-25 -29 -9 -19 -24 -35 -32 -35 -13 0 -12 6 5 40 22 44 24 50 12 50 -5 0 -17
-18 -27 -39z"/>
<path d="M1100 2364 c0 -11 -6 -14 -22 -9 -20 6 -19 3 9 -24 17 -16 33 -36 36
-43 2 -7 7 -10 11 -6 4 3 3 15 -3 26 -6 12 -11 32 -11 46 0 14 -4 26 -10 26
-5 0 -10 -7 -10 -16z"/>
<path d="M2018 2317 c-27 -41 -29 -69 -3 -33 18 24 39 12 25 -14 -12 -23 -13
-30 -1 -30 5 0 13 10 17 22 3 12 13 28 21 36 17 17 13 31 -13 48 -17 12 -22 9
-46 -29z m47 -7 c-5 -8 -11 -8 -17 -2 -6 6 -7 16 -3 22 5 8 11 8 17 2 6 -6 7
-16 3 -22z"/>
<path d="M1018 2329 c-10 -5 -18 -15 -18 -20 0 -6 4 -7 10 -4 5 3 20 -10 32
-29 13 -20 26 -36 31 -36 11 0 8 10 -14 46 -11 19 -18 38 -14 44 8 13 -5 12
-27 -1z"/>
<path d="M1442 2319 c-325 -42 -601 -286 -689 -609 -25 -91 -25 -328 0 -420
25 -90 98 -233 157 -307 106 -132 277 -241 445 -283 111 -28 290 -28 399 0
258 66 474 255 567 494 143 370 17 777 -305 990 -125 82 -212 115 -359 135
-87 12 -123 12 -215 0z m331 -44 c199 -57 350 -170 460 -341 154 -240 168
-551 37 -804 -83 -157 -199 -269 -365 -350 -124 -60 -212 -80 -352 -80 -180 0
-299 36 -448 135 -356 236 -463 719 -239 1086 71 118 203 239 329 302 56 28
168 64 242 77 83 15 239 4 336 -25z"/>
<path d="M1365 2251 c-334 -90 -563 -368 -582 -706 -12 -208 54 -396 193 -556
137 -157 321 -244 539 -256 368 -20 692 216 791 578 25 88 25 289 0 379 -67
249 -260 458 -504 543 -78 28 -101 31 -227 34 -113 2 -153 -1 -210 -16z m380
-16 c109 -28 235 -98 320 -177 92 -86 166 -190 190 -267 6 -19 4 -23 -8 -18
-24 9 -38 -16 -30 -53 l6 -33 -60 7 c-72 8 -89 -4 -79 -59 6 -33 5 -35 -31
-50 -20 -9 -67 -46 -103 -83 -37 -37 -80 -77 -97 -89 -26 -19 -33 -33 -43 -90
-18 -94 -44 -162 -92 -233 -31 -47 -42 -74 -48 -124 -8 -69 -44 -137 -82 -157
-19 -9 -21 -9 -10 2 6 7 12 21 12 32 0 10 12 39 26 63 21 35 24 48 15 57 -9 9
-11 8 -5 -7 5 -13 4 -17 -4 -12 -6 3 -14 1 -18 -5 -4 -8 -3 -9 4 -5 18 11 14
-5 -8 -39 -11 -16 -20 -40 -20 -52 0 -13 -4 -23 -10 -23 -13 0 -13 4 7 48 17
38 28 135 12 111 -5 -8 -9 -29 -9 -46 0 -49 -20 -40 -21 10 l-2 42 -7 -40 c-4
-22 -8 -30 -9 -17 0 12 -6 22 -12 22 -6 0 -8 -9 -4 -22 5 -21 5 -21 -10 2
l-16 25 7 -25 c4 -14 18 -47 31 -73 27 -54 24 -70 -8 -41 -32 29 -146 263
-154 317 -4 25 -18 60 -31 78 -43 59 -57 121 -52 233 3 75 9 110 23 133 23 40
14 63 -24 63 -39 0 -61 -31 -54 -75 4 -26 1 -36 -18 -49 -35 -24 -83 -20 -118
10 -38 31 -40 54 -7 54 33 0 81 42 73 63 -8 21 -35 21 -61 2 -30 -23 -45 -18
-63 20 -11 23 -26 38 -43 42 -14 3 -35 15 -47 26 -19 16 -27 18 -46 10 -18 -8
-27 -7 -45 7 l-22 18 42 84 c34 66 62 103 138 178 124 125 232 183 395 216 85
16 244 11 330 -11z m500 -485 c3 -5 1 -10 -4 -10 -6 0 -11 5 -11 10 0 6 2 10
4 10 3 0 8 -4 11 -10z m-1345 -30 c18 10 26 8 43 -8 12 -11 31 -22 42 -25 11
-3 2 -5 -21 -6 -22 0 -64 6 -93 15 -44 13 -51 18 -40 30 10 13 14 12 30 -2 14
-12 22 -13 39 -4z m1373 -4 c3 -8 -1 -17 -9 -20 -23 -9 -24 -8 -24 14 0 23 25
27 33 6z m-1376 -41 c31 -8 72 -12 89 -9 26 5 34 2 43 -15 10 -18 9 -21 -11
-22 -37 -2 -60 1 -105 12 -30 8 -51 8 -72 1 -29 -10 -31 -9 -31 12 0 41 6 42
87 21z m1403 -22 c0 -20 -85 -32 -142 -19 -63 14 -82 42 -22 33 22 -3 64 -1
94 6 55 13 69 9 70 -20z m-1275 -42 c33 1 70 8 82 15 28 18 33 17 33 -1 0 -14
-66 -38 -82 -29 -4 3 -18 -2 -30 -10 -28 -20 -71 -20 -131 -2 -25 7 -58 11
-72 8 -40 -7 -28 20 15 34 25 8 44 8 79 -3 25 -7 73 -13 106 -12z m1185 4 c25
0 56 3 70 5 45 9 28 -22 -20 -36 -84 -25 -150 -16 -150 22 0 22 3 24 28 17 15
-5 47 -8 72 -8z m-900 -9 c0 -8 -10 -18 -21 -21 -14 -5 -18 -10 -10 -14 13 -8
4 -41 -13 -53 -8 -6 -7 -11 2 -16 7 -5 10 -16 6 -25 -6 -18 -31 -20 -74 -8
-25 8 -24 8 12 23 38 17 54 45 43 78 -4 12 -1 27 5 35 16 19 50 19 50 1z
m-340 -42 c64 -2 77 -6 90 -25 l14 -22 -69 7 c-106 11 -137 11 -172 2 -31 -7
-33 -6 -33 17 0 31 14 38 60 30 19 -3 69 -7 110 -9z m1215 1 c39 0 82 4 98 9
25 7 27 6 27 -18 0 -33 -31 -41 -108 -31 -73 10 -118 10 -166 0 -30 -6 -37 -5
-31 4 15 25 69 51 90 43 11 -4 52 -7 90 -7z m-1235 -51 c35 -9 77 -13 95 -10
34 7 65 0 65 -14 0 -5 -24 -14 -52 -20 -44 -10 -64 -9 -115 4 -45 12 -68 13
-88 6 -39 -15 -57 -12 -53 7 2 9 21 22 43 29 22 6 41 12 42 13 1 1 29 -6 63
-15z m1217 0 c36 -10 70 -14 99 -9 36 5 44 3 44 -9 0 -9 -16 -20 -42 -27 -36
-10 -55 -9 -110 5 -37 10 -72 15 -78 11 -6 -3 -38 -13 -73 -21 l-62 -14 60 6
c33 4 78 6 100 5 22 0 77 -2 123 -3 78 -3 82 -4 82 -25 0 -21 -5 -23 -47 -22
-27 0 -66 6 -88 13 -32 10 -49 9 -85 -2 -46 -14 -145 -11 -161 5 -9 9 53 81
67 76 7 -2 83 15 112 26 2 0 29 -6 59 -15z m-1153 -63 c23 0 57 6 76 13 28 10
43 10 79 -1 24 -7 57 -13 73 -13 22 0 28 -5 28 -21 0 -18 -4 -20 -32 -13 -18
3 -42 10 -52 14 -11 4 -40 1 -65 -7 -56 -16 -96 -17 -152 0 -35 10 -52 11 -84
1 -64 -20 -87 -18 -83 8 5 32 69 48 127 31 24 -7 63 -13 85 -12z m-32 -46 c55
-12 71 -12 123 0 76 18 165 3 165 -29 0 -17 -5 -18 -42 -11 -54 9 -87 9 -165
0 -42 -5 -78 -4 -108 5 -36 10 -54 10 -91 0 -38 -11 -47 -11 -54 1 -5 7 -7 15
-6 17 3 3 89 27 108 31 4 0 35 -6 70 -14z m988 -4 c34 -8 62 -7 108 4 55 13
69 13 119 0 32 -9 70 -13 86 -9 28 6 33 -1 18 -25 -7 -11 -24 -12 -77 -6 -84
9 -112 9 -188 -1 -37 -4 -78 -2 -112 6 -43 10 -57 11 -67 1 -9 -9 -7 -11 8 -9
11 1 46 -4 78 -11 51 -13 67 -13 120 0 53 13 70 13 112 2 28 -7 66 -13 87 -13
31 0 35 -3 31 -20 -6 -24 -15 -24 -78 -6 -42 13 -54 13 -111 -2 -59 -15 -69
-15 -125 -1 -49 13 -69 14 -99 5 -21 -6 -42 -15 -47 -20 -4 -5 5 -5 22 0 33 9
71 9 161 -1 40 -5 75 -3 99 5 49 16 167 -5 163 -29 -3 -11 -14 -15 -38 -14
-97 6 -129 6 -178 -2 -36 -5 -71 -4 -108 5 -44 11 -62 11 -96 0 -24 -7 -37
-15 -30 -17 7 -3 26 0 42 6 23 8 46 6 96 -6 60 -15 69 -15 125 1 55 15 64 15
114 0 30 -8 55 -19 55 -23 0 -16 -13 -19 -38 -10 -18 7 -45 5 -92 -5 -57 -13
-73 -13 -125 -1 -53 13 -68 12 -128 -2 -37 -9 -70 -14 -72 -11 -6 6 22 136 37
179 10 29 44 50 68 44 8 -3 35 -9 60 -14z m-983 -54 c41 -9 62 -8 107 5 51 14
61 14 118 -1 34 -9 63 -22 66 -29 4 -14 -26 -16 -60 -3 -16 6 -44 3 -86 -7
-58 -15 -67 -15 -126 0 -57 15 -69 15 -111 2 -63 -18 -72 -18 -78 6 -4 16 3
22 42 34 25 7 53 12 61 9 8 -3 38 -10 67 -16z m61 -53 c31 -4 70 -1 96 6 58
16 142 -3 150 -33 4 -18 1 -19 -37 -11 -23 5 -64 7 -92 5 -47 -3 -108 -3 -227
-1 -29 1 -64 0 -78 -2 -16 -2 -25 2 -28 13 -3 19 74 39 128 33 19 -2 59 -7 88
-10z m-32 -55 c41 -9 62 -8 105 4 49 15 59 15 119 0 73 -18 113 -43 69 -43
-14 0 -40 5 -57 11 -24 8 -46 7 -94 -5 -56 -14 -70 -14 -125 -1 -54 13 -70 13
-115 1 -53 -13 -67 -9 -68 20 0 13 68 33 95 28 11 -3 43 -9 71 -15z m131 -50
c70 15 63 15 141 -1 48 -10 62 -17 62 -30 0 -23 -38 -24 -104 -4 -41 13 -53
13 -88 0 -51 -18 -92 -18 -152 0 -35 11 -55 12 -77 4 -30 -10 -59 -5 -59 10 0
5 24 15 53 23 45 12 60 12 109 -1 48 -12 66 -12 115 -1z m918 -9 c18 0 52 6
76 13 52 16 102 5 97 -22 -2 -9 -12 -15 -23 -13 -40 5 -51 4 -108 -9 -50 -12
-66 -11 -119 3 -54 14 -67 14 -101 2 -22 -8 -56 -14 -76 -14 -26 0 -32 -3 -21
-9 14 -10 52 -6 106 10 21 7 50 5 92 -5 62 -14 71 -14 148 6 48 11 86 4 78
-16 -9 -23 -88 -39 -151 -31 -32 4 -76 6 -98 6 -22 -1 -77 -3 -122 -4 -44 -1
-79 -5 -77 -9 10 -16 94 -19 148 -5 50 12 63 12 112 -1 44 -13 66 -13 107 -5
29 6 54 9 55 8 2 -2 -5 -12 -16 -23 -29 -29 -99 -37 -163 -19 -48 15 -58 14
-110 0 -50 -14 -66 -14 -118 -3 -63 13 -71 20 -48 38 7 6 23 33 36 60 21 44
25 48 54 44 18 -1 52 3 77 11 37 11 52 11 89 0 24 -7 58 -13 76 -13z m-1043
-44 c58 -14 67 -14 143 5 30 8 55 6 100 -5 32 -9 67 -13 77 -10 14 4 18 0 18
-17 0 -20 -3 -21 -42 -14 -52 9 -94 9 -170 0 -34 -5 -76 -3 -106 5 -36 8 -60
9 -88 1 -29 -8 -40 -8 -45 2 -13 23 -10 32 13 39 33 9 37 9 100 -6z m55 -59
c41 -9 62 -8 106 5 50 14 61 13 124 -2 45 -12 69 -23 71 -34 4 -21 -37 -21
-103 -1 -43 13 -55 12 -107 -2 -51 -14 -65 -15 -115 -2 -32 7 -71 14 -87 14
-16 0 -31 5 -33 12 -5 14 54 34 77 26 8 -2 38 -10 67 -16z m778 -52 c33 4 83
6 110 5 28 -1 78 -2 113 -3 34 -1 62 -5 62 -8 0 -3 -9 -14 -20 -24 -19 -17
-25 -17 -71 -6 -40 11 -62 11 -114 0 -52 -10 -77 -10 -133 1 -54 10 -73 10
-88 1 -17 -11 -17 -12 6 -7 14 3 54 -1 90 -10 60 -14 72 -14 125 0 47 12 67
13 102 3 47 -12 51 -18 27 -38 -12 -10 -24 -10 -64 0 -39 10 -57 10 -86 1 -35
-12 -128 -9 -186 6 -16 3 -28 2 -28 -3 0 -5 6 -10 13 -10 6 -1 38 -7 70 -14
49 -11 67 -11 115 2 45 11 66 12 97 4 29 -9 35 -14 24 -21 -8 -5 -23 -10 -34
-10 -11 -1 -45 -8 -77 -15 -48 -11 -64 -11 -114 3 -49 14 -63 14 -88 4 l-31
-13 45 0 c25 0 75 -4 111 -8 45 -5 78 -3 103 5 53 17 54 7 2 -24 -49 -28 -92
-32 -158 -15 -35 10 -53 9 -96 -3 -28 -9 -52 -14 -52 -12 0 3 12 22 26 43 17
26 27 59 31 97 9 89 14 95 65 77 31 -11 60 -13 103 -8z m-750 2 c33 0 83 2
110 3 111 5 194 -13 195 -42 0 -12 -63 -9 -100 3 -25 9 -49 9 -101 -1 -96 -18
-235 4 -247 40 -4 10 5 11 39 5 24 -5 71 -8 104 -8z m-4 -58 c37 -8 60 -7 107
5 46 12 67 14 89 5 15 -6 50 -12 78 -14 27 -2 51 -8 53 -14 6 -17 -44 -24
-111 -17 -77 9 -104 9 -190 0 -62 -6 -70 -4 -93 17 -30 28 -31 43 -1 35 12 -4
43 -11 68 -17z m287 -53 c44 9 51 8 61 -8 10 -16 7 -20 -14 -28 -36 -14 -84
-12 -138 4 -40 12 -53 12 -101 -2 -51 -14 -57 -14 -83 3 l-27 18 63 13 c35 7
65 15 67 17 2 2 31 -3 63 -12 46 -12 71 -13 109 -5z m156 -32 c3 -8 2 -12 -4
-9 -6 3 -10 10 -10 16 0 14 7 11 14 -7z m-154 -19 c67 0 85 -3 85 -14 0 -22
-62 -34 -130 -26 -33 3 -82 7 -110 9 -27 1 -57 6 -65 11 -23 14 56 36 100 28
19 -4 73 -7 120 -8z m-63 -56 c49 -10 67 -9 112 4 53 15 54 15 72 -6 20 -25
14 -31 -44 -41 -53 -10 -243 36 -231 55 3 6 12 8 20 5 7 -3 39 -10 71 -17z
m471 4 c17 -3 32 -9 32 -12 0 -4 -36 -15 -79 -25 -65 -14 -86 -15 -122 -6 -39
11 -41 13 -24 23 11 6 32 12 46 14 14 1 37 7 50 12 13 6 33 8 44 5 11 -3 35
-7 53 -11z m-199 -49 c17 -4 28 -10 25 -15 -7 -12 -134 -12 -134 0 0 17 57 25
109 15z"/>
<path d="M1538 2155 c2 -14 6 -25 8 -25 2 0 4 11 4 25 0 14 -4 25 -9 25 -4 0
-6 -11 -3 -25z"/>
<path d="M1607 2167 c-3 -8 -1 -20 4 -28 6 -10 9 -7 9 14 0 29 -5 35 -13 14z"/>
<path d="M1640 2165 c0 -8 8 -15 18 -15 14 0 14 2 3 9 -11 7 -10 10 5 14 16 4
16 5 -3 6 -14 1 -23 -5 -23 -14z"/>
<path d="M1389 2143 c6 -12 16 -25 21 -28 17 -11 11 5 -11 28 l-21 22 11 -22z"/>
<path d="M1337 2143 c-13 -12 -7 -35 7 -30 7 3 18 1 24 -5 6 -6 8 -1 5 16 -5
25 -22 34 -36 19z m23 -7 c0 -3 -4 -8 -10 -11 -5 -3 -10 -1 -10 4 0 6 5 11 10
11 6 0 10 -2 10 -4z"/>
<path d="M1710 2131 c0 -10 19 -25 25 -20 1 2 -3 10 -11 17 -8 7 -14 8 -14 3z"/>
<path d="M1458 2123 c6 -2 18 -2 25 0 6 3 1 5 -13 5 -14 0 -19 -2 -12 -5z"/>
<path d="M1648 2123 c7 -3 16 -2 19 1 4 3 -2 6 -13 5 -11 0 -14 -3 -6 -6z"/>
<path d="M1764 2117 c-4 -7 -4 -9 1 -5 4 4 14 3 22 -3 8 -7 13 -8 13 -1 0 15
-28 23 -36 9z"/>
<path d="M1826 2114 c-9 -23 -7 -31 4 -14 8 13 10 12 10 -2 0 -10 4 -18 9 -18
11 0 24 31 16 38 -3 3 -5 -1 -5 -9 -1 -10 -4 -9 -14 4 -12 16 -14 16 -20 1z"/>
<path d="M1279 2099 c4 -13 13 -24 20 -25 6 -1 7 0 1 3 -5 2 -10 11 -10 18 0
8 -4 17 -10 20 -6 4 -7 -2 -1 -16z"/>
<path d="M1880 2089 c-7 -11 -9 -23 -7 -26 3 -2 8 5 12 17 4 13 12 19 21 16 9
-3 12 -1 9 4 -10 16 -23 12 -35 -11z"/>
<path d="M1517 2067 c-3 -8 -1 -20 4 -28 6 -10 9 -7 9 14 0 29 -5 35 -13 14z"/>
<path d="M1631 2064 c0 -11 3 -14 6 -6 3 7 2 16 -1 19 -3 4 -6 -2 -5 -13z"/>
<path d="M1662 2050 c0 -19 2 -27 5 -17 2 9 2 25 0 35 -3 9 -5 1 -5 -18z"/>
<path d="M1902 2064 c-7 -8 -8 -14 -3 -14 10 0 25 19 20 25 -2 1 -10 -3 -17
-11z"/>
<path d="M1438 2063 c7 -3 16 -2 19 1 4 3 -2 6 -13 5 -11 0 -14 -3 -6 -6z"/>
<path d="M1691 2054 c0 -11 3 -14 6 -6 3 7 2 16 -1 19 -3 4 -6 -2 -5 -13z"/>
<path d="M1491 2044 c0 -11 3 -14 6 -6 3 7 2 16 -1 19 -3 4 -6 -2 -5 -13z"/>
<path d="M1558 2053 c7 -3 16 -2 19 1 4 3 -2 6 -13 5 -11 0 -14 -3 -6 -6z"/>
<path d="M1717 2040 c-3 -11 -1 -20 4 -20 5 0 9 9 9 20 0 11 -2 20 -4 20 -2 0
-6 -9 -9 -20z"/>
<path d="M1750 2053 c0 -6 -3 -20 -7 -30 -7 -17 -6 -17 11 0 14 14 16 21 7 30
-8 8 -11 8 -11 0z"/>
<path d="M1351 2034 c0 -11 3 -14 6 -6 3 7 2 16 -1 19 -3 4 -6 -2 -5 -13z"/>
<path d="M1385 2025 c0 -13 3 -21 8 -18 4 2 7 10 7 18 0 8 -3 16 -7 18 -5 3
-8 -5 -8 -18z"/>
<path d="M1451 2034 c0 -11 3 -14 6 -6 3 7 2 16 -1 19 -3 4 -6 -2 -5 -13z"/>
<path d="M1300 2030 c-8 -5 -10 -10 -5 -10 6 0 17 5 25 10 8 5 11 10 5 10 -5
0 -17 -5 -25 -10z"/>
<path d="M1806 2023 c-4 -9 0 -23 8 -31 15 -15 36 -9 36 11 0 7 -4 6 -10 -3
-7 -11 -12 -12 -21 -3 -14 14 -2 36 18 29 8 -3 11 -1 8 4 -10 16 -32 12 -39
-7z"/>
<path d="M1775 2019 c-4 -6 -5 -12 -2 -15 2 -3 7 2 10 11 7 17 1 20 -8 4z"/>
<path d="M1870 1999 c-7 -11 -9 -23 -6 -27 3 -3 6 1 6 9 1 10 4 9 14 -4 14
-18 15 -17 21 3 4 12 4 24 1 27 -3 4 -6 1 -6 -5 0 -7 -5 -12 -11 -12 -6 0 -9
7 -5 15 8 22 -2 18 -14 -6z"/>
<path d="M1246 2002 c-2 -4 2 -18 9 -32 13 -24 14 -24 12 -2 -1 12 -5 22 -10
22 -4 0 -5 5 -2 10 3 6 4 10 1 10 -3 0 -7 -3 -10 -8z"/>
<path d="M1303 2000 c2 -8 12 -16 23 -17 13 -2 15 -1 4 4 -8 3 -19 11 -23 17
-6 7 -7 6 -4 -4z"/>
<path d="M1203 1982 c-8 -5 -8 -13 1 -31 13 -23 13 -23 19 -2 3 13 1 19 -6 14
-6 -4 -8 0 -4 10 7 19 7 20 -10 9z"/>
<path d="M1928 1967 c-5 -27 -5 -27 13 -11 20 18 25 29 10 20 -5 -4 -11 0 -13
6 -3 7 -7 0 -10 -15z"/>
<path d="M1103 1916 c-23 -6 -45 -14 -49 -18 -10 -11 24 -10 62 1 26 7 37 4
77 -26 43 -32 57 -59 41 -76 -4 -3 -34 8 -67 24 -56 29 -63 30 -104 19 -40
-12 -61 -26 -51 -35 2 -2 24 3 48 12 l45 16 223 -119 c148 -79 221 -122 218
-131 -8 -21 5 -43 35 -58 41 -22 72 -18 99 10 13 14 28 25 34 25 6 0 -2 -12
-18 -26 -15 -14 -27 -26 -25 -27 2 -1 14 -7 25 -14 19 -10 25 -8 50 18 15 16
42 32 61 35 52 10 38 21 -20 16 -59 -5 -96 9 -136 51 -18 21 -28 24 -46 17
-19 -7 -24 -5 -28 12 -15 55 25 114 92 137 18 6 83 15 142 21 105 10 194 34
234 64 16 12 17 16 6 30 -11 13 -16 13 -35 1 -42 -28 -109 -45 -214 -55 -124
-12 -190 -31 -222 -65 -21 -23 -31 -25 -103 -25 l-79 0 -116 83 c-64 46 -121
86 -127 89 -5 3 -29 0 -52 -6z m235 -145 c77 -55 64 -72 -22 -29 -34 17 -62
31 -63 32 -5 4 10 47 16 44 3 -2 34 -23 69 -47z m140 -38 c-10 -2 -28 -2 -40
0 -13 2 -5 4 17 4 22 1 32 -1 23 -4z m55 -51 l-8 -22 -33 23 c-17 12 -32 25
-32 29 0 11 75 14 78 2 1 -5 -1 -20 -5 -32z m-67 -4 c24 -17 44 -33 44 -35 0
-7 -109 52 -110 60 0 15 23 6 66 -25z m182 -119 c-2 -6 -8 -10 -13 -10 -5 0
-11 4 -13 10 -2 6 4 11 13 11 9 0 15 -5 13 -11z"/>
<path d="M1504 1519 c-11 -18 11 -30 44 -23 26 5 30 9 21 20 -14 17 -55 18
-65 3z"/>
<path d="M2085 2270 c-27 -39 -27 -41 -9 -54 10 -8 23 -12 28 -9 5 3 1 10 -8
15 -22 12 -10 31 15 23 10 -4 19 -2 19 3 0 6 -5 12 -12 14 -6 2 -8 10 -4 17 6
9 11 9 22 0 17 -14 19 2 2 19 -18 18 -23 15 -53 -28z"/>
<path d="M970 2295 c0 -14 54 -84 61 -79 10 6 -39 84 -52 84 -5 0 -9 -2 -9 -5z"/>
<path d="M922 2261 c-25 -16 -9 -46 26 -49 17 -2 32 -8 32 -14 0 -5 -7 -8 -15
-4 -17 6 -21 -9 -4 -20 16 -9 43 21 36 40 -4 10 -18 16 -37 16 -16 0 -30 5
-30 10 0 6 7 10 16 10 8 0 12 5 9 10 -7 12 -16 12 -33 1z"/>
<path d="M857 2202 c-16 -17 -15 -20 16 -50 35 -34 61 -45 33 -13 -20 23 -4
40 20 20 28 -23 23 -3 -7 29 -35 37 -40 38 -62 14z m38 -11 c7 -12 -12 -24
-25 -16 -11 7 -4 25 10 25 5 0 11 -4 15 -9z"/>
<path d="M2223 2208 c2 -7 -9 -27 -25 -44 -16 -18 -26 -34 -20 -38 5 -3 21 8
37 24 15 15 34 26 41 23 20 -7 17 11 -4 30 -22 20 -36 22 -29 5z"/>
<path d="M2106 2184 c-4 -10 -1 -14 6 -12 15 5 23 28 10 28 -5 0 -13 -7 -16
-16z"/>
<path d="M806 2141 c-16 -18 -15 -20 22 -50 38 -30 40 -30 56 -12 11 13 14 21
7 26 -6 3 -11 1 -11 -4 0 -6 -7 -11 -16 -11 -12 0 -15 6 -11 20 4 17 2 20 -15
14 -17 -5 -19 -3 -13 15 8 26 3 27 -19 2z"/>
<path d="M2241 2129 l-33 -31 21 -21 22 -22 -6 28 c-8 29 3 35 24 15 11 -11
13 -9 8 9 -5 24 7 40 18 23 3 -5 11 -10 17 -10 6 0 3 9 -7 20 -23 25 -23 25
-64 -11z"/>
<path d="M767 2103 c-4 -4 5 -20 20 -36 l28 -29 -32 16 c-37 19 -46 20 -41 5
5 -15 87 -49 93 -38 3 5 -8 27 -26 49 -36 45 -33 42 -42 33z"/>
<path d="M2298 2083 c-33 -21 -42 -41 -27 -59 13 -16 39 -19 39 -4 0 6 -7 10
-15 10 -23 0 -18 16 10 34 30 20 35 20 35 1 0 -8 5 -15 10 -15 14 0 13 23 -2
38 -15 15 -17 15 -50 -5z"/>
<path d="M720 2031 c0 -14 79 -66 87 -57 7 6 -12 23 -59 51 -16 9 -28 12 -28
6z"/>
<path d="M2337 2014 c-39 -26 -45 -44 -9 -25 29 15 35 -9 8 -31 -31 -25 -2
-22 39 5 38 24 46 42 16 32 -23 -7 -39 13 -17 21 16 6 22 24 8 24 -4 0 -25
-12 -45 -26z"/>
<path d="M700 1992 c0 -5 10 -14 23 -20 20 -11 20 -12 -12 -9 -18 1 -33 -2
-33 -7 0 -14 74 -56 85 -49 6 3 -2 12 -17 20 -35 18 -33 23 9 16 46 -7 44 7
-5 35 -43 24 -50 26 -50 14z"/>
<path d="M2375 1938 c-22 -12 -35 -23 -28 -25 7 -2 22 1 35 8 l23 12 -24 -27
c-14 -14 -21 -29 -18 -33 8 -8 87 27 87 39 0 11 -7 10 -32 -3 -20 -11 -20 -10
-4 12 31 44 21 49 -39 17z"/>
<path d="M650 1915 c0 -2 18 -14 40 -25 50 -25 44 -46 -7 -25 -42 18 -43 18
-43 6 0 -5 19 -16 42 -26 40 -16 43 -16 55 1 7 10 12 23 10 29 -6 18 -97 57
-97 40z"/>
<path d="M2417 1863 c-29 -12 -37 -20 -35 -37 4 -26 30 -32 69 -16 20 9 29 19
29 35 0 31 -18 36 -63 18z m45 -18 c0 -5 -14 -15 -31 -22 -26 -11 -31 -11 -31
0 0 8 10 19 23 25 25 12 38 11 39 -3z"/>
<path d="M610 1785 c0 -7 8 -19 18 -24 14 -9 13 -10 -10 -11 -42 0 -35 -27 10
-39 52 -15 73 -12 37 4 l-30 14 35 1 c37 1 36 2 -17 37 -15 11 -13 11 10 3 35
-12 47 -13 47 -1 0 5 -20 14 -44 20 -56 14 -56 14 -56 -4z"/>
<path d="M2449 1783 c-41 -12 -46 -16 -41 -38 5 -30 22 -33 22 -5 0 15 9 22
30 27 27 5 48 20 39 27 -2 1 -25 -3 -50 -11z"/>
<path d="M2450 1717 c-14 -7 -25 -21 -25 -32 0 -16 8 -21 35 -23 46 -4 79 20
64 45 -14 23 -42 27 -74 10z m60 -17 c0 -11 -12 -17 -44 -22 -25 -4 -33 19 -9
25 33 8 53 7 53 -3z"/>
<path d="M580 1671 c-15 -29 13 -53 59 -49 29 2 37 8 39 25 6 40 -78 60 -98
24z m64 -7 c9 -3 16 -10 16 -16 0 -14 -63 -5 -68 10 -4 13 25 16 52 6z"/>
<path d="M2448 1628 c-25 -19 -13 -58 18 -58 18 0 24 5 23 23 0 12 -3 16 -6
10 -2 -7 -11 -13 -20 -13 -29 0 -6 25 26 28 30 3 32 1 26 -18 -5 -16 -3 -21 6
-18 8 3 14 16 14 29 0 20 -5 24 -35 27 -19 2 -43 -3 -52 -10z"/>
<path d="M570 1578 c0 -23 3 -29 9 -19 7 10 20 12 50 7 23 -3 41 -2 41 3 0 4
-18 11 -40 15 -22 3 -40 11 -40 16 0 6 -4 10 -10 10 -5 0 -10 -15 -10 -32z"/>
<path d="M2510 1550 c-8 -5 -27 -10 -42 -10 -45 0 -32 -14 24 -28 50 -11 86
-7 39 5 l-24 6 24 18 c26 20 7 27 -21 9z"/>
<path d="M567 1533 c-11 -10 -8 -53 3 -53 6 0 10 5 10 10 0 6 21 10 48 11 l47
1 -45 10 c-25 6 -48 14 -51 19 -3 5 -8 6 -12 2z"/>
<path d="M571 1447 c-14 -18 -5 -44 17 -51 10 -3 31 -2 47 2 23 7 30 14 30 33
0 21 -5 24 -41 27 -26 2 -45 -2 -53 -11z m79 -17 c0 -12 -45 -24 -59 -15 -22
13 -10 25 24 25 19 0 35 -4 35 -10z"/>
<path d="M2453 1437 c16 -13 16 -16 2 -30 -8 -9 -15 -18 -15 -20 0 -4 32 -1
78 9 45 9 17 34 -56 50 -25 5 -26 4 -9 -9z m54 -23 c-3 -3 -12 -4 -19 -1 -8 3
-5 6 6 6 11 1 17 -2 13 -5z"/>
<path d="M608 1373 c-23 -4 -28 -9 -28 -34 0 -29 1 -29 43 -23 51 8 61 16 52
43 -6 21 -13 22 -67 14z m52 -23 c0 -5 -7 -10 -15 -10 -8 0 -15 5 -15 10 0 6
7 10 15 10 8 0 15 -4 15 -10z m-45 -10 c-3 -5 -10 -10 -16 -10 -5 0 -9 5 -9
10 0 6 7 10 16 10 8 0 12 -4 9 -10z"/>
<path d="M2434 1361 c4 -6 19 -11 34 -12 26 -1 26 -1 -5 -11 -38 -13 -42 -26
-10 -32 61 -14 90 -9 52 9 -26 12 -27 13 -8 14 20 1 40 17 32 26 -2 2 -26 6
-53 10 -35 6 -47 5 -42 -4z"/>
<path d="M633 1297 c-47 -11 -61 -33 -15 -23 l27 6 -22 -16 c-13 -9 -23 -21
-23 -26 0 -12 81 0 95 14 7 7 -1 9 -25 4 l-35 -6 28 21 c15 11 27 25 27 30 0
10 0 10 -57 -4z"/>
<path d="M2415 1270 c-9 -29 13 -51 55 -53 25 -2 34 3 41 21 7 19 5 24 -17 32
-59 23 -72 23 -79 0z m78 -20 c14 -12 -10 -21 -38 -14 -14 3 -25 13 -25 20 0
11 7 13 28 8 15 -4 31 -10 35 -14z"/>
<path d="M653 1217 c-36 -14 -53 -27 -33 -27 24 0 90 23 90 32 0 11 -18 9 -57
-5z"/>
<path d="M683 1183 c-15 -6 -17 -33 -3 -33 6 0 10 5 10 10 0 6 7 10 15 10 21
0 19 -17 -4 -30 -28 -14 -52 -12 -49 4 2 8 -1 16 -7 18 -17 5 -18 -42 -1 -48
21 -8 61 3 80 22 13 12 13 19 3 34 -12 20 -21 23 -44 13z"/>
<path d="M2375 1160 c-12 -39 13 -48 68 -25 10 4 17 3 17 -4 0 -6 -8 -11 -17
-11 -14 0 -15 -2 -4 -12 10 -11 15 -9 27 7 12 17 12 21 -1 34 -13 13 -19 13
-35 3 -24 -15 -40 -16 -40 -2 0 6 7 10 16 10 8 0 12 5 9 10 -10 17 -33 11 -40
-10z"/>
<path d="M718 1109 c-10 -5 -15 -16 -11 -25 5 -15 7 -15 15 0 10 18 28 21 28
5 0 -16 -31 -38 -53 -39 -14 0 -17 5 -12 23 6 17 4 19 -5 11 -18 -17 -8 -49
16 -52 12 -2 34 8 50 22 24 20 27 28 18 42 -13 23 -25 26 -46 13z"/>
<path d="M2344 1095 c-4 -8 -4 -22 0 -30 6 -17 26 -21 26 -5 0 6 -5 10 -12 10
-8 0 -9 3 -2 10 14 14 64 -8 64 -27 0 -8 -4 -12 -9 -8 -5 3 -13 0 -16 -6 -5
-7 1 -9 16 -7 37 5 35 35 -3 58 -39 24 -57 25 -64 5z"/>
<path d="M748 1030 c-38 -20 -57 -40 -39 -40 16 0 81 41 81 51 0 11 2 12 -42
-11z"/>
<path d="M2316 1042 c-6 -10 64 -52 85 -52 16 0 5 10 -43 39 -20 12 -39 18
-42 13z"/>
<path d="M767 994 c-39 -26 -53 -53 -18 -34 25 13 42 -8 17 -22 -9 -5 -14 -13
-11 -19 4 -5 23 3 43 18 20 15 39 28 41 30 13 9 -11 13 -27 4 -26 -14 -36 -2
-15 21 26 29 10 30 -30 2z"/>
<path d="M2286 995 c-17 -25 -9 -34 11 -14 17 17 37 1 22 -17 -7 -9 -8 -14 -1
-14 6 0 14 5 17 10 12 19 25 0 15 -21 -7 -12 -7 -19 -1 -19 10 0 36 39 29 44
-2 1 -19 15 -39 29 l-36 27 -17 -25z"/>
<path d="M2260 952 c0 -5 10 -17 23 -26 l22 -17 -25 7 c-14 4 -31 9 -37 11
-26 10 -12 -16 24 -46 40 -33 57 -34 28 -1 -18 20 -18 20 13 14 39 -8 41 6 5
32 -43 31 -53 36 -53 26z"/>
<path d="M831 886 c-34 -35 -29 -56 9 -36 11 6 25 8 30 5 5 -3 14 3 19 14 17
31 13 35 -15 16 -14 -9 -28 -14 -31 -12 -2 3 5 10 16 17 12 6 21 15 21 20 0
18 -16 10 -49 -24z"/>
<path d="M2184 875 c-6 -16 2 -35 16 -35 4 0 6 10 3 21 -6 21 -5 21 20 5 35
-24 41 -44 14 -49 -20 -3 -20 -4 -4 -12 12 -5 24 -3 33 7 14 13 12 19 -11 46
-28 34 -62 42 -71 17z"/>
<path d="M895 850 c-13 -14 -21 -17 -26 -9 -5 8 -10 5 -18 -9 -20 -38 9 -37
47 2 20 20 32 36 26 36 -6 0 -19 -9 -29 -20z"/>
<path d="M912 805 c-27 -56 -14 -65 38 -28 45 32 50 44 18 40 -17 -1 -22 3
-20 16 5 32 -14 17 -36 -28z"/>
<path d="M2131 826 c-8 -9 -8 -16 -2 -20 5 -4 12 -2 16 4 11 18 26 -1 19 -23
-6 -19 -5 -20 8 -10 19 16 32 5 16 -14 -15 -18 -2 -29 17 -13 20 17 19 23 -11
59 -28 34 -45 38 -63 17z"/>
<path d="M990 785 c-7 -9 -9 -26 -5 -45 4 -19 3 -30 -4 -30 -6 0 -11 7 -11 15
0 8 -4 15 -10 15 -17 0 -11 -29 9 -39 27 -15 43 8 35 48 -4 20 -3 31 5 31 6 0
11 -9 11 -21 0 -11 5 -17 10 -14 16 10 11 34 -9 44 -14 8 -22 7 -31 -4z"/>
<path d="M2084 786 c-25 -19 -8 -50 30 -54 14 -2 26 -8 26 -14 0 -5 -7 -8 -15
-4 -8 3 -15 1 -15 -5 0 -6 10 -9 23 -7 34 5 29 42 -7 48 -16 3 -31 11 -34 19
-3 10 2 11 19 6 21 -7 22 -6 10 9 -16 19 -13 19 -37 2z"/>
<path d="M1110 685 c-11 -13 -11 -19 3 -32 21 -21 49 -9 45 19 -4 28 -30 35
-48 13z"/>
<path d="M1962 691 c-20 -12 -10 -46 14 -49 25 -4 40 24 23 44 -13 16 -19 17
-37 5z"/>
<path d="M1251 629 c-13 -22 -20 -43 -16 -47 4 -4 10 -1 12 6 7 19 20 14 28
-10 l7 -23 8 25 c13 41 12 90 -3 90 -7 0 -24 -18 -36 -41z m29 -4 c0 -8 -4
-15 -10 -15 -5 0 -7 7 -4 15 4 8 8 15 10 15 2 0 4 -7 4 -15z"/>
<path d="M1828 663 c-21 -5 -21 -3 -7 -59 12 -46 18 -51 50 -33 16 8 19 16 13
42 -6 33 -22 58 -33 56 -3 -1 -14 -3 -23 -6z m33 -40 c6 -16 6 -30 1 -35 -6
-6 -14 3 -21 23 -13 39 -13 39 -1 39 6 0 15 -12 21 -27z"/>
<path d="M1321 623 c-15 -51 -14 -60 5 -67 21 -8 33 2 16 13 -9 5 -9 16 -2 41
12 43 12 50 0 50 -5 0 -14 -17 -19 -37z"/>
<path d="M1387 643 c-3 -5 -8 -27 -12 -49 -5 -34 -3 -43 11 -48 9 -4 20 -3 23
0 3 4 1 9 -6 11 -9 3 -11 18 -6 49 5 40 1 56 -10 37z"/>
<path d="M1750 593 c1 -53 2 -56 15 -39 11 15 17 16 28 8 24 -21 26 -1 4 44
-30 63 -47 58 -47 -13z m27 -5 c-3 -8 -6 -5 -6 6 -1 11 2 17 5 13 3 -3 4 -12
1 -19z"/>
<path d="M1446 594 c-16 -47 -13 -71 5 -44 8 13 12 12 25 -5 14 -19 15 -16 12
34 -2 30 -8 56 -14 58 -7 2 -19 -17 -28 -43z m21 -16 c-3 -8 -6 -5 -6 6 -1 11
2 17 5 13 3 -3 4 -12 1 -19z"/>
<path d="M1666 631 c-7 -11 8 -97 17 -93 4 1 16 2 27 2 19 0 21 16 11 93 -1
10 -49 9 -55 -2z m39 -21 c3 -5 2 -10 -4 -10 -5 0 -13 5 -16 10 -3 6 -2 10 4
10 5 0 13 -4 16 -10z m5 -45 c0 -8 -4 -15 -10 -15 -5 0 -10 7 -10 15 0 8 5 15
10 15 6 0 10 -7 10 -15z"/>
<path d="M1510 580 c0 -27 5 -50 10 -50 6 0 10 9 10 19 0 11 5 23 10 26 6 4
10 -5 10 -19 0 -14 5 -26 10 -26 6 0 10 15 10 34 0 19 3 41 6 50 3 9 2 16 -4
16 -5 0 -12 -9 -15 -20 -3 -11 -10 -20 -16 -20 -6 0 -11 9 -11 20 0 11 -4 20
-10 20 -5 0 -10 -22 -10 -50z"/>
<path d="M1607 613 c-15 -52 -18 -83 -8 -83 6 0 11 5 11 10 0 14 28 12 33 -2
2 -7 7 -11 10 -8 9 8 -18 93 -31 98 -5 1 -13 -5 -15 -15z m23 -28 c0 -8 -4
-15 -10 -15 -5 0 -7 7 -4 15 4 8 8 15 10 15 2 0 4 -7 4 -15z"/>
<path d="M303 1168 c-3 -7 -1 -8 5 -4 9 5 12 -7 12 -40 0 -52 7 -52 25 -1 10
30 9 34 -12 44 -16 8 -25 8 -30 1z"/>
<path d="M2771 1161 c-9 -6 -11 -18 -6 -42 5 -19 10 -28 12 -21 3 6 9 9 15 6
7 -5 7 -1 1 11 -6 10 -8 26 -6 36 6 21 4 22 -16 10z"/>
<path d="M120 1152 c0 -10 90 -92 90 -83 0 3 7 -3 15 -13 8 -11 15 -16 15 -11
0 12 85 -78 93 -98 4 -10 10 -17 15 -17 12 0 -9 81 -25 98 -7 7 -13 18 -13 24
0 5 -6 8 -14 5 -13 -5 -21 2 -69 66 -24 32 -34 37 -68 37 -21 0 -39 -4 -39 -8z"/>
<path d="M2871 1106 c-36 -48 -77 -90 -57 -58 4 7 4 12 -1 12 -11 -1 -46 -50
-39 -57 3 -3 -4 -23 -15 -44 -20 -40 -9 -56 12 -17 6 12 20 31 30 42 11 11 19
23 19 28 0 4 6 8 14 8 8 0 17 7 20 16 4 9 9 14 12 11 3 -2 15 5 28 17 12 11
39 34 59 49 21 15 37 32 37 37 0 6 -18 10 -40 10 -36 0 -43 -4 -79 -54z"/>
<path d="M462 1093 c-6 -3 -10 -9 -6 -14 3 -5 2 -15 -3 -21 -4 -7 -8 -42 -9
-78 -3 -67 5 -88 60 -182 15 -26 26 -53 24 -60 -6 -17 -86 87 -111 142 -11 25
-22 39 -24 32 -3 -6 -9 -10 -14 -6 -5 3 -9 1 -9 -5 0 -5 5 -13 11 -16 6 -5 4
-11 -7 -19 -16 -12 -15 -14 8 -19 25 -7 158 -140 158 -158 0 -17 -58 20 -121
76 -63 56 -241 155 -247 136 -5 -15 53 -123 80 -148 38 -35 107 -60 202 -73
49 -6 103 -19 120 -28 l31 -16 -97 -9 c-83 -7 -102 -5 -130 9 -18 9 -64 19
-103 22 l-70 5 53 -61 c61 -70 127 -108 173 -98 16 3 61 28 101 56 89 62 107
65 76 10 -17 -30 -32 -43 -59 -50 -53 -15 -74 -43 -73 -98 1 -38 6 -50 33 -74
35 -31 54 -34 92 -14 24 12 27 11 58 -26 34 -40 71 -49 112 -28 46 25 65 126
32 180 -16 28 -51 50 -79 50 -17 0 -29 24 -19 40 10 15 93 -53 137 -113 74
-101 90 -119 122 -138 40 -24 101 -26 92 -3 -8 21 -20 94 -15 94 2 0 29 -7 59
-15 67 -18 93 -19 88 -3 -4 12 -44 27 -124 47 -29 8 -44 19 -53 38 -51 114
-175 183 -253 142 -18 -10 -24 -8 -35 7 -8 11 -17 31 -20 47 -3 15 -9 27 -14
27 -5 0 -9 6 -9 13 -1 6 -7 26 -15 42 l-14 30 6 -30 6 -30 -23 28 c-14 18 -30
27 -44 25 -51 -7 -12 -78 44 -78 23 0 33 -6 42 -25 16 -36 6 -39 -47 -14 -72
34 -86 64 -84 184 1 88 -3 145 -11 153 -1 1 -3 5 -4 10 -2 9 -42 82 -53 98 -4
6 -14 9 -21 7z m212 -509 c25 -10 20 -59 -8 -77 -22 -15 -25 -14 -46 8 -20 21
-21 27 -9 42 26 33 36 37 63 27z m146 -46 c0 -23 -11 -23 -38 2 -25 23 -28 36
-9 43 17 6 47 -22 47 -45z"/>
<path d="M2618 1076 c-6 -14 -15 -26 -20 -26 -5 0 -6 -4 -3 -10 3 -5 1 -10 -4
-10 -6 0 -10 -3 -10 -7 1 -5 0 -11 -1 -15 -1 -5 -4 -12 -5 -18 -1 -5 -4 -11
-5 -12 -9 -9 -13 -66 -11 -151 3 -130 -15 -162 -111 -197 -31 -10 -35 -2 -18
31 7 12 21 19 40 19 55 0 95 71 45 78 -26 3 -101 -69 -108 -105 -3 -16 -12
-37 -20 -48 -13 -17 -18 -18 -40 -6 -64 34 -179 -18 -227 -102 -16 -29 -31
-55 -32 -59 -2 -5 -37 -17 -78 -29 -76 -20 -99 -33 -87 -45 6 -7 101 10 136
24 14 5 14 -10 -5 -82 -6 -24 -4 -26 25 -26 61 0 101 32 183 150 53 76 132
139 142 114 7 -20 -1 -34 -19 -34 -54 0 -95 -52 -95 -120 0 -104 85 -157 149
-92 15 15 30 34 32 41 4 12 9 12 29 -2 32 -23 62 -21 93 3 65 51 49 153 -28
178 -35 11 -60 36 -83 85 -10 21 33 1 99 -45 60 -43 82 -53 115 -53 50 0 100
33 163 106 l45 52 -70 -5 c-38 -3 -84 -12 -101 -22 -27 -13 -50 -15 -134 -9
l-102 6 35 18 c19 10 75 23 124 29 113 15 184 46 221 98 34 46 69 120 61 128
-7 7 -140 -60 -193 -97 -22 -15 -57 -44 -78 -63 -42 -39 -97 -72 -97 -58 0 17
112 137 141 151 28 14 39 31 19 31 -5 0 -7 7 -4 15 4 8 1 15 -6 15 -6 0 -8 5
-5 10 3 6 2 10 -3 10 -5 0 -12 -13 -15 -29 -6 -31 -94 -152 -116 -159 -7 -2
10 39 38 91 46 88 50 100 47 156 -1 33 -5 64 -9 67 -4 4 -7 15 -7 25 0 29 -19
32 -32 5z m-289 -533 c-27 -28 -39 -29 -39 -4 0 30 29 55 46 40 13 -10 11 -15
-7 -36z m161 22 l23 -25 -22 -24 c-22 -23 -25 -24 -47 -9 -26 17 -34 67 -11
76 24 10 34 7 57 -18z"/>
<path d="M106 1062 c-2 -4 3 -13 13 -19 14 -9 17 -7 18 8 2 19 -21 27 -31 11z"/>
<path d="M2776 1057 c3 -10 9 -15 12 -12 3 3 0 11 -7 18 -10 9 -11 8 -5 -6z"/>
<path d="M2976 1063 c-3 -3 -6 -13 -6 -21 0 -12 3 -12 15 -2 8 6 19 9 25 5 5
-3 10 -4 10 -1 0 9 -37 25 -44 19z"/>
<path d="M2719 1048 c-1 -7 -3 -34 -5 -60 -2 -27 0 -48 5 -48 19 0 30 104 11
115 -5 3 -10 0 -11 -7z"/>
<path d="M369 1023 c-2 -40 2 -58 11 -61 5 -2 6 -10 3 -19 -4 -10 -2 -14 4
-10 6 4 9 21 8 39 -2 18 -3 43 -4 56 -1 32 -21 27 -22 -5z"/>
<path d="M2925 1031 c3 -5 -7 -19 -21 -30 -18 -14 -24 -26 -19 -38 6 -17 7
-17 19 -1 9 12 21 16 39 12 15 -2 27 0 27 6 0 5 -9 10 -20 10 -11 0 -20 5 -20
10 0 6 7 10 15 10 8 0 15 5 15 11 0 5 -4 7 -10 4 -5 -3 -10 -1 -10 4 0 6 -5
11 -11 11 -5 0 -8 -4 -4 -9z"/>
<path d="M150 1018 c0 -4 7 -8 15 -8 8 0 15 -4 15 -10 0 -5 -9 -10 -20 -10
-11 0 -20 -5 -20 -10 0 -6 13 -8 30 -5 17 3 30 1 30 -5 0 -5 7 -10 15 -10 22
0 18 16 -9 43 -23 23 -56 32 -56 15z"/>
<path d="M286 933 c-3 -4 -6 -13 -6 -22 0 -14 2 -14 10 -1 9 13 12 12 25 -4
11 -14 15 -16 15 -5 0 27 -28 47 -44 32z"/>
<path d="M2787 934 c-13 -13 -7 -23 9 -17 9 3 20 0 26 -8 7 -11 8 -9 6 6 -3
20 -28 31 -41 19z"/>
<path d="M2848 933 c7 -3 16 -2 19 1 4 3 -2 6 -13 5 -11 0 -14 -3 -6 -6z"/>
<path d="M320 870 c0 -5 7 -10 16 -10 8 0 12 5 9 10 -3 6 -10 10 -16 10 -5 0
-9 -4 -9 -10z"/>
<path d="M2765 870 c-3 -5 1 -10 9 -10 9 0 16 5 16 10 0 6 -4 10 -9 10 -6 0
-13 -4 -16 -10z"/>
<path d="M597 864 c-15 -15 -6 -41 24 -70 l30 -29 -3 50 c-2 41 -6 50 -23 53
-12 2 -24 0 -28 -4z"/>
<path d="M2467 864 c-4 -4 -7 -28 -7 -53 l0 -45 30 29 c35 33 37 68 5 73 -12
2 -24 0 -28 -4z"/>
<path d="M721 743 c-12 -8 -21 -25 -21 -39 0 -20 5 -24 28 -24 34 0 52 16 52
46 0 27 -32 37 -59 17z"/>
<path d="M2343 749 c-27 -10 -28 -17 -7 -47 10 -14 25 -22 45 -22 31 0 37 16
19 49 -13 24 -30 30 -57 20z"/>
<path d="M1085 231 c3 -5 1 -12 -4 -15 -5 -4 -12 -2 -16 4 -3 5 -15 10 -26 10
-17 0 -19 -8 -21 -77 l-2 -78 -6 75 -6 75 -2 -77 c-1 -49 -6 -78 -13 -78 -7 0
-10 25 -7 75 2 41 0 75 -4 75 -5 0 -8 -36 -8 -80 0 -44 3 -80 8 -80 4 0 17 3
30 6 20 6 22 13 24 83 l2 76 6 -80 6 -80 4 80 4 80 3 -73 c3 -63 6 -73 21 -70
14 3 18 17 20 81 2 51 -1 77 -8 77 -6 0 -9 -4 -5 -9z"/>
<path d="M1112 162 l2 -77 6 75 6 75 2 -72 c2 -65 4 -73 21 -73 14 0 21 -8 24
-27 2 -16 5 11 6 58 l1 87 37 -19 c57 -29 73 -26 73 16 l0 35 -90 -1 -90 -1 2
-76z m40 -14 c2 -27 0 -48 -4 -48 -5 0 -7 30 -7 68 2 69 6 62 11 -20z"/>
<path d="M1713 233 c15 -2 39 -2 55 0 15 2 2 4 -28 4 -30 0 -43 -2 -27 -4z"/>
<path d="M931 173 l2 -38 7 35 c6 27 7 17 8 -40 0 -54 -3 -67 -8 -45 l-8 30
-1 -32 c-1 -23 4 -33 14 -33 12 0 15 16 15 80 0 64 -3 80 -15 80 -11 0 -15
-10 -14 -37z"/>
<path d="M2199 188 c-1 -17 -2 -19 -6 -5 -6 23 -30 22 -38 -3 -3 -10 -5 -48
-4 -84 2 -60 4 -64 21 -55 19 10 26 59 8 59 -24 0 -21 31 4 51 14 11 26 27 26
35 0 8 5 12 10 9 6 -3 10 -1 10 4 0 22 -30 10 -31 -11z"/>
<path d="M910 179 c0 -11 -5 -17 -10 -14 -6 4 -7 11 -4 17 4 6 -2 6 -15 -1
-24 -13 -26 -17 -8 -18 6 0 20 -4 30 -8 14 -6 17 -2 17 19 0 14 -2 26 -5 26
-3 0 -5 -9 -5 -21z"/>
<path d="M1682 183 c-13 -25 -4 -43 19 -43 12 0 17 -4 14 -11 -4 -6 -13 -8
-21 -5 -15 6 -19 -9 -5 -18 16 -10 41 5 47 29 12 47 -34 87 -54 48z m36 -14
c-2 -6 -8 -10 -13 -10 -5 0 -11 4 -13 10 -2 6 4 11 13 11 9 0 15 -5 13 -11z"/>
<path d="M1762 185 c-7 -9 -8 -15 -2 -15 5 0 10 -13 10 -30 0 -16 5 -30 10
-30 6 0 10 20 10 45 0 47 -6 54 -28 30z"/>
<path d="M1620 175 c-9 -10 -9 -15 -1 -15 6 0 11 -13 11 -30 0 -16 5 -30 10
-30 6 0 10 20 10 45 0 47 -9 56 -30 30z"/>
<path d="M1820 171 c-14 -27 4 -71 29 -71 27 0 36 35 17 65 -20 30 -32 31 -46
6z m40 -31 c0 -25 -18 -36 -26 -16 -8 21 3 49 16 41 5 -3 10 -15 10 -25z"/>
<path d="M2131 108 c2 -86 6 -76 11 25 2 31 0 57 -4 57 -5 0 -7 -37 -7 -82z"/>
<path d="M2087 163 c-4 -12 -7 -50 -6 -83 2 -49 5 -60 18 -58 13 3 16 19 17
83 l1 80 -7 -80 -6 -80 -4 80 c-4 56 -7 73 -13 58z"/>
<path d="M2038 93 l-2 -78 -6 75 -6 75 -5 -75 -5 -75 -2 73 c-2 65 -4 72 -22
72 -18 0 -20 -7 -20 -77 1 -60 3 -74 11 -60 6 10 9 43 7 73 -1 30 0 54 5 54 4
0 7 -31 7 -70 0 -68 1 -70 25 -70 14 0 25 5 25 11 0 5 5 7 10 4 6 -4 10 22 10
69 0 61 -3 76 -15 76 -12 0 -15 -16 -17 -77z m19 -31 c-2 -15 -4 -2 -4 28 0
30 2 43 4 27 2 -15 2 -39 0 -55z"/>
<path d="M1467 144 c-4 -4 -7 -27 -7 -51 0 -41 2 -44 23 -38 52 16 65 87 17
93 -14 2 -29 0 -33 -4z m43 -39 c0 -22 -22 -40 -34 -28 -11 11 -6 51 7 56 19
7 27 -2 27 -28z"/>
<path d="M1932 98 c-1 -32 -4 -58 -6 -58 -2 0 -23 7 -46 15 -58 20 -60 20 -60
-20 l0 -36 68 3 67 3 1 75 1 75 -7 -75 -6 -75 -5 75 c-5 72 -5 73 -7 18z"/>
<path d="M1220 97 c0 -32 5 -47 16 -51 25 -9 56 -7 49 4 -3 5 -15 10 -26 10
-26 0 -24 18 4 23 l22 4 -22 8 c-28 9 -31 29 -3 22 11 -3 23 -1 26 4 3 5 -1 9
-8 9 -7 0 -23 3 -35 6 -21 6 -23 3 -23 -39z"/>
<path d="M1408 132 c-26 -3 -41 -22 -18 -22 6 0 10 -16 10 -35 0 -19 5 -35 10
-35 6 0 10 18 10 39 0 22 5 41 13 44 20 7 4 13 -25 9z"/>
<path d="M1304 116 c-7 -19 12 -46 32 -46 8 0 14 -5 14 -11 0 -7 -10 -9 -25
-5 -29 7 -35 -10 -6 -19 29 -9 52 5 49 29 -2 13 -12 22 -25 24 -13 2 -23 8
-23 14 0 6 9 8 21 5 13 -3 19 -1 16 6 -6 19 -46 20 -53 3z"/>
<path d="M1547 93 c-4 -3 -7 -11 -7 -17 0 -6 5 -5 12 2 6 6 9 14 7 17 -3 3 -9
2 -12 -2z"/>
<path d="M908 65 c-3 -14 -1 -25 3 -25 5 0 9 11 9 25 0 14 -2 25 -4 25 -2 0
-6 -11 -8 -25z"/>
<path d="M2202 70 c0 -14 2 -19 5 -12 2 6 2 18 0 25 -3 6 -5 1 -5 -13z"/>
<path d="M2221 74 c0 -11 3 -14 6 -6 3 7 2 16 -1 19 -3 4 -6 -2 -5 -13z"/>
<path d="M877 52 c-14 -15 -14 -19 -3 -19 8 0 17 9 19 19 3 10 4 18 3 18 -2 0
-10 -8 -19 -18z"/>
</g>
</svg>
