<?xml version="1.0" standalone="no"?>
<!DOCTYPE svg PUBLIC "-//W3C//DTD SVG 20010904//EN"
 "http://www.w3.org/TR/2001/REC-SVG-20010904/DTD/svg10.dtd">
<svg version="1.0" xmlns="http://www.w3.org/2000/svg"
 width="800.000000pt" height="800.000000pt" viewBox="0 0 800.000000 800.000000"
 preserveAspectRatio="xMidYMid meet">

<g transform="translate(0.000000,800.000000) scale(0.100000,-0.100000)"
fill="#000000" stroke="none">
<path d="M2607 5900 c-71 -12 -130 -45 -182 -101 -69 -74 -90 -126 -90 -229 0
-111 26 -170 104 -243 164 -150 414 -111 520 83 34 62 36 70 36 160 0 101 -13
139 -72 217 -63 83 -202 133 -316 113z m116 -184 c18 -7 46 -28 62 -45 27 -29
30 -39 30 -99 0 -80 -18 -111 -83 -143 -102 -51 -222 25 -222 141 0 112 112
189 213 146z"/>
<path d="M514 5169 c-98 -9 -183 -49 -239 -111 -54 -60 -75 -120 -75 -214 0
-186 82 -277 331 -367 171 -62 209 -90 209 -153 0 -49 -32 -81 -95 -94 -90
-19 -186 6 -247 64 -15 14 -30 26 -34 26 -11 0 -194 -131 -194 -139 0 -36 132
-131 216 -156 92 -27 224 -37 310 -25 205 28 317 147 317 336 0 91 -16 147
-57 204 -44 59 -119 103 -258 149 -185 62 -228 93 -228 165 0 107 217 126 302
26 l33 -38 95 68 c52 38 96 73 98 79 6 19 -80 101 -139 130 -92 46 -212 63
-345 50z"/>
<path d="M1170 4585 l0 -575 135 0 135 0 0 150 0 150 45 63 c25 34 51 62 56
62 6 0 64 -94 128 -210 l117 -210 163 -3 c129 -2 162 0 158 10 -2 7 -91 161
-196 342 -105 180 -188 333 -184 340 4 6 78 109 165 228 87 120 158 220 158
223 0 3 -71 5 -157 5 l-158 -1 -145 -212 -145 -212 -3 213 -2 212 -135 0 -135
0 0 -575z"/>
<path d="M2507 5058 c-19 -57 -58 -168 -85 -248 -28 -80 -91 -262 -140 -405
-49 -143 -99 -287 -111 -320 -11 -32 -21 -63 -21 -67 0 -4 65 -8 145 -8 l144
0 21 73 c12 39 25 83 29 97 l8 25 175 3 175 2 32 -100 32 -100 144 0 c80 0
145 2 145 4 0 4 -70 208 -293 854 l-101 292 -132 0 -132 0 -35 -102z m223
-465 l47 -153 -104 0 c-80 0 -104 3 -100 13 4 11 80 254 94 302 7 24 2 38 63
-162z"/>
<path d="M3290 4585 l0 -575 130 0 130 0 0 316 0 317 168 -254 c92 -140 186
-282 207 -316 l40 -63 113 0 112 0 0 575 0 575 -130 0 -130 0 0 -317 c-1 -302
-2 -317 -18 -296 -9 11 -104 154 -211 317 l-193 296 -109 0 -109 0 0 -575z"/>
<path d="M4390 4585 l0 -575 360 0 360 0 0 115 0 115 -220 0 -220 0 0 125 0
125 195 0 195 0 0 115 0 115 -195 0 -195 0 0 105 0 105 220 0 220 0 0 115 0
115 -360 0 -360 0 0 -575z"/>
<path d="M455 3956 c-170 -41 -255 -149 -255 -322 0 -183 89 -277 350 -369
155 -55 189 -81 190 -146 0 -61 -58 -99 -154 -99 -69 0 -134 23 -184 66 l-41
35 -101 -73 -100 -72 37 -38 c90 -92 201 -137 363 -145 296 -15 452 105 452
347 0 106 -25 172 -87 229 -56 51 -115 81 -252 125 -170 56 -216 96 -198 173
12 47 57 73 130 73 75 0 122 -17 165 -60 l39 -39 98 71 c54 39 100 72 102 74
2 1 -19 25 -47 53 -90 90 -207 131 -367 130 -49 0 -112 -6 -140 -13z"/>
<path d="M7300 3959 c-69 -14 -146 -56 -189 -105 -53 -60 -75 -129 -74 -227 0
-66 5 -87 32 -142 49 -98 121 -149 303 -213 155 -55 208 -93 208 -151 0 -116
-217 -139 -339 -35 l-41 35 -100 -72 -101 -72 38 -39 c93 -96 196 -136 368
-145 180 -9 289 27 372 121 50 56 73 127 73 220 0 96 -21 163 -69 217 -49 56
-106 87 -253 138 -64 22 -130 47 -146 55 -86 44 -97 142 -22 181 34 17 118 20
173 4 22 -6 55 -27 76 -49 l38 -39 93 67 c51 37 95 72 97 78 7 20 -86 103
-150 133 -34 16 -89 34 -121 40 -69 13 -201 13 -266 0z"/>
<path d="M1090 3845 l0 -115 145 0 145 0 0 -460 0 -460 140 0 140 0 0 460 0
460 150 0 151 0 -3 113 -3 112 -432 3 -433 2 0 -115z"/>
<path d="M2211 3723 c-46 -131 -105 -303 -133 -383 -27 -80 -79 -228 -114
-330 -35 -102 -64 -189 -64 -193 0 -4 65 -7 144 -7 l144 0 20 68 c12 37 24 79
27 95 l7 27 179 0 178 0 29 -92 28 -93 148 -3 c139 -2 148 -1 141 15 -3 10
-51 149 -107 308 -55 160 -141 409 -191 555 l-92 265 -131 3 -131 3 -82 -238z
m263 -318 c25 -83 46 -156 46 -163 0 -9 -28 -12 -100 -12 -55 0 -100 3 -100 7
0 5 78 259 96 312 2 8 6 12 8 10 2 -2 25 -72 50 -154z"/>
<path d="M3040 3385 l0 -575 135 0 135 0 0 215 0 215 73 0 74 0 93 -215 94
-215 148 0 c81 0 148 2 148 5 0 3 -50 110 -110 238 l-111 232 23 15 c55 36
107 94 129 143 20 44 24 68 24 152 -1 127 -23 183 -101 254 -99 90 -200 111
-546 111 l-208 0 0 -575z m520 320 c41 -21 63 -59 63 -108 0 -50 -15 -81 -50
-104 -21 -14 -50 -18 -142 -18 l-116 0 -3 114 c-1 63 0 121 3 129 5 13 23 14
111 9 62 -4 117 -13 134 -22z"/>
<path d="M3980 3845 l0 -115 145 0 145 0 0 -460 0 -460 140 0 140 0 0 460 0
460 150 0 151 0 -3 113 -3 112 -432 3 -433 2 0 -115z"/>
<path d="M4972 3538 c3 -384 5 -428 22 -473 45 -120 128 -205 243 -247 87 -32
274 -32 358 1 118 47 187 116 237 240 22 55 23 66 26 479 l3 423 -133 -3 -133
-3 -5 -400 c-5 -395 -5 -401 -29 -448 -28 -57 -78 -87 -146 -87 -68 0 -118 30
-146 87 -24 47 -24 53 -29 448 l-5 400 -133 3 -133 3 3 -423z"/>
<path d="M6070 3385 l0 -575 135 0 135 0 2 193 3 192 129 2 c138 2 212 18 282
58 140 81 205 259 158 437 -19 74 -49 124 -105 171 -89 76 -201 97 -531 97
l-208 0 0 -575z m490 324 c62 -19 90 -58 90 -127 0 -115 -51 -153 -209 -155
l-96 -2 -3 140 c-1 76 0 146 3 153 4 12 22 14 90 9 46 -3 103 -11 125 -18z"/>
</g>
</svg>
