<?xml version="1.0" standalone="no"?>
<!DOCTYPE svg PUBLIC "-//W3C//DTD SVG 20010904//EN"
 "http://www.w3.org/TR/2001/REC-SVG-20010904/DTD/svg10.dtd">
<svg version="1.0" xmlns="http://www.w3.org/2000/svg"
 width="220.000000pt" height="110.000000pt" viewBox="0 0 220.000000 110.000000"
 preserveAspectRatio="xMidYMid meet">

<g transform="translate(0.000000,110.000000) scale(0.100000,-0.100000)"
fill="#000000" stroke="none">
<path d="M0 550 l0 -550 550 0 550 0 0 550 0 550 -550 0 -550 0 0 -550z m138
-452 c16 -16 88 -16 104 0 8 8 15 54 19 125 l5 112 2 -114 c2 -138 -5 -151
-79 -151 -39 0 -51 4 -68 26 -18 23 -21 41 -21 124 0 134 14 135 20 1 3 -70
10 -115 18 -123z m296 107 l61 -120 3 123 c4 163 22 152 22 -14 0 -112 -2
-124 -18 -124 -12 0 -35 35 -79 123 l-62 122 0 -122 c-1 -75 -5 -123 -11 -123
-6 0 -10 50 -10 131 0 169 11 169 94 4z m163 -72 c-2 -38 -3 -7 -3 67 0 74 1
105 3 68 2 -38 2 -98 0 -135z m218 187 c4 -6 -12 -10 -39 -10 l-46 0 -2 -122
-2 -123 -3 123 -4 122 -45 0 c-28 0 -43 4 -39 10 3 6 44 10 90 10 46 0 87 -4
90 -10z m185 0 c0 -6 -28 -10 -65 -10 l-65 0 0 -50 0 -50 58 -2 57 -2 -57 -3
-58 -4 0 -54 0 -55 65 0 c37 0 65 -4 65 -10 0 -6 -32 -10 -75 -10 l-75 0 0
130 0 130 75 0 c43 0 75 -4 75 -10z"/>
<path d="M2070 856 c0 -3 9 -10 20 -16 11 -6 20 -8 20 -6 0 3 -9 10 -20 16
-11 6 -20 8 -20 6z"/>
<path d="M1160 771 c0 -64 15 -91 49 -91 20 0 34 7 41 19 13 25 13 111 0 111
-6 0 -10 -27 -10 -61 0 -60 0 -60 -27 -57 -27 3 -28 6 -31 61 -3 64 -22 79
-22 18z"/>
<path d="M1292 743 l2 -68 3 60 c2 33 10 63 16 67 8 5 6 8 -5 8 -16 0 -18 -9
-16 -67z"/>
<path d="M1378 748 l-3 -63 -24 53 c-30 67 -38 62 -10 -6 31 -74 49 -69 49 13
0 83 -8 84 -12 3z"/>
<path d="M1423 745 c0 -38 2 -53 4 -32 2 20 2 52 0 70 -2 17 -4 1 -4 -38z"/>
<path d="M1464 793 c3 -10 10 -40 17 -66 16 -66 37 -59 60 21 10 34 14 62 10
62 -5 0 -14 -27 -21 -60 -7 -33 -16 -60 -20 -60 -4 0 -15 27 -24 60 -9 33 -19
60 -22 60 -3 0 -3 -8 0 -17z"/>
<path d="M1582 748 l3 -63 40 -2 40 -1 -35 6 c-26 5 -36 13 -38 30 -3 19 1 22
30 23 l33 1 -30 7 c-21 4 -31 13 -33 28 -3 19 2 22 35 26 l38 4 -43 1 -43 2 3
-62z"/>
<path d="M1691 743 c1 -38 4 -56 6 -40 3 21 10 27 29 27 13 0 24 -4 24 -8 0
-5 7 -17 15 -28 14 -18 14 -17 3 9 -9 21 -9 30 0 39 17 17 15 55 -4 62 -9 3
-29 6 -45 6 l-29 0 1 -67z m74 27 c0 -21 -5 -26 -32 -28 -31 -3 -33 -1 -33 28
0 29 2 31 33 28 27 -2 32 -7 32 -28z"/>
<path d="M1806 795 c-9 -25 4 -43 35 -50 41 -9 37 -47 -6 -56 l-30 -7 32 -1
c58 -2 64 59 8 73 -14 4 -25 11 -25 16 0 6 0 13 0 18 -1 4 14 10 32 13 l33 6
-36 2 c-25 1 -39 -4 -43 -14z"/>
<path d="M1923 745 c0 -38 2 -53 4 -32 2 20 2 52 0 70 -2 17 -4 1 -4 -38z"/>
<path d="M1967 803 c19 -4 23 -12 26 -66 l3 -62 2 62 c2 55 4 62 25 66 12 2 0
4 -28 4 -27 0 -40 -2 -28 -4z"/>
<path d="M2071 773 c-5 -21 -12 -51 -16 -68 -5 -26 -4 -27 4 -7 13 27 55 30
70 5 14 -24 13 -8 -2 52 -17 64 -42 72 -56 18z m44 -15 c6 -25 5 -28 -19 -28
-30 0 -29 -2 -15 39 12 35 24 31 34 -11z"/>
<path d="M1173 570 c0 -36 2 -50 4 -32 2 17 2 47 0 65 -2 17 -4 3 -4 -33z"/>
<path d="M1613 570 c0 -36 2 -50 4 -32 2 17 2 47 0 65 -2 17 -4 3 -4 -33z"/>
<path d="M1833 570 c0 -36 2 -50 4 -32 2 17 2 47 0 65 -2 17 -4 3 -4 -33z"/>
<path d="M2106 617 c3 -10 9 -15 12 -12 3 3 0 11 -7 18 -10 9 -11 8 -5 -6z"/>
<path d="M2163 570 c0 -36 2 -50 4 -32 2 17 2 47 0 65 -2 17 -4 3 -4 -33z"/>
<path d="M1252 570 c0 -19 2 -27 5 -17 2 9 2 25 0 35 -3 9 -5 1 -5 -18z"/>
<path d="M1400 531 c0 -6 4 -13 10 -16 6 -3 7 1 4 9 -7 18 -14 21 -14 7z"/>
<path d="M1910 531 c0 -6 4 -13 10 -16 6 -3 7 1 4 9 -7 18 -14 21 -14 7z"/>
<path d="M1170 395 l0 -65 35 0 c40 0 55 20 55 72 0 43 -15 58 -57 58 l-33 0
0 -65z m76 29 c11 -42 -7 -78 -39 -82 -27 -3 -27 -2 -27 52 0 55 0 56 30 56
24 0 31 -5 36 -26z"/>
<path d="M1293 395 c0 -38 2 -53 4 -32 2 20 2 52 0 70 -2 17 -4 1 -4 -38z"/>
<path d="M1387 453 c19 -4 23 -12 26 -66 l3 -62 2 62 c2 55 4 62 25 66 12 2 0
4 -28 4 -27 0 -40 -2 -28 -4z"/>
<path d="M1480 395 l0 -65 43 2 c36 1 38 2 10 5 -27 4 -33 9 -33 28 0 18 6 25
28 28 l27 4 -27 2 c-23 1 -28 6 -28 25 0 20 6 25 33 29 28 3 26 4 -10 5 l-43
2 0 -65z"/>
<path d="M1591 393 c1 -38 4 -56 6 -40 3 21 10 27 29 27 13 0 24 -4 24 -8 0
-5 7 -17 15 -28 14 -18 14 -17 4 8 -9 21 -9 31 1 43 7 8 10 25 6 40 -5 21 -12
25 -46 25 l-40 0 1 -67z m74 27 c0 -21 -5 -26 -32 -28 -31 -3 -33 -1 -33 28 0
29 2 31 33 28 27 -2 32 -7 32 -28z"/>
<path d="M1721 413 c-22 -91 -22 -90 -10 -65 16 30 65 31 74 1 9 -27 16 -20 8
9 -4 17 -13 22 -38 22 l-33 0 11 35 c13 43 23 45 32 4 4 -17 9 -28 12 -25 3 2
2 18 -2 35 -11 50 -40 41 -54 -16z"/>
<path d="M1820 401 c0 -33 5 -63 10 -66 6 -4 10 16 11 52 0 60 2 59 29 -14 7
-18 16 -33 20 -33 5 0 17 24 27 53 l18 52 6 -60 6 -60 1 68 c2 81 -14 87 -37
14 -8 -26 -17 -47 -21 -47 -4 0 -13 21 -21 47 -9 29 -22 49 -32 51 -14 3 -17
-5 -17 -57z"/>
<path d="M1989 433 c-16 -43 -3 -92 26 -99 14 -3 32 -4 40 0 23 8 36 53 27 89
-7 28 -13 32 -45 35 -33 3 -38 0 -48 -25z m76 -38 c0 -49 -1 -50 -30 -50 -28
0 -30 3 -33 39 -5 54 3 68 35 64 26 -3 28 -6 28 -53z"/>
</g>
</svg>
